<svg width="271" height="349" viewBox="0 0 271 349" fill="none" xmlns="http://www.w3.org/2000/svg">
<rect width="271" height="349" fill="#C9C0B1"/>
<path d="M85.1576 111.839H51.4495L68.8457 65.646L85.1576 111.839ZM270.583 158.999L228.831 104.085L270.583 49.5245V37.9812H224.054L202.978 70.6568L182.462 37.9812H127.101L177.685 104.085L145.514 146.395L85.975 0H49.2774L0 121.152V173.105H28.6149L38.1304 147.334H97.6625L106.631 173.105L180.495 173.208L202.978 139.023L226.021 173.208L270.583 173.159V159.002V158.999Z" fill="#4F7055"/>
<path d="M193.491 265.487C193.491 262.019 194.08 258.018 196.135 254.28C199.072 248.145 205.537 243.073 216.996 243.073C228.456 243.073 234.92 248.141 237.858 254.28C239.916 258.015 240.502 262.019 240.502 265.487H193.491ZM133.561 229.741C133.561 238.876 125.95 247.517 112.901 247.517H85.989V211.966H112.901C125.95 211.966 133.561 220.606 133.561 229.741ZM254.261 349C260.224 346.918 265.548 344.189 270.583 340.825V320.024L254.017 304.978C245.494 312.717 238.151 316.985 221.403 316.985C203.479 316.985 193.491 306.312 193.491 294.571H270.583V227.877C258.53 215.04 240.466 207.05 216.996 207.05C202.811 207.05 190.039 210.151 179.374 216.11C173.245 192.736 151.169 173.207 115.076 173.207H38.4174V211.777H0V269.45L38.4207 218.469V339.719L0 288.409V349H67.3551L85.9923 348.98V286.275H115.08C127.005 286.275 137.394 284.138 146.193 280.439C146.193 322.522 164.804 341.293 187.707 349H254.268H254.261Z" fill="#4F7055"/>
<ellipse cx="146.063" cy="174.069" rx="41.7939" ry="42.2247" fill="#FF5E28"/>
</svg>
