<?xml version="1.0" encoding="UTF-8"?>
<svg width="32px" height="24px" viewBox="0 0 32 24" version="1.1" xmlns="http://www.w3.org/2000/svg" xmlns:xlink="http://www.w3.org/1999/xlink">
    <!-- Generator: Sketch 57.1 (83088) - https://sketch.com -->
    <title>noun_360 vr_2320703</title>
    <desc>Created with Sketch.</desc>
    <g id="Mobile" stroke="none" stroke-width="1" fill="none" fill-rule="evenodd">
        <g id="Interna-de-Busca---Lançamentos-Copy" transform="translate(-313.000000, -166.000000)" fill="#FFFFFF">
            <g id="Group-46" transform="translate(302.000000, 150.000000)">
                <g id="noun_360-vr_2320703" transform="translate(11.000000, 16.000000)">
                    <path d="M16,12.8 C15.3466143,12.8 0,12.8477008 0,16.9848734 C0,20.2327944 9.35863342,20.9560628 13.3497374,21.1166167 L12.0376662,22.4534028 C11.6916671,22.80476 11.6901528,23.3775575 12.0338807,23.7320172 L12.0338807,23.7327928 C12.3776085,24.0872525 12.936734,24.0895793 13.2823546,23.7366709 L15.796716,21.1763397 C16.1423366,20.8242069 16.1729996,20.2250382 15.8591776,19.8426561 C15.2239625,19.06936 14.1965646,17.8271999 13.5583211,17.0550673 C13.2429849,16.6750121 12.6857521,16.6269235 12.3140113,16.9511338 C11.9426489,17.2745686 11.8968438,17.8450393 12.2125586,18.2258701 L13.1002697,19.297781 C7.47115885,19.063155 3.9589268,18.1963964 2.50830455,17.4921308 C2.06766668,17.2784467 2.06312402,16.685483 2.50376189,16.4702476 C4.25192826,15.6205527 8.92708087,14.6083648 16.0003786,14.6083648 C23.0740548,14.6083648 27.7488288,15.6209405 29.4966167,16.4702476 C29.9372545,16.6847074 29.9327119,17.2784467 29.4913169,17.4921308 C27.9770974,18.2262579 24.2241045,19.1403295 18.1562485,19.326479 C17.669427,19.3416037 17.2806511,19.7530716 17.2897364,20.2529606 C17.2984432,20.7520739 17.7004685,21.1499685 18.1880471,21.1336804 C21.8604079,21.011132 32,20.3650381 32,16.9844856 C31.9996214,12.8477008 16.6533857,12.8 16,12.8 Z" id="Path"></path>
                    <g id="Group" transform="translate(2.400000, 1.600000)">
                        <path d="M0.085875,9.6072 L0.085875,7.7664 L0.2805,7.7664 C1.20825,8.3328 2.077125,8.6152 2.887125,8.6152 C3.52725,8.6152 4.0275,8.474 4.387875,8.1908 C4.74825,7.908 4.928625,7.494 4.928625,6.9496 C4.928625,6.5176 4.788,6.1836 4.506375,5.9484 C4.22475,5.7132 3.64275,5.5952 2.759625,5.5952 L2.224875,5.5952 L2.224875,4.124 L2.72925,4.124 C4.090125,4.124 4.77075,3.6812 4.77075,2.7952 C4.77075,2.4236 4.624875,2.1416 4.333125,1.9496 C4.041375,1.7572 3.62625,1.6612 3.087375,1.6612 C2.362125,1.6612 1.511625,1.9376 0.5355,2.4908 L0.35325,2.4908 L0.35325,0.6696 C1.38225,0.2592 2.372625,0.0536 3.324375,0.0536 C4.4505,0.0536 5.302125,0.274 5.87925,0.7148 C6.456375,1.1556 6.745125,1.7408 6.745125,2.4712 C6.745125,3.0156 6.585,3.492 6.265125,3.9004 C5.944875,4.3088 5.51775,4.582 4.983,4.7204 L4.983,4.8112 C5.594625,4.928 6.07875,5.1816 6.435375,5.5728 C6.792,5.964 6.970125,6.4684 6.970125,7.0864 C6.970125,8.0368 6.63,8.7976 5.949375,9.368 C5.26875,9.9384 4.347375,10.2236 3.1845,10.2236 C2.058375,10.2228 1.02525,10.0172 0.085875,9.6072 Z" id="Path"></path>
                        <path d="M14.820375,0.2156 L14.820375,1.8876 L14.64375,1.8876 C14.259375,1.6888 13.79475,1.5896 13.252125,1.5896 C11.59575,1.5896 10.672125,2.5144 10.481625,4.3636 C11.28375,3.8536 12.008625,3.5988 12.656625,3.5988 C13.5525,3.5988 14.274,3.8732 14.823,4.422 C15.371625,4.9708 15.646125,5.74 15.646125,6.7296 C15.646125,7.758 15.31725,8.5972 14.65875,9.2472 C14.00025,9.898 13.155,10.2228 12.121875,10.2228 C10.935,10.2228 10.02675,9.8328 9.39675,9.0524 C8.76675,8.2728 8.45175,7.1464 8.45175,5.6728 C8.45175,3.8624 8.868,2.4732 9.7005,1.5052 C10.533,0.5376 11.740875,0.0536 13.324875,0.0536 C13.884375,0.0536 14.38275,0.1076 14.820375,0.2156 Z M10.476,5.42 L10.469625,5.6856 C10.4655,5.828 10.463625,5.9428 10.463625,6.0292 C10.463625,7.8528 11.018625,8.764 12.128625,8.764 C12.574125,8.764 12.93375,8.596 13.20675,8.2584 C13.4805,7.9216 13.617,7.4484 13.617,6.8392 C13.617,5.6508 13.035375,5.0568 11.87325,5.0568 C11.419875,5.0572 10.95375,5.178 10.476,5.42 Z" id="Shape" fill-rule="nonzero"></path>
                        <path d="M20.380125,10.2228 C19.136625,10.2228 18.22425,9.8196 17.643,9.0144 C17.061375,8.208 16.771125,6.9152 16.771125,5.1352 C16.771125,3.3724 17.0625,2.0848 17.646,1.2724 C18.2295,0.46 19.140375,0.054 20.380125,0.054 C21.619875,0.054 22.531125,0.4592 23.114625,1.2692 C23.69775,2.0792 23.9895,3.366 23.9895,5.1288 C23.9895,6.922 23.7,8.2192 23.120625,9.0208 C22.54125,9.8224 21.62775,10.2228 20.380125,10.2228 Z M20.380125,1.5636 C19.81275,1.5636 19.407,1.8476 19.162125,2.416 C18.916875,2.984 18.794625,3.8928 18.794625,5.1412 C18.794625,6.3856 18.919875,7.2928 19.171125,7.8632 C19.422375,8.4336 19.8255,8.7188 20.3805,8.7188 C20.9355,8.7188 21.338625,8.4296 21.589875,7.8508 C21.841125,7.2716 21.96675,6.3644 21.96675,5.1284 C21.96675,3.884 21.844125,2.9788 21.59925,2.4128 C21.35325,1.8468 20.947125,1.5636 20.380125,1.5636 Z" id="Shape" fill-rule="nonzero"></path>
                    </g>
                    <circle id="Oval" cx="28.4" cy="2" r="2"></circle>
                </g>
            </g>
        </g>
    </g>
</svg>