<?xml version="1.0" encoding="UTF-8"?>
<svg width="30px" height="30px" viewBox="0 0 30 30" version="1.1" xmlns="http://www.w3.org/2000/svg" xmlns:xlink="http://www.w3.org/1999/xlink">
    <title>Group 29</title>
    <g id="alteracoes_09_11_2020_selos" stroke="none" stroke-width="1" fill="none" fill-rule="evenodd">
        <g id="7" transform="translate(-1129.000000, -569.000000)" stroke="#FE6C00">
            <g id="Group-26" transform="translate(1095.000000, 551.000000)">
                <g id="Group-29" transform="translate(35.000000, 19.000000)">
                    <g id="noun_form_1401202" stroke-linecap="round" stroke-linejoin="round" stroke-width="1.5">
                        <g id="Group">
                            <path d="M20.2770408,13.8481641 L20.2770408,1.06073536 C20.2770408,0.474693691 19.8023484,0 19.2163068,0 L1.15450208,0 C0.568460417,0 0.0879063086,0.474693691 0.0879063086,1.06073536 L0.0879063086,27.0692629 C0.0879063086,27.6553054 0.568460417,28.13 1.15450208,28.13 L19.2163072,28.13 C19.3803982,28.13 19.5327702,28.0948367 19.6675596,28.0245123" id="Path"></path>
                            <line x1="2.63838215" y1="4.16012478" x2="17.7289542" y2="4.16012478" id="Path"></line>
                            <line x1="2.63838215" y1="8.22685971" x2="17.7289542" y2="8.22685971" id="Path"></line>
                            <line x1="2.63838215" y1="12.2935946" x2="17.7289542" y2="12.2935946" id="Path"></line>
                            <line x1="11.1567685" y1="16.3622834" x2="2.6371875" y2="16.3622834" id="Path"></line>
                            <circle id="Oval" cx="20.8874994" cy="20.9754087" r="7.15459182"></circle>
                        </g>
                    </g>
                    <g id="noun_House_3591651" transform="translate(16.409167, 16.995208)" fill="#FE6C00" fill-rule="nonzero" stroke-width="0.5">
                        <g id="Group">
                            <path d="M8.43020937,2.46723542 L7.61854167,1.94565833 L7.61854167,1.94565833 L4.90809896,0.202184375 C4.607519,0.0118271549 4.22412892,0.0118271549 3.92354896,0.202184375 L1.30687292,1.86654271 L1.30687292,1.86654271 L0.363345833,2.46723542 C0.297669826,2.50880577 0.251201082,2.57476686 0.234165289,2.65060362 C0.217129496,2.72644038 0.230922606,2.80593855 0.272509375,2.87160417 L0.272509375,2.87160417 C0.314079726,2.93728017 0.380040821,2.98374892 0.455877578,3.00078471 C0.531714335,3.0178205 0.611212513,3.00402739 0.676878125,2.96244063 L1.17208333,2.6371875 L1.17208333,6.52557396 C1.17208333,7.09683717 1.63518367,7.5599375 2.20644687,7.5599375 L6.58124792,7.5599375 C7.15298707,7.5599375 7.61692658,7.09731083 7.61854167,6.52557396 L7.61854167,2.6371875 L8.11374687,2.95658021 C8.24908186,3.03378019 8.42116522,2.99157173 8.5054183,2.86051139 C8.58967137,2.72945105 8.55662785,2.55537531 8.43020937,2.46430521 L8.43020937,2.46723542 Z M7.0325,6.52557396 C7.03088909,6.77364852 6.82932771,6.97389583 6.58124792,6.97389583 L2.20644687,6.97389583 C1.95951063,6.97229749 1.75972334,6.77251021 1.758125,6.52557396 L1.758125,2.27384167 L4.23708125,0.694459375 C4.34530969,0.625852538 4.48340801,0.625852538 4.59163646,0.694459375 L7.0325,2.26505104 L7.0325,6.52557396 Z" id="Shape"></path>
                            <path d="M3.80927083,2.93020833 C3.80927083,3.09203927 3.94046073,3.22322917 4.10229167,3.22322917 L4.68833333,3.22322917 C4.85016427,3.22322917 4.98135417,3.09203927 4.98135417,2.93020833 C4.98135417,2.7683774 4.85016427,2.6371875 4.68833333,2.6371875 L4.10229167,2.6371875 C3.94046073,2.6371875 3.80927083,2.7683774 3.80927083,2.93020833 Z" id="Path"></path>
                        </g>
                    </g>
                </g>
            </g>
        </g>
    </g>
</svg>