<?xml version="1.0" encoding="UTF-8"?>
<svg width="30px" height="30px" viewBox="0 0 29 24" version="1.1" xmlns="http://www.w3.org/2000/svg" xmlns:xlink="http://www.w3.org/1999/xlink" fill="#FFFFFF">
    <g  transform="translate(0, -1)">

        <g class="left-balloon">
            <path d="M10.2415328,2.7 C4.65462251,2.7 0.12,7.19905684 0.12,12.7722628 L0.126416422,13.1488616 C0.164983934,14.2673406 0.378036429,15.2896773 0.782335206,16.3701437 L0.915,16.708 L0.00567289649,23.0081227 L6.305,22.099 L6.64365197,22.2314604 C7.84417012,22.6806813 8.97292331,22.8937956 10.2415328,22.8937956 C15.8215428,22.8937956 20.3630657,18.3522727 20.3630657,12.7722628 C20.3630657,7.19905684 15.8284432,2.7 10.2415328,2.7 Z"></path>
            <path class="hollow-bg" d="M10.2415328,4.15 C15.0207299,4.15 18.9130657,7.99306569 18.9130657,12.7722628 C18.9130657,17.5514599 15.0207299,21.4437956 10.2415328,21.4437956 C8.8619708,21.4437956 7.72875912,21.1481752 6.4970073,20.6062044 L1.71781022,21.2959854 L2.40759124,16.5167883 C1.86562044,15.2850365 1.57,14.1518248 1.57,12.7722628 C1.57,7.99306569 5.46233577,4.15 10.2415328,4.15 Z"></path>
        </g>

        <g class="right-balloon">
            <path d="M16.7518248,0.0281021898 C11.1649145,0.0281021898 6.63029197,4.52715903 6.63029197,10.100365 C6.63029197,15.6803749 11.1718148,20.2218978 16.7518248,20.2218978 L17.1284236,20.2154814 C18.2469026,20.1769139 19.2692394,19.9638614 20.3497057,19.5595626 L20.688,19.427 L26.9876848,20.3362249 L26.078,14.038 L26.2110225,13.6982458 C26.6602433,12.4977277 26.8733577,11.3689745 26.8733577,10.100365 C26.8733577,4.52715903 22.3387352,0.0281021898 16.7518248,0.0281021898 Z"></path>
            <path class="hollow-bg" d="M16.7518248,1.47810219 C21.5310219,1.47810219 25.4233577,5.32116788 25.4233577,10.100365 C25.4233577,11.3545123 25.1790433,12.4050642 24.7274318,13.5111422 L24.5857664,13.8448905 L25.2755474,18.6240876 L20.4963504,17.9343066 C19.2645985,18.4762774 18.1313869,18.7718978 16.7518248,18.7718978 C11.9726277,18.7718978 8.08029197,14.879562 8.08029197,10.100365 C8.08029197,5.32116788 11.9726277,1.47810219 16.7518248,1.47810219 Z"></path>

            <g class="chat-dots">
                <path class="chat-dot" d="M12.120438,8.67153285 C12.9087591,8.67153285 13.5492701,9.3120438 13.5492701,10.100365 C13.5492701,10.9379562 12.9087591,11.5784672 12.120438,11.5784672 C11.2828467,11.5784672 10.6423358,10.9379562 10.6423358,10.100365 C10.6423358,9.3120438 11.2828467,8.67153285 12.120438,8.67153285 Z"></path>
                <path class="chat-dot" d="M16.7518248,8.67153285 C17.5894161,8.67153285 18.229927,9.3120438 18.229927,10.100365 C18.229927,10.9379562 17.5894161,11.5784672 16.7518248,11.5784672 C15.9635036,11.5784672 15.3229927,10.9379562 15.3229927,10.100365 C15.3229927,9.3120438 15.9635036,8.67153285 16.7518248,8.67153285 Z"></path>
                <path class="chat-dot" d="M21.4324818,8.67153285 C22.2208029,8.67153285 22.8613139,9.3120438 22.8613139,10.100365 C22.8613139,10.9379562 22.2208029,11.5784672 21.4324818,11.5784672 C20.5948905,11.5784672 19.9543796,10.9379562 19.9543796,10.100365 C19.9543796,9.3120438 20.5948905,8.67153285 21.4324818,8.67153285 Z"></path>
            </g>
        </g>

    </g>
</svg>