<?xml version="1.0" encoding="UTF-8"?>
<svg width="26px" height="18px" viewBox="0 0 26 18" version="1.1" xmlns="http://www.w3.org/2000/svg" xmlns:xlink="http://www.w3.org/1999/xlink">
    <!-- Generator: Sketch 52.6 (67491) - http://www.bohemiancoding.com/sketch -->
    <title>Page 1</title>
    <desc>Created with Sketch.</desc>
    <g id="Mobile" stroke="none" stroke-width="1" fill="none" fill-rule="evenodd">
        <g id="Menu" transform="translate(-24.000000, -192.000000)" stroke="#3F5A5E">
            <g id="Group-2" transform="translate(25.000000, 99.000000)">
                <g id="so-quero-sonhar" transform="translate(0.000000, 90.000000)">
                    <path d="M18.6459114,9.51885714 C18.5338328,9.51885714 18.4240891,9.52914286 18.313178,9.536 C18.2536362,6.46971429 15.7003454,4 12.5528044,4 C9.9633215,4 7.77311865,5.672 7.04460768,7.97257143 C6.76090869,7.93371429 6.47253977,7.90628571 6.17716593,7.90628571 C2.76577322,7.90628571 0,10.6137143 0,13.9531429 C0,17.2925714 2.76577322,20 6.17716593,20 L18.6459114,20 C21.6031522,20 24,17.6537143 24,14.76 C24,11.8651429 21.6031522,9.51885714 18.6459114,9.51885714 Z" id="Page-1"></path>
                </g>
            </g>
        </g>
    </g>
</svg>