<?xml version="1.0" encoding="UTF-8"?>
<svg width="30px" height="26px" viewBox="0 0 30 26" version="1.1" xmlns="http://www.w3.org/2000/svg" xmlns:xlink="http://www.w3.org/1999/xlink">
    <title>Combined Shape</title>
    <g id="alteracoes_09_11_2020_selos" stroke="none" stroke-width="1" fill="none" fill-rule="evenodd">
        <g id="7" transform="translate(-1127.000000, -485.000000)" fill="#FE6C00" fill-rule="nonzero">
            <g id="Group-25" transform="translate(1095.000000, 465.000000)">
                <path d="M45.39,20.69 C46.4157972,20.0403628 47.7242028,20.0403628 48.75,20.69 L48.75,20.69 L58,26.64 L60.77,28.42 L60.77,28.41 C61.2014317,28.7207974 61.3142002,29.3148703 61.0266675,29.7621434 C60.7391348,30.2094165 60.1518613,30.3534624 59.69,30.09 L59.69,30.09 L58,29 L58,42.27 C57.9944882,44.2211816 56.4111894,45.8 54.46,45.8 L54.46,45.8 L39.53,45.8 C37.5804348,45.8 36,44.2195652 36,42.27 L36,42.27 L36,29 L34.31,30.11 C34.0859012,30.2519243 33.8145957,30.2989964 33.5557855,30.2408579 C33.2969754,30.1827194 33.0718682,30.0241343 32.93,29.8 L32.93,29.8 L32.8669902,29.6842931 C32.7753075,29.4858131 32.7506934,29.2614606 32.7991421,29.0457855 C32.8572806,28.7869754 33.0158657,28.5618682 33.24,28.42 L33.24,28.42 L36.46,26.37 Z M47.67,22.37 C47.3006459,22.1358636 46.8293541,22.1358636 46.46,22.37 L46.46,22.37 L38,27.76 L38,42.27 C38.0054547,43.1127259 38.6872741,43.7945453 39.53,43.8 L39.53,43.8 L54.46,43.8 C55.3066285,43.8 55.9945024,43.1166107 56,42.27 L56,42.27 L56,27.73 Z M48,29 C48.5522847,29 49,29.4477153 49,30 C49,30.5522847 48.5522847,31 48,31 L48,31 L46,31 C45.4477153,31 45,30.5522847 45,30 C45,29.4477153 45.4477153,29 46,29 L46,29 Z" id="Combined-Shape"></path>
            </g>
        </g>
    </g>
</svg>