<svg width="15" height="15" viewBox="0 0 15 15" fill="none" xmlns="http://www.w3.org/2000/svg">
<path d="M8.59778 1.97554C9.08216 1.45075 9.32435 1.18836 9.58169 1.0353C10.2026 0.665994 10.9673 0.654508 11.5986 1.00501C11.8603 1.15027 12.1099 1.40528 12.6091 1.91529C13.1084 2.42531 13.3581 2.68032 13.5002 2.9476C13.8433 3.59253 13.8321 4.37361 13.4706 5.00795C13.3207 5.27085 13.0639 5.51826 12.5502 6.01305L6.43777 11.9003C5.46425 12.838 4.97748 13.3068 4.36912 13.5444C3.76076 13.782 3.09196 13.7646 1.75436 13.7296L1.57238 13.7248C1.16517 13.7142 0.961564 13.7089 0.843212 13.5745C0.724854 13.4402 0.741013 13.2328 0.773331 12.818L0.790881 12.5928C0.881835 11.4253 0.927309 10.8416 1.15529 10.3168C1.38326 9.79209 1.77651 9.36607 2.56301 8.51392L8.59778 1.97554Z" stroke="black" stroke-opacity="0.5" stroke-width="1.5" stroke-linejoin="round"/>
<path d="M7.89978 2.05005L12.4498 6.60005" stroke="black" stroke-opacity="0.5" stroke-width="1.5" stroke-linejoin="round"/>
<path d="M8.5498 13.75H13.7498" stroke="black" stroke-opacity="0.5" stroke-width="1.5" stroke-linejoin="round"/>
</svg>
