<?xml version="1.0" encoding="UTF-8"?>
<svg width="23px" height="15px" viewBox="0 0 23 15" version="1.1" xmlns="http://www.w3.org/2000/svg" xmlns:xlink="http://www.w3.org/1999/xlink">
    <!-- Generator: Sketch 61.2 (89653) - https://sketch.com -->
    <title>Group 2</title>
    <desc>Created with Sketch.</desc>
    <g id="Desktop" stroke="none" stroke-width="1" fill="none" fill-rule="evenodd">
        <g id="Meu-Perfil-04-" transform="translate(-842.000000, -271.000000)" fill="#7D7D7D" fill-rule="nonzero">
            <g id="atualizar-senha" transform="translate(601.000000, 192.000000)">
                <g id="e-mail" transform="translate(46.000000, 66.000000)">
                    <g id="Group-2" transform="translate(195.000000, 13.000000)">
                        <path d="M11.5001548,12 C9.01878419,12 7,9.98121581 7,7.50015481 C7,5.01909382 9.01878419,3 11.5001548,3 C13.9815254,3 16,5.01878419 16,7.50015481 C16,9.98152544 13.9815254,12 11.5001548,12 Z M11.5001548,3.92888843 C9.53091134,3.92888843 7.92888843,5.53091134 7.92888843,7.50015481 C7.92888843,9.46908866 9.53091134,11.0711116 11.5001548,11.0711116 C13.4690887,11.0711116 15.0711116,9.46908866 15.0711116,7.50015481 C15.0711116,5.53091134 13.4690887,3.92888843 11.5001548,3.92888843 Z" id="Shape"></path>
                        <path d="M11.5,15 C5.30572469,15 0,8.92401015 0,7.49984009 C0,6.07567003 5.30572469,0 11.5,0 C17.8256874,0 23,5.66245922 23,7.49984009 C23,9.33722095 17.8256874,15 11.5,15 Z M11.5,0.959467815 C5.67821892,0.959467815 1.05321545,6.69420695 0.958573136,7.50975459 C1.05321545,8.30579305 5.67853866,14.0405322 11.5,14.0405322 C17.5433592,14.0405322 22.0407874,8.55045735 22.0407874,7.49984009 C22.0407874,6.44922283 17.5433592,0.959467815 11.5,0.959467815 Z" id="Shape"></path>
                    </g>
                </g>
            </g>
        </g>
    </g>
</svg>