<?xml version="1.0" encoding="UTF-8"?>
<svg width="24px" height="24px" viewBox="0 0 24 24" version="1.1" xmlns="http://www.w3.org/2000/svg" xmlns:xlink="http://www.w3.org/1999/xlink">
    <!-- Generator: Sketch 57.1 (83088) - https://sketch.com -->
    <title>Page 1</title>
    <desc>Created with Sketch.</desc>
    <defs>
        <polygon id="path-1" points="0 0 23.1578947 0 23.1578947 23.3267882 0 23.3267882"></polygon>
    </defs>
    <g id="Mobile" stroke="none" stroke-width="1" fill="none" fill-rule="evenodd">
        <g id="Interna-de-Busca---Prontos-pra-morar" transform="translate(-342.000000, -449.000000)">
            <g id="Group-3" transform="translate(354.000000, 468.500000) rotate(-270.000000) translate(-354.000000, -468.500000) translate(328.000000, 451.000000)">
                <g id="Group-2" transform="translate(7.000000, 6.000000)">
                    <g id="Page-1">
                        <mask id="mask-2" fill="white">
                            <use xlink:href="#path-1"></use>
                        </mask>
                        <g id="Clip-2"></g>
                        <path d="M13.8950611,0 L9.26329685,0 C8.83647977,0 8.49141334,0.34803568 8.49141334,0.777015316 L8.49141334,5.44260623 C8.49141334,5.87158586 8.83671136,6.21962154 9.26329685,6.21962154 L13.8950611,6.21962154 C14.3207202,6.21962154 14.6676393,5.87135259 14.6676393,5.44260623 L14.6676393,0.777015316 C14.6676393,0.34803568 14.3207202,0 13.8950611,0 M22.3871692,17.1060003 L17.7544786,17.1060003 C17.3288195,17.1060003 16.9819003,17.4535695 16.9819003,17.8825491 L16.9819003,22.5486066 C16.9819003,22.978286 17.3288195,23.3267882 17.7544786,23.3267882 L22.3871692,23.3267882 C22.8128283,23.3267882 23.1578947,22.978286 23.1578947,22.5486066 L23.1578947,17.8825491 C23.1578947,17.4535695 22.8128283,17.1060003 22.3871692,17.1060003 M13.8950611,8.5520671 L9.26329685,8.5520671 C8.83647977,8.5520671 8.49141334,8.89986951 8.49141334,9.32978222 L8.49141334,13.9951399 C8.49141334,14.4243528 8.83671136,14.7721552 9.26329685,14.7721552 L13.8950611,14.7721552 C14.3207202,14.7721552 14.6676393,14.4243528 14.6676393,13.9951399 L14.6676393,9.32978222 C14.6676393,8.89986951 14.3207202,8.5520671 13.8950611,8.5520671 M22.3871692,8.5520671 L17.7544786,8.5520671 C17.3288195,8.5520671 16.9819003,8.89986951 16.9819003,9.32978222 L16.9819003,13.9951399 C16.9819003,14.4243528 17.3288195,14.7721552 17.7544786,14.7721552 L22.3871692,14.7721552 C22.8128283,14.7721552 23.1578947,14.4243528 23.1578947,13.9951399 L23.1578947,9.32978222 C23.1578947,8.89986951 22.8128283,8.5520671 22.3871692,8.5520671 M22.3871692,0 L17.7544786,0 C17.3288195,0 16.9819003,0.34803568 16.9819003,0.777015316 L16.9819003,5.44260623 C16.9819003,5.87158586 17.3288195,6.21962154 17.7544786,6.21962154 L22.3871692,6.21962154 C22.8128283,6.21962154 23.1578947,5.87135259 23.1578947,5.44260623 L23.1578947,0.777015316 C23.1578947,0.34803568 22.8128283,0 22.3871692,0 M5.40341614,17.1060003 L0.772578272,17.1060003 C0.345066434,17.1060003 0,17.4535695 0,17.8825491 L0,22.5486066 C0,22.978286 0.345066434,23.3267882 0.772578272,23.3267882 L5.40341614,23.3267882 C5.83000162,23.3267882 6.17599441,22.978286 6.17599441,22.5486066 L6.17599441,17.8825491 C6.17599441,17.4535695 5.83000162,17.1060003 5.40341614,17.1060003 M5.40341614,0 L0.772578272,0 C0.345066434,0 0,0.34803568 0,0.777015316 L0,5.44260623 C0,5.87135259 0.345066434,6.21962154 0.772578272,6.21962154 L5.40341614,6.21962154 C5.83000162,6.21962154 6.17599441,5.87135259 6.17599441,5.44260623 L6.17599441,0.777015316 C6.17599441,0.34803568 5.83000162,0 5.40341614,0 M5.40341614,8.5520671 L0.772578272,8.5520671 C0.345066434,8.5520671 0,8.89986951 0,9.32978222 L0,13.9951399 C0,14.4243528 0.345066434,14.7721552 0.772578272,14.7721552 L5.40341614,14.7721552 C5.83000162,14.7721552 6.17599441,14.4243528 6.17599441,13.9951399 L6.17599441,9.32978222 C6.17599441,8.89986951 5.83000162,8.5520671 5.40341614,8.5520671 M13.8950611,17.1060003 L9.26329685,17.1060003 C8.83647977,17.1060003 8.49141334,17.4535695 8.49141334,17.8825491 L8.49141334,22.5486066 C8.49141334,22.978286 8.83671136,23.3267882 9.26329685,23.3267882 L13.8950611,23.3267882 C14.3207202,23.3267882 14.6676393,22.978286 14.6676393,22.5486066 L14.6676393,17.8825491 C14.6676393,17.4535695 14.3207202,17.1060003 13.8950611,17.1060003" id="Fill-1" fill="#CFD8DC" mask="url(#mask-2)"></path>
                    </g>
                </g>
            </g>
        </g>
    </g>
</svg>