<?xml version="1.0" encoding="UTF-8"?>
<svg width="31px" height="31px" viewBox="0 0 16 16" version="1.1" xmlns="http://www.w3.org/2000/svg" xmlns:xlink="http://www.w3.org/1999/xlink">
    <!-- Generator: Sketch 52.6 (67491) - http://www.bohemiancoding.com/sketch -->
    <title>Shape</title>
    <desc>Created with Sketch.</desc>
    <g id="Mobile" stroke="none" stroke-width="1" fill="none" fill-rule="evenodd">
        <g id="Menu" transform="translate(-124.000000, -730.000000)" fill="#37474F">
            <g id="Group-8" transform="translate(89.000000, 722.000000)">
                <g id="social-icons">
                    <g id="instagram" transform="translate(28.000000, 1.000000)">
                        <path d="M14.9999851,8.85137871 C17.0025812,8.85137871 17.2397691,8.85900016 18.0306138,8.89508297 C18.7618564,8.9284566 19.1589757,9.050638 19.4232853,9.1533192 C19.7733362,9.28937403 20.0232067,9.45192531 20.2856407,9.71435929 C20.5480747,9.97679327 20.710626,10.2266638 20.846651,10.5767147 C20.949362,10.8410243 21.0715434,11.2381436 21.104917,11.9693564 C21.1409998,12.7602309 21.1486213,12.9974188 21.1486213,15.0000149 C21.1486213,17.0026109 21.1409998,17.2397989 21.104917,18.0306436 C21.0715434,18.7618862 20.949362,19.1590055 20.846651,19.4233151 C20.710626,19.773366 20.5480747,20.0232365 20.2856407,20.2856705 C20.0232067,20.5481045 19.7733362,20.7106557 19.4232853,20.8466808 C19.1589757,20.9493918 18.7618564,21.0715732 18.0306138,21.1049468 C17.2398882,21.1410296 17.0027003,21.1486511 14.9999851,21.1486511 C12.99727,21.1486511 12.760082,21.1410296 11.9693564,21.1049468 C11.2381138,21.0715732 10.8409945,20.9493918 10.5767147,20.8466808 C10.226634,20.7106557 9.9767635,20.5481045 9.71432952,20.2856705 C9.45189554,20.0232365 9.28934426,19.773366 9.1533192,19.4233151 C9.05060823,19.1590055 8.92842683,18.7618862 8.8950532,18.0306734 C8.85897039,17.2397989 8.85134894,17.0026109 8.85134894,15.0000149 C8.85134894,12.9974188 8.85897039,12.7602309 8.8950532,11.9693862 C8.92842683,11.2381436 9.05060823,10.8410243 9.1533192,10.5767147 C9.28934426,10.2266638 9.45189554,9.97679327 9.71432952,9.71435929 C9.9767635,9.45192531 10.226634,9.28937403 10.5767147,9.1533192 C10.8409945,9.050638 11.2381138,8.9284566 11.9693266,8.89508297 C12.7602011,8.85900016 12.9973891,8.85137871 14.9999851,8.85137871 M14.9999851,7.5 C17.0368777,7.5 17.2922857,7.50863368 18.0922106,7.54513329 C18.890528,7.58157335 19.4357,7.70833954 19.912785,7.89375517 C20.4059763,8.08542278 20.8242332,8.34187273 21.2411803,8.75881975 C21.6581273,9.17576676 21.9145772,9.59402371 22.1062448,10.087215 C22.2916605,10.5643 22.4184266,11.109472 22.4548667,11.9077894 C22.4913663,12.7077143 22.5,12.9631223 22.5,15.0000149 C22.5,17.0369075 22.4913663,17.2923154 22.4548667,18.0922404 C22.4184266,18.8905577 22.2916605,19.4357297 22.1062448,19.9128148 C21.9145772,20.4060061 21.6581273,20.824263 21.2411803,21.24121 C20.8242332,21.658157 20.4059763,21.914607 19.912785,22.1062746 C19.4357,22.2916902 18.890528,22.4184564 18.0922106,22.4548965 C17.2922857,22.4913961 17.0368777,22.5 14.9999851,22.5 C12.9630925,22.5 12.7077143,22.4913961 11.9077596,22.4548965 C11.1094423,22.4184564 10.5642703,22.2916902 10.0871852,22.1062746 C9.59399394,21.914607 9.17573699,21.658157 8.75878998,21.24121 C8.34184296,20.824263 8.08539301,20.4059763 7.8937254,19.9128148 C7.70830976,19.4357297 7.58154358,18.8905577 7.54510351,18.0922404 C7.5086039,17.2923154 7.5,17.0369075 7.5,15.0000149 C7.5,12.9631223 7.5086039,12.7077143 7.54510351,11.9077894 C7.58154358,11.109472 7.70830976,10.5643 7.8937254,10.087215 C8.08539301,9.59402371 8.34184296,9.17576676 8.75878998,8.75881975 C9.17573699,8.34187273 9.59399394,8.08542278 10.0871852,7.89375517 C10.5642703,7.70833954 11.1094423,7.58157335 11.9077596,7.54513329 C12.7077143,7.50863368 12.9630925,7.5 14.9999851,7.5 Z M15.014881,11.1607143 C12.8862929,11.1607143 11.1607143,12.8862929 11.1607143,15.014881 C11.1607143,17.143469 12.8862929,18.8690476 15.014881,18.8690476 C17.143469,18.8690476 18.8690476,17.143469 18.8690476,15.014881 C18.8690476,12.8862929 17.143469,11.1607143 15.014881,11.1607143 Z M15.014881,17.5167152 C13.6331727,17.5167152 12.5130467,16.3965892 12.5130467,15.014881 C12.5130467,13.6331727 13.6331727,12.5130467 15.014881,12.5130467 C16.3965892,12.5130467 17.5167152,13.6331727 17.5167152,15.014881 C17.5167152,16.3965892 16.3965892,17.5167152 15.014881,17.5167152 Z M19.8809524,10.9821281 C19.8809524,10.4890121 19.481226,10.0892857 18.98811,10.0892857 C18.494994,10.0892857 18.0952381,10.4890121 18.0952381,10.9821281 C18.0952381,11.4752441 18.494994,11.875 18.98811,11.875 C19.481226,11.875 19.8809524,11.4752441 19.8809524,10.9821281 Z" id="Shape"></path>
                    </g>
                </g>
            </g>
        </g>
    </g>
</svg>