<?xml version="1.0" encoding="UTF-8"?>
<svg width="28px" height="19px" viewBox="0 0 28 19" version="1.1" xmlns="http://www.w3.org/2000/svg" xmlns:xlink="http://www.w3.org/1999/xlink">
    <!-- Generator: Sketch 61.2 (89653) - https://sketch.com -->
    <title>Shape</title>
    <desc>Created with Sketch.</desc>
    <g id="Desktop" stroke="none" stroke-width="1" fill="none" fill-rule="evenodd">
        <g id="Meu-Perfil-09---Remover-Favorito" transform="translate(-1259.000000, -318.000000)" fill="#EE6900" fill-rule="nonzero" stroke="#FF5E00" stroke-width="0.5">
            <path d="M1260.60465,319.104348 C1260.27073,319.104348 1260,319.362367 1260,319.680619 L1260,335.239956 C1260,335.558209 1260.27073,335.816227 1260.60465,335.816227 L1285.39535,335.816227 C1285.72927,335.816227 1286,335.558209 1286,335.239956 L1286,319.680619 C1286,319.362367 1285.72927,319.104348 1285.39535,319.104348 L1260.60465,319.104348 L1260.60465,319.104348 Z M1262.32413,320.256891 L1283.67587,320.256891 L1273,328.450732 L1262.32413,320.256891 Z M1261.2093,320.878169 L1272.62209,329.630273 C1272.843,329.798811 1273.157,329.798811 1273.37791,329.630273 L1284.7907,320.878169 L1284.7907,334.663685 L1261.2093,334.663685 L1261.2093,320.878169 Z" id="Shape"></path>
        </g>
    </g>
</svg>