<?xml version="1.0" encoding="UTF-8"?>
<svg width="33px" height="22px" viewBox="0 0 33 22" version="1.1" xmlns="http://www.w3.org/2000/svg" xmlns:xlink="http://www.w3.org/1999/xlink">
    <!-- Generator: Sketch 61.2 (89653) - https://sketch.com -->
    <title>Shape</title>
    <desc>Created with Sketch.</desc>
    <g id="Desktop" stroke="none" stroke-width="1" fill="none" fill-rule="evenodd">
        <g id="Home-Barra-aberta" transform="translate(-544.000000, -647.000000)" fill="#FFFFFF" fill-rule="nonzero">
            <g id="Group-13" transform="translate(200.000000, 616.000000)">
                <g id="Group-8" transform="translate(344.000000, 19.000000)">
                    <path d="M0,12.75862 L0,33.24138 C0,33.6603369 0.343612979,34 0.76744186,34 L32.2325581,34 C32.656387,34 33,33.6603369 33,33.24138 L33,12.75862 C33,12.3396631 32.656387,12 32.2325581,12 L0.76744186,12 C0.343612979,12 0,12.3396631 0,12.75862 Z M3,14 L30,14 L16.5,25 L3,14 Z M2,14 L16.0352564,25.4277823 C16.3069239,25.6478453 16.6930761,25.6478453 16.9647436,25.4277823 L31,14 L31,32 L2,32 L2,14 Z" id="Shape"></path>
                </g>
            </g>
        </g>
    </g>
</svg>