<svg width="32" height="30" viewBox="0 0 32 30" fill="none" xmlns="http://www.w3.org/2000/svg">
<rect x="0.5" y="0.5" width="31" height="29" rx="3.5" stroke="#3F5A5E"/>
<path d="M23.9 16.5H8.1C6.6 16.5 6 17.14 6 18.73V22.77C6 24.36 6.6 25 8.1 25H23.9C25.4 25 26 24.36 26 22.77V18.73C26 17.14 25.4 16.5 23.9 16.5Z" stroke="#3F5A5E" stroke-width="1.5" stroke-linecap="round" stroke-linejoin="round"/>
<path d="M23.9 5H8.1C6.6 5 6 5.64 6 7.23V11.27C6 12.86 6.6 13.5 8.1 13.5H23.9C25.4 13.5 26 12.86 26 11.27V7.23C26 5.64 25.4 5 23.9 5Z" stroke="#3F5A5E" stroke-width="1.5" stroke-linecap="round" stroke-linejoin="round"/>
</svg>
