<?xml version="1.0" encoding="UTF-8"?>
<svg width="21px" height="29px" viewBox="0 0 21 29" version="1.1" xmlns="http://www.w3.org/2000/svg" xmlns:xlink="http://www.w3.org/1999/xlink">
    <!-- Generator: Sketch 61.2 (89653) - https://sketch.com -->
    <title>WhatsApp Copy</title>
    <desc>Created with Sketch.</desc>
    <g id="Desktop" stroke="none" stroke-width="1" fill="none" fill-rule="evenodd">
        <g id="Home-Barra-aberta" transform="translate(-874.000000, -643.000000)" fill-rule="nonzero" stroke="#FFFFFF" stroke-width="2">
            <g id="Group-13" transform="translate(200.000000, 616.000000)">
                <g id="Group-9" transform="translate(670.000000, 19.000000)">
                    <path d="M25.9181984,28.2754176 C25.775554,28.0338078 25.3988265,27.887869 24.833474,27.597613 C24.2670765,27.3073569 21.4842047,25.90148 20.9669228,25.7085165 C20.4480735,25.5150125 20.0697785,25.4177199 19.693051,25.9987725 C19.3163235,26.5803656 18.2315991,27.887869 17.9008522,28.2754176 C17.5706279,28.6640471 17.240926,28.7126934 16.6745285,28.4218968 C16.109176,28.1316408 14.2861494,27.5176169 12.1245383,25.5393356 C10.4425885,23.9999517 9.30665848,22.0995044 8.97643411,21.5173708 C8.64673225,20.9363182 8.94194865,20.6222796 9.2246249,20.3331046 C9.47960827,20.0725768 9.79102239,19.6547595 10.0736986,19.3158572 C10.3574199,18.9764144 10.4514711,18.7348046 10.6390511,18.3467156 C10.8287211,17.959167 10.7341474,17.6202647 10.5920255,17.3289277 C10.4509486,17.0386717 9.31815363,14.1804335 8.84685239,13.0172474 C8.37555116,11.8551422 7.90477242,12.0486463 7.57402555,12.0486463 C7.24432368,12.0486463 6.86655118,12 6.48930119,12 C6.11205119,12 5.49862807,12.1453983 4.97977871,12.7264508 C4.46145185,13.3080439 3,14.7133804 3,17.571078 C3,20.4293161 5.02680433,23.1908022 5.31052558,23.5778102 C5.59320183,23.9648183 9.22410239,30.0207373 14.9769035,32.3465691 C20.7302272,34.6713199 20.7302272,33.8956823 21.7679259,33.7983898 C22.8045797,33.7016378 25.1151052,32.3935938 25.5884965,31.0379847 C26.0587527,29.6802135 26.0587527,28.5175678 25.9181984,28.2754176 Z" id="WhatsApp-Copy" transform="translate(14.500000, 23.000000) rotate(19.000000) translate(-14.500000, -23.000000) "></path>
                </g>
            </g>
        </g>
    </g>
</svg>