<svg width="34" height="49" viewBox="0 0 34 49" fill="none" xmlns="http://www.w3.org/2000/svg">
<path fill-rule="evenodd" clip-rule="evenodd" d="M17.0003 42.8487C9.62866 32.7908 3.76758 22.8406 3.76758 15.7392C3.76758 8.63782 9.70535 3.15039 17.0003 3.15039C24.2953 3.15039 30.2331 7.59107 30.2331 15.7392C30.2331 23.8873 17.0003 42.8487 17.0003 42.8487Z" fill="white"/>
<path fill-rule="evenodd" clip-rule="evenodd" d="M17.0003 42.8487C9.62866 32.7908 3.76758 22.8406 3.76758 15.7392C3.76758 8.63782 9.70535 3.15039 17.0003 3.15039C24.2953 3.15039 30.2331 7.59107 30.2331 15.7392C30.2331 23.8873 17.0003 42.8487 17.0003 42.8487Z" stroke="white" stroke-width="6"/>
<path fill-rule="evenodd" clip-rule="evenodd" d="M17.0003 42.8487C9.62866 32.7908 3.76758 22.8406 3.76758 15.7392C3.76758 8.63782 9.70535 3.15039 17.0003 3.15039C24.2953 3.15039 30.2331 7.59107 30.2331 15.7392C30.2331 23.8873 17.0003 42.8487 17.0003 42.8487Z" stroke="#37474F" stroke-width="6"/>
<path fill-rule="evenodd" clip-rule="evenodd" d="M17 22C20.3137 22 23 19.3137 23 16C23 12.6863 20.3137 10 17 10C13.6863 10 11 12.6863 11 16C11 19.3137 13.6863 22 17 22Z" stroke="#37474F"/>
</svg>
