<?xml version="1.0" encoding="UTF-8"?>
<svg width="105px" height="74px" viewBox="0 0 105 74" version="1.1" xmlns="http://www.w3.org/2000/svg" xmlns:xlink="http://www.w3.org/1999/xlink">
    <title>button-player-yt</title>
    <defs>
        <polygon id="path-1" points="0 0 105 0 105 73.9786291 0 73.9786291"></polygon>
    </defs>
    <g id="Page-1" stroke="none" stroke-width="1" fill="none" fill-rule="evenodd">
        <g id="[Desk]-AXPE----Botão-Player-de-Vídeo" transform="translate(-769.000000, -307.000000)">
            <g id="Group" transform="translate(769.000000, 307.000000)">
                <g id="yt_icon_rgb" transform="translate(0.000000, 0.000000)">
                    <g id="Group-3">
                        <mask id="mask-2" fill="white">
                            <use xlink:href="#path-1"></use>
                        </mask>
                        <g id="Clip-2"></g>
                        <path d="M102.80499,11.5318575 C101.597079,6.98309083 98.0383938,3.40113107 93.5188701,2.18546095 C85.3278675,-0.0238717745 52.4820962,-0.0238717745 52.4820962,-0.0238717745 C52.4820962,-0.0238717745 19.6363249,-0.0238717745 11.4453223,2.18546095 C6.92639536,3.40113107 3.36711379,6.98309083 2.159202,11.5318575 C-0.0358076617,19.7759748 -0.0358076617,36.9773787 -0.0358076617,36.9773787 C-0.0358076617,36.9773787 -0.0358076617,54.1781857 2.159202,62.4234966 C3.36711379,66.9716665 6.92639536,70.5536262 11.4453223,71.7698931 C19.6363249,73.9786291 52.4820962,73.9786291 52.4820962,73.9786291 C52.4820962,73.9786291 85.3278675,73.9786291 93.5188701,71.7698931 C98.0383938,70.5536262 101.597079,66.9716665 102.80499,62.4234966 C105,54.1781857 105,36.9773787 105,36.9773787 C105,36.9773787 105,19.7759748 102.80499,11.5318575" id="Fill-1" fill="#FF0000" mask="url(#mask-2)"></path>
                    </g>
                    <polyline id="Fill-4" fill="#FFFFFE" points="41.7397977 52.5948903 69.1923383 36.9779754 41.7397977 21.359867 41.7397977 52.5948903"></polyline>
                </g>
            </g>
        </g>
    </g>
</svg>