<?xml version="1.0" encoding="UTF-8"?>
<svg width="16px" height="19px" viewBox="0 0 16 19" version="1.1" xmlns="http://www.w3.org/2000/svg" xmlns:xlink="http://www.w3.org/1999/xlink">
    <!-- Generator: Sketch 52.6 (67491) - http://www.bohemiancoding.com/sketch -->
    <title>Path</title>
    <desc>Created with Sketch.</desc>
    <g id="Desktop" stroke="none" stroke-width="1" fill="none" fill-rule="evenodd">
        <g id="Resultado-de-Busca-01---São-Paulo-/-Alugar" transform="translate(-1067.000000, -17.000000)" stroke="#37474F">
            <g id="Group-9" transform="translate(200.000000, 0.000000)">
                <g id="Group-6" transform="translate(49.000000, 11.000000)">
                    <path d="M827.89223,19.1804266 L824.245655,16.7760224 C824.185646,16.7363722 824.120393,16.7131289 824.053781,16.7027769 C824.179625,16.3941694 824.250316,16.0574356 824.250316,15.7039042 C824.250316,15.1384493 824.070871,14.615379 823.768689,14.1856724 L827.370986,11.6908344 C827.910486,12.5547402 828.864029,13.1315237 829.951574,13.1315237 C831.632607,13.1315237 833,11.7566577 833,10.0659572 C833,8.37525671 831.632607,7 829.951574,7 C828.270541,7 826.902565,8.37525671 826.902565,10.0659572 C826.902565,10.3069836 826.933249,10.5405877 826.986073,10.7657931 L823.050715,13.4913054 C822.639584,13.2227387 822.150189,13.0647239 821.62409,13.0647239 C820.177073,13.0647239 819,14.2485658 819,15.7039042 C819,17.1598286 820.177073,18.3448424 821.62409,18.3448424 C822.399354,18.3448424 823.094994,18.0030303 823.576038,17.4643343 C823.610995,17.5155085 823.655662,17.560823 823.710622,17.5971528 L827.283982,19.9533126 C827.041615,20.3927854 826.902371,20.8974954 826.902371,21.4350194 C826.902371,23.1247433 828.270152,24.5 829.951185,24.5 C831.632219,24.5 832.999612,23.1247433 832.999612,21.4350194 C832.999612,19.7447096 831.632219,18.3690622 829.951185,18.3690622 C829.156889,18.3690622 828.43542,18.678451 827.89223,19.1804266 Z" id="Path"></path>
                </g>
            </g>
        </g>
    </g>
</svg>