<?xml version="1.0" encoding="UTF-8"?>
<svg width="19px" height="18px" viewBox="0 0 19 18" version="1.1" xmlns="http://www.w3.org/2000/svg" xmlns:xlink="http://www.w3.org/1999/xlink">
    <title>69465</title>
    <g id="alteracoes_09_11_2020_selos" stroke="none" stroke-width="1" fill="none" fill-rule="evenodd">
        <g id="6" transform="translate(-369.000000, -827.000000)" fill="#FFFFFF" fill-rule="nonzero">
            <g id="Group-4-Copy" transform="translate(356.000000, 819.000000)">
                <g id="69465" transform="translate(13.000000, 8.000000)">
                    <path d="M16.5593511,8.52631579 C14.8606697,8.52631579 13.4785416,9.80541641 13.4785416,11.3774735 L13.4785416,11.8981662 C12.7965274,11.6725683 11.4771707,11.3774735 9.24242851,11.3774735 C7.00768632,11.3774735 5.68871475,11.6725683 5.00631544,11.8981662 L5.00631544,11.3774735 C5.00631544,9.80541641 3.62418728,8.52631579 1.92550594,8.52631579 C0.863781965,8.52631579 0,9.32570913 0,10.3082893 C0,11.0292758 0.465202235,11.6761322 1.18572656,11.9537637 C1.40138322,12.0371601 1.54040475,12.2306824 1.54040475,12.4466576 L1.92550594,13.8722365 C1.92550594,15.1516935 2.97259607,16.2084038 4.31544391,16.3498925 C3.99927584,16.4895992 3.77899796,16.7861196 3.77899796,17.1311097 C3.77899796,17.6115298 4.19952845,18 4.71787465,18 C5.23622085,18 5.65675135,17.610817 5.65675135,17.1311097 C5.65675135,16.798237 5.45187752,16.5131213 5.1545794,16.3662866 L13.3314329,16.3662866 C13.0341348,16.5120521 12.829261,16.7978806 12.829261,17.1311097 C12.829261,17.6115298 13.2497915,18 13.7681377,18 C14.2864839,18 14.7070144,17.610817 14.7070144,17.1311097 C14.7070144,16.7854068 14.4871216,16.4888864 14.1701833,16.3498925 C15.5118759,16.2084038 16.558966,15.1516935 16.558966,13.8722365 L16.9440672,12.4466576 C16.9440672,12.2306824 17.0830887,12.0378729 17.2987454,11.9537637 C18.0192697,11.6764886 18.484472,11.0292758 18.484472,10.3082893 C18.484857,9.32570913 17.6210751,8.52631579 16.5593511,8.52631579 Z" id="Shape"></path>
                    <path d="M6.19221496,10.4210526 C6.96151304,10.280821 7.96296836,10.1767544 9.24205119,10.1767544 C10.521134,10.1767544 11.5225893,10.280821 12.2918874,10.4210526 C12.5378705,9.29013499 13.258356,8.33535685 14.2335432,7.77188046 C14.4102907,7.66975336 14.5954051,7.58048038 14.7875776,7.50534256 L14.7875776,5.53545768 C14.7875776,2.47840892 12.3048261,0 9.24205119,0 C6.17964594,0 3.69689441,2.47840892 3.69689441,5.53545768 L3.69689441,7.50571159 C4.94899081,7.99541508 5.90164874,9.08553121 6.19221496,10.4210526 Z" id="Shape"></path>
                </g>
            </g>
        </g>
    </g>
</svg>