<svg width="33px" height="32px" viewBox="0 0 33 32" version="1.1" xmlns="http://www.w3.org/2000/svg" xmlns:xlink="http://www.w3.org/1999/xlink">
    <g id="Desk" stroke="none" stroke-width="1" fill="none" fill-rule="evenodd">
        <g id="5" transform="translate(-330.000000, -108.000000)" fill-rule="nonzero">
            <g id="Group-12" transform="translate(227.000000, 94.000000)">
                <g id="Group-9" transform="translate(89.000000, 0.000000)">
                    <g id="noun_beach_27488" transform="translate(14.000000, 14.000000)">
                        <path d="M22.8682927,12.9170732 C22.8682927,12.9170732 22.8682927,12.9170732 22.8682927,12.9170732 L22.8292683,12.9170732 C22.8682927,12.9560976 22.8682927,12.9170732 22.8682927,12.9170732 Z" id="Path" fill="#000000"></path>
                        <path d="M22.9073171,10.7707317 C24.195122,9.48292683 25.6780488,8.35121951 27.395122,7.49268293 C29.1121951,6.63414634 30.8682927,6.08780488 32.6634146,5.81463415 C28.097561,0.897560976 20.995122,-1.09268293 14.3609756,0.936585366 C14.3609756,0.936585366 14.3609756,0.936585366 14.3609756,0.936585366 C14.3609756,0.936585366 14.3219512,0.936585366 14.3219512,0.936585366 C14.0097561,1.05365854 13.697561,1.13170732 13.3853659,1.24878049 L13.1512195,0.585365854 L11.8243902,1.05365854 L12.0585366,1.71707317 C11.7463415,1.83414634 11.4341463,1.95121951 11.1219512,2.06829268 C11.1219512,2.06829268 11.0829268,2.06829268 11.0829268,2.10731707 C11.0829268,2.10731707 11.0829268,2.10731707 11.0829268,2.10731707 C4.68292683,4.8 0.546341463,10.8878049 0.195121951,17.6 C1.75609756,16.6634146 3.47317073,15.9219512 5.30731707,15.4926829 C7.1804878,15.0634146 9.01463415,14.9463415 10.8487805,15.1414634 C10.8487805,15.1414634 10.8487805,15.1414634 10.8487805,15.1414634 C10.8487805,15.1414634 10.8487805,15.1414634 10.8487805,15.1414634 C12.1756098,13.9317073 13.8146341,12.8780488 15.6097561,12.097561 L22.6341463,31.3365854 C22.7902439,31.7658537 23.2585366,31.9609756 23.6878049,31.804878 L23.6878049,31.804878 C24.1170732,31.6487805 24.3121951,31.1804878 24.1560976,30.7512195 L17.1317073,11.5121951 C19.0439024,10.9658537 20.995122,10.6926829 22.9073171,10.7707317 C22.9073171,10.7707317 22.9073171,10.7707317 22.9073171,10.7707317 Z M1.05365854,16.1560976 C1.05365854,16.1560976 1.87317073,7.76585366 9.83414634,3.55121951 C9.83414634,3.55121951 8.07804878,6.71219512 10.2634146,14.2439024 C10.2243902,14.2829268 5.03414634,13.9707317 1.05365854,16.1560976 Z M16.1560976,11.0439024 C14.3609756,11.7073171 12.6829268,12.604878 11.2,13.7756098 C9.44390244,7.88292683 10.0292683,4.09756098 11.4731707,2.84878049 C11.9804878,2.65365854 12.4487805,2.45853659 12.9560976,2.30243902 L13.0341463,2.26341463 C13.502439,2.06829268 14.0097561,1.87317073 14.5170732,1.71707317 C16.7414634,1.71707317 19.5902439,4.95609756 21.7365854,9.91219512 C19.7853659,10.0292683 17.9512195,10.3804878 16.1560976,11.0439024 Z M16.1170732,1.40487805 C24.897561,-0.585365854 30.9853659,5.22926829 30.9853659,5.22926829 C26.5365854,6.16585366 22.7902439,9.79512195 22.7902439,9.79512195 C19.5121951,2.65365854 16.1170732,1.40487805 16.1170732,1.40487805 Z" id="Shape" fill="#3F5A5E"></path>
                    </g>
                </g>
            </g>
        </g>
    </g>
</svg>