<svg width="46px" height="27px" viewBox="0 0 46 27" version="1.1" xmlns="http://www.w3.org/2000/svg" xmlns:xlink="http://www.w3.org/1999/xlink">
    <g id="Desk" stroke="none" stroke-width="1" fill="none" fill-rule="evenodd">
        <g id="5" transform="translate(-407.000000, -110.000000)">
            <g id="Group-12" transform="translate(227.000000, 94.000000)">
                <g id="Group-6" transform="translate(173.000000, 0.000000)">
                    <g id="Group-13" transform="translate(8.000000, 16.000000)">
                        <g id="Group-33" transform="translate(2.000000, 0.000000)" fill="#3F5A5E" fill-rule="nonzero">
                            <path d="M5.82572614,2.2406639 C7.81742739,2.2406639 9.41078838,3.8340249 9.41078838,5.82572614 C9.41078838,7.81742739 7.81742739,9.41078838 5.82572614,9.41078838 C3.8340249,9.41078838 2.2406639,7.81742739 2.2406639,5.82572614 C2.2406639,3.8340249 3.8340249,2.2406639 5.82572614,2.2406639 Z M5.82572614,2.93775934 C4.23236515,2.93775934 2.93775934,4.23236515 2.93775934,5.82572614 C2.93775934,7.41908714 4.23236515,8.71369295 5.82572614,8.71369295 C7.41908714,8.71369295 8.71369295,7.41908714 8.71369295,5.82572614 C8.71369295,4.23236515 7.41908714,2.93775934 5.82572614,2.93775934 Z" id="Combined-Shape"></path>
                            <path d="M5.82572614,10.0082988 C6.02489627,10.0082988 6.17427386,10.1576763 6.17427386,10.3568465 L6.17427386,11.3029046 C6.17427386,11.5020747 6.02489627,11.6514523 5.82572614,11.6514523 C5.62655602,11.6514523 5.47717842,11.5020747 5.47717842,11.3029046 L5.47717842,10.3568465 C5.47717842,10.1576763 5.62655602,10.0082988 5.82572614,10.0082988 Z" id="Path"></path>
                            <path d="M5.47717842,1.29460581 L5.47717842,0.348547718 C5.47717842,0.149377593 5.62655602,1.32227562e-13 5.82572614,1.32227562e-13 C6.02489627,1.32227562e-13 6.17427386,0.149377593 6.17427386,0.348547718 L6.17427386,1.29460581 C6.17427386,1.49377593 6.02489627,1.64315353 5.82572614,1.64315353 C5.62655602,1.64315353 5.47717842,1.49377593 5.47717842,1.29460581 Z" id="Path"></path>
                            <path d="M10.3568465,5.47717842 L11.3029046,5.47717842 C11.5020747,5.47717842 11.6514523,5.62655602 11.6514523,5.82572614 C11.6514523,6.02489627 11.5020747,6.17427386 11.3029046,6.17427386 L10.3568465,6.17427386 C10.1576763,6.17427386 10.0082988,6.02489627 10.0082988,5.82572614 C10.0082988,5.62655602 10.1576763,5.47717842 10.3568465,5.47717842 Z" id="Path"></path>
                            <path d="M-9.41469125e-14,5.82572614 C-9.41469125e-14,5.62655602 0.149377593,5.47717842 0.348547718,5.47717842 L1.29460581,5.47717842 C1.49377593,5.47717842 1.64315353,5.62655602 1.64315353,5.82572614 C1.64315353,6.02489627 1.49377593,6.17427386 1.29460581,6.17427386 L0.348547718,6.17427386 C0.149377593,6.17427386 -9.41469125e-14,6.02489627 -9.41469125e-14,5.82572614 Z" id="Path"></path>
                            <path d="M9.46058091,3.73443983 C9.36099585,3.58506224 9.41078838,3.33609959 9.60995851,3.23651452 L10.406639,2.78838174 C10.5560166,2.68879668 10.8049793,2.73858921 10.9045643,2.93775934 C11.0041494,3.08713693 10.9543568,3.33609959 10.7551867,3.43568465 L9.95850622,3.88381743 C9.90871369,3.93360996 9.85892116,3.93360996 9.7593361,3.93360996 C9.60995851,3.88381743 9.51037344,3.8340249 9.46058091,3.73443983 Z" id="Path"></path>
                            <path d="M2.19087137,7.91701245 C2.29045643,8.06639004 2.2406639,8.3153527 2.04149378,8.41493776 L1.24481328,8.86307054 C1.19502075,8.91286307 1.14522822,8.91286307 1.04564315,8.91286307 C0.946058091,8.91286307 0.796680498,8.86307054 0.746887967,8.71369295 C0.647302905,8.56431535 0.697095436,8.3153527 0.89626556,8.21576763 L1.69294606,7.76763485 C1.89211618,7.66804979 2.09128631,7.71784232 2.19087137,7.91701245 Z" id="Path"></path>
                            <path d="M7.71784232,1.69294606 L8.1659751,0.846473029 C8.26556017,0.697095436 8.46473029,0.597510373 8.66390041,0.697095436 C8.81327801,0.796680498 8.91286307,0.995850622 8.81327801,1.19502075 L8.36514523,2.04149378 C8.3153527,2.14107884 8.1659751,2.2406639 8.06639004,2.2406639 C8.01659751,2.2406639 7.96680498,2.2406639 7.86721992,2.19087137 C7.66804979,2.09128631 7.61825726,1.84232365 7.71784232,1.69294606 Z" id="Path"></path>
                            <path d="M3.78423237,9.46058091 C3.93360996,9.56016598 4.03319502,9.7593361 3.93360996,9.95850622 L3.48547718,10.8049793 C3.43568465,10.9045643 3.28630705,11.0041494 3.18672199,11.0041494 C3.13692946,11.0041494 3.08713693,11.0041494 2.98755187,10.9543568 C2.83817427,10.8547718 2.73858921,10.6556017 2.83817427,10.4564315 L3.28630705,9.60995851 C3.38589212,9.41078838 3.63485477,9.36099585 3.78423237,9.46058091 Z" id="Path"></path>
                            <path d="M2.8879668,1.19502075 C2.78838174,1.04564315 2.83817427,0.796680498 3.0373444,0.697095436 C3.18672199,0.597510373 3.43568465,0.647302905 3.53526971,0.846473029 L3.98340249,1.69294606 C4.08298755,1.84232365 4.03319502,2.09128631 3.8340249,2.19087137 C3.78423237,2.2406639 3.73443983,2.2406639 3.6846473,2.2406639 C3.53526971,2.2406639 3.43568465,2.19087137 3.38589212,2.04149378 L2.8879668,1.19502075 Z" id="Path"></path>
                            <path d="M8.3153527,9.60995851 L8.76348548,10.4564315 C8.86307054,10.6058091 8.81327801,10.8547718 8.61410788,10.9543568 C8.56431535,11.0041494 8.51452282,11.0041494 8.46473029,11.0041494 C8.3153527,11.0041494 8.21576763,10.9543568 8.1659751,10.8049793 L7.71784232,9.95850622 C7.61825726,9.7593361 7.66804979,9.56016598 7.86721992,9.46058091 C7.96680498,9.36099585 8.21576763,9.46058091 8.3153527,9.60995851 Z" id="Path"></path>
                            <path d="M0.746887967,2.8879668 C0.846473029,2.73858921 1.04564315,2.63900415 1.24481328,2.73858921 L2.04149378,3.18672199 C2.19087137,3.28630705 2.29045643,3.48547718 2.19087137,3.6846473 C2.14107884,3.78423237 1.99170124,3.88381743 1.89211618,3.88381743 C1.84232365,3.88381743 1.79253112,3.88381743 1.69294606,3.8340249 L0.89626556,3.38589212 C0.746887967,3.28630705 0.647302905,3.08713693 0.746887967,2.8879668 Z" id="Path"></path>
                            <path d="M9.46058091,7.86721992 C9.56016598,7.71784232 9.7593361,7.61825726 9.95850622,7.71784232 L10.7551867,8.1659751 C10.9045643,8.26556017 11.0041494,8.46473029 10.9045643,8.66390041 C10.8547718,8.76348548 10.7053942,8.86307054 10.6058091,8.86307054 C10.5560166,8.86307054 10.5062241,8.86307054 10.406639,8.81327801 L9.60995851,8.36514523 C9.41078838,8.26556017 9.36099585,8.06639004 9.46058091,7.86721992 Z" id="Path"></path>
                        </g>
                        <g id="Group-32" transform="translate(0.000000, 10.000000)" stroke="#3F5A5E" stroke-linejoin="round">
                            <path d="M25.7611216,0.284341444 C28.3210715,0.497490548 30.7043461,1.67555688 32.4282972,3.57996465 L43.5509805,15.8669286 L27.15,15.8658585 L27.1529691,15.8669286 L26.96,15.8668585 C26.9571366,15.8696589 26.9534892,15.8690553 26.9481876,15.8675608 L2.27373675e-13,15.8669286 C1.52146677,10.394934 7.19078732,7.19239853 12.6627818,8.7138653 C13.3240261,8.89772169 13.9652041,9.14731199 14.5767253,9.45890293 L17.429363,10.9132407 C16.6148398,10.4821951 15.7481127,10.0230332 14.8291815,9.53575495 C15.2932461,3.96227577 20.1876424,-0.179723136 25.7611216,0.284341444 Z" id="Combined-Shape"></path>
                        </g>
                    </g>
                </g>
            </g>
        </g>
    </g>
</svg>