<svg width="41px" height="41px" viewBox="0 0 41 41" version="1.1" xmlns="http://www.w3.org/2000/svg" xmlns:xlink="http://www.w3.org/1999/xlink">
    <g id="Desk" stroke="none" stroke-width="1" fill="none" fill-rule="evenodd">
        <g id="5" transform="translate(-495.000000, -103.000000)" fill-rule="nonzero" stroke="#3F5A5E">
            <g id="Group-12" transform="translate(227.000000, 94.000000)">
                <g id="Group-2" transform="translate(269.000000, 10.000000)">
                    <path d="M19.6721311,39.3442623 C8.82491803,39.3442623 -2.13162821e-13,30.5193443 -2.13162821e-13,19.6721311 C-2.13162821e-13,8.82491803 8.82491803,-2.16715534e-13 19.6721311,-2.16715534e-13 C30.5193443,-2.16715534e-13 39.3442623,8.82491803 39.3442623,19.6721311 C39.3442623,30.5193443 30.5193443,39.3442623 19.6721311,39.3442623 Z" id="Path"></path>
                    <path d="M21.8990164,33.7088525 C21.0078689,33.7088525 20.1691803,33.172459 19.8216393,32.3029508 L19.1029508,30.5062295 C19.0655738,30.4137705 19.0347541,30.317377 19.0098361,30.2190164 L17.7665574,25.2452459 C17.7501639,25.1796721 17.7265574,25.1167213 17.6963934,25.0563934 L17.0288525,23.7219672 C16.8340984,23.3318033 16.4032787,23.1363934 15.9790164,23.2386885 L15.3442623,23.397377 C14.6708197,23.5652459 13.9462295,23.4078689 13.4052459,22.9744262 L11.3298361,21.3147541 C10.7967213,20.8872131 10.4911475,20.2511475 10.4911475,19.5691803 L10.4911475,18.8668852 C10.4911475,18.3980328 10.6354098,17.9495082 10.907541,17.5685246 L13.4196721,14.0518033 C13.8386885,13.464918 14.5186885,13.1154098 15.2386885,13.1154098 L16.6111475,13.1154098 C17.0177049,13.1154098 17.4157377,13.2262295 17.7619672,13.4347541 L20.1403279,14.8616393 L20.1403279,14.8616393 C20.3377049,14.9809836 20.5711475,15.0216393 20.7967213,14.9757377 L22.2190164,14.6904918 C23.2504918,14.4839344 24.2983607,15.0360656 24.7121311,16.002623 L25.9731148,18.944918 C26.0491803,19.1219672 26.1816393,19.2740984 26.3462295,19.3718033 L27.6380328,20.147541 C28.1908197,20.4793443 28.5737705,21.0340984 28.6878689,21.6681967 C28.8019672,22.3036066 28.6360656,22.9567213 28.2334426,23.4603279 L27.0859016,24.895082 C26.9554098,25.0583607 26.8832787,25.2636066 26.8832787,25.4721311 L26.8832787,27.5422951 C26.8832787,28.1311475 26.6445902,28.707541 26.2281967,29.1232787 L25.517377,29.8340984 C25.4636066,29.8878689 25.4170492,29.947541 25.3783607,30.0118033 L23.8118033,32.6229508 C23.5377049,33.0793443 23.1081967,33.4242623 22.602623,33.5927869 C22.3711475,33.6721311 22.1331148,33.7088525 21.8990164,33.7088525 Z" id="Path"></path>
                    <path d="M29.5081967,32.7868852 C29.335082,32.7868852 29.1685246,32.7186885 29.0445902,32.5947541 L27.7331148,31.2832787 C27.5783607,31.1285246 27.5108197,30.9062295 27.5540984,30.6911475 L28.2098361,27.412459 C28.2354098,27.2859016 28.2977049,27.1691803 28.3888525,27.077377 L30.3560656,25.1101639 C30.5272131,24.9390164 30.7790164,24.8754098 31.0098361,24.9462295 C31.2413115,25.0157377 31.415082,25.2078689 31.4622951,25.4452459 L32.1180328,28.7239344 C32.1501639,28.8839344 32.1213115,29.0498361 32.037377,29.1901639 L30.0701639,32.4688525 C29.9665574,32.6419672 29.7881967,32.757377 29.5881967,32.7822951 C29.5613115,32.784918 29.5344262,32.7868852 29.5081967,32.7868852 Z" id="Path"></path>
                    <path d="M36.7186885,18.2177049 C35.6885246,18.2177049 34.7665574,17.5108197 34.5055738,16.4767213 C34.3514754,15.8655738 34.1586885,15.3416393 33.9337705,14.9180328 C33.7908197,14.6491803 33.5337705,14.477377 33.227541,14.4459016 C32.892459,14.412459 32.5659016,14.5488525 32.3488525,14.8111475 C31.0288525,16.4065574 29.7429508,17.1442623 28.5232787,17.0065574 C27.0452459,16.837377 26.3278689,15.4354098 26.2977049,15.3757377 C23.2590164,9.29770492 17.8301639,9.82295082 17.7763934,9.83278689 C17.7521311,9.83540984 17.7285246,9.83672131 17.7042623,9.83672131 C17.3396721,9.83672131 16.935082,9.92459016 16.5029508,10.0970492 C15.0537705,10.6767213 13.452459,10.2419672 12.5180328,9.0157377 C11.602623,7.81311475 11.6078689,6.24983607 12.5318033,5.03409836 L12.6078689,4.93508197 C13.0681967,4.34360656 13.772459,3.96721311 14.5383607,3.90491803 C17.0104918,3.7042623 18.8485246,2.5147541 20.0019672,0.369180328 C20.1213115,0.146885246 20.3586885,0.011147541 20.6104918,0.0249180328 C30.1829508,0.474754098 37.9947541,7.70098361 39.184918,17.2072131 C39.227541,17.5495082 38.9980328,17.8668852 38.6590164,17.9318033 C38.1285246,18.0347541 37.5763934,18.1245902 37.0177049,18.1986885 C36.917377,18.2111475 36.8170492,18.2177049 36.7186885,18.2177049 Z" id="Path"></path>
                    <path d="M2.35409836,18.3606557 L0.756721311,18.3606557 C0.571147541,18.3606557 0.394098361,18.2819672 0.270163934,18.1442623 C0.146229508,18.0065574 0.0859016393,17.8229508 0.104918033,17.6380328 C0.483934426,13.9521311 1.90032787,10.4563934 4.20262295,7.52786885 C4.3947541,7.28327869 4.73245902,7.20721311 5.01114754,7.34688525 L7.47278689,8.57770492 C8.50163934,9.09245902 9.2295082,10.077377 9.41836066,11.212459 L9.46885246,11.5121311 C9.7304918,13.0845902 8.94885246,14.6203279 7.52327869,15.3331148 L6.24065574,15.9744262 C5.88393443,16.1527869 5.57836066,16.4229508 5.35672131,16.7547541 C4.68590164,17.76 3.56393443,18.3606557 2.35409836,18.3606557 Z" id="Path"></path>
                    <path d="M8.02098361,35.3514754 C7.87737705,35.3514754 7.7357377,35.304918 7.61836066,35.2137705 C3.32196721,31.8760656 0.575737705,26.8688525 0.0852459016,21.4760656 C0.0590163934,21.1927869 0.219016393,20.9259016 0.48,20.8137705 L1.16655738,20.5193443 L1.16655738,20.5193443 C2.54032787,19.9304918 4.11081967,20.2334426 5.16786885,21.2904918 L6.38295082,22.5055738 C6.70819672,22.8308197 7.11868852,23.0504918 7.56983607,23.1409836 C9.26295082,23.48 10.4911475,24.9783607 10.4911475,26.704918 L10.4911475,26.8865574 C10.4911475,27.8747541 10.2019672,28.8308197 9.65377049,29.6518033 C9.32918033,30.1383607 9.12393443,30.7036066 9.05901639,31.2839344 L8.67213115,34.7685246 C8.64590164,35.0039344 8.49442623,35.2078689 8.27606557,35.3003279 C8.19409836,35.3344262 8.10754098,35.3514754 8.02098361,35.3514754 Z" id="Path"></path>
                </g>
            </g>
        </g>
    </g>
</svg>