<svg width="33px" height="34px" viewBox="0 0 33 34" version="1.1" xmlns="http://www.w3.org/2000/svg" xmlns:xlink="http://www.w3.org/1999/xlink">
    <g id="Desk" stroke="none" stroke-width="1" fill="none" fill-rule="evenodd" stroke-linecap="round" stroke-linejoin="round">
        <g id="5" transform="translate(-244.000000, -107.000000)" stroke="#3F5A5E">
            <g id="Group-12" transform="translate(227.000000, 94.000000)">
                <g id="Group-8" transform="translate(18.000000, 14.000000)">
                    <path d="M28.3736264,2.34432234 L28.3736264,31.8827839 L23.0989011,31.8827839 L23.0989011,17.1135531 L17.8234505,17.1133223 L17.8241758,2.34432234 L28.3736264,2.34432234 Z" id="Combined-Shape"></path>
                    <path d="M17.8241758,5.27472527 L17.8241758,17.1135531 L12.549,17.1127253 L12.5494505,10.5494505 L7.274,10.5487253 L7.27472527,5.27472527 L17.8241758,5.27472527 Z" id="Combined-Shape"></path>
                    <rect id="Rectangle-Copy-7" x="9.5018315" y="2.34432234" width="6.0952381" height="2.93040293"></rect>
                    <line x1="12.5494505" y1="0" x2="12.5494505" y2="2.34432234" id="Path-3"></line>
                    <line x1="5.16483516" y1="13.5970696" x2="5.16483516" y2="15.3553114" id="Path-3-Copy-6"></line>
                    <line x1="7.45054945" y1="13.5970696" x2="7.45054945" y2="15.3553114" id="Path-3-Copy-7"></line>
                    <line x1="9.67765568" y1="13.5970696" x2="9.67765568" y2="15.3553114" id="Path-3-Copy-7"></line>
                    <line x1="20.8131868" y1="4.80586081" x2="20.8131868" y2="6.56410256" id="Path-3-Copy-6"></line>
                    <line x1="12.6080586" y1="5.0989011" x2="12.6080586" y2="11.1941392" id="Path-3-Copy-6" transform="translate(12.608059, 8.146520) rotate(-90.000000) translate(-12.608059, -8.146520) "></line>
                    <line x1="15.1868132" y1="17.0549451" x2="15.1868132" y2="46.7106227" id="Path-3-Copy-14" transform="translate(15.186813, 31.882784) rotate(-90.000000) translate(-15.186813, -31.882784) "></line>
                    <line x1="14.1318681" y1="9.97619048" x2="14.1318681" y2="13.0238095" id="Path-3-Copy-12" transform="translate(14.131868, 11.500000) rotate(-90.000000) translate(-14.131868, -11.500000) "></line>
                    <line x1="14.1318681" y1="12.9761905" x2="14.1318681" y2="16.0238095" id="Path-3-Copy-13" transform="translate(14.131868, 14.500000) rotate(-90.000000) translate(-14.131868, -14.500000) "></line>
                    <line x1="23.0989011" y1="4.80586081" x2="23.0989011" y2="6.56410256" id="Path-3-Copy-7"></line>
                    <line x1="25.3260073" y1="4.80586081" x2="25.3260073" y2="6.56410256" id="Path-3-Copy-7"></line>
                    <line x1="20.8131868" y1="8.43956044" x2="20.8131868" y2="10.1978022" id="Path-3-Copy-6"></line>
                    <line x1="23.0989011" y1="8.43956044" x2="23.0989011" y2="10.1978022" id="Path-3-Copy-7"></line>
                    <line x1="25.3260073" y1="8.43956044" x2="25.3260073" y2="10.1978022" id="Path-3-Copy-7"></line>
                    <line x1="20.8131868" y1="12.1904762" x2="20.8131868" y2="13.9487179" id="Path-3-Copy-6"></line>
                    <line x1="23.0989011" y1="12.1904762" x2="23.0989011" y2="13.9487179" id="Path-3-Copy-7"></line>
                    <line x1="17.8827839" y1="19.047619" x2="17.8827839" y2="30.0659341" id="Path-3-Copy-15"></line>
                    <line x1="15.5970696" y1="19.047619" x2="15.5970696" y2="30.0659341" id="Path-3-Copy-16"></line>
                    <line x1="20.1684982" y1="19.047619" x2="20.1684982" y2="30.0659341" id="Path-3-Copy-17"></line>
                    <line x1="25.3260073" y1="12.1904762" x2="25.3260073" y2="13.9487179" id="Path-3-Copy-7"></line>
                    <line x1="20.8131868" y1="15.9413919" x2="20.8131868" y2="16.9413919" id="Path-3-Copy-6"></line>
                    <line x1="23.0989011" y1="15.9413919" x2="23.0989011" y2="17.6996337" id="Path-3-Copy-7"></line>
                    <line x1="25.3260073" y1="15.9413919" x2="25.3260073" y2="17.6996337" id="Path-3-Copy-7"></line>
                    <line x1="25.3260073" y1="19.5750916" x2="25.3260073" y2="21.3333333" id="Path-3-Copy-9"></line>
                    <line x1="25.3260073" y1="23.2087912" x2="25.3260073" y2="24.967033" id="Path-3-Copy-10"></line>
                    <line x1="25.3260073" y1="26.959707" x2="25.3260073" y2="28.7179487" id="Path-3-Copy-11"></line>
                    <line x1="5.16483516" y1="17.3479853" x2="5.16483516" y2="19.1062271" id="Path-3-Copy-6"></line>
                    <line x1="7.45054945" y1="17.3479853" x2="7.45054945" y2="19.1062271" id="Path-3-Copy-7"></line>
                    <line x1="9.67765568" y1="17.3479853" x2="9.67765568" y2="19.1062271" id="Path-3-Copy-7"></line>
                    <line x1="5.16483516" y1="20.981685" x2="5.16483516" y2="22.7399267" id="Path-3-Copy-6"></line>
                    <line x1="7.45054945" y1="20.981685" x2="7.45054945" y2="22.7399267" id="Path-3-Copy-7"></line>
                    <line x1="9.67765568" y1="20.981685" x2="9.67765568" y2="22.7399267" id="Path-3-Copy-7"></line>
                    <line x1="5.16483516" y1="24.6153846" x2="5.16483516" y2="26.3736264" id="Path-3-Copy-6"></line>
                    <line x1="7.45054945" y1="24.6153846" x2="7.45054945" y2="26.3736264" id="Path-3-Copy-7"></line>
                    <line x1="7.45054945" y1="30.1245421" x2="7.45054945" y2="31.8827839" id="Path-3-Copy-8"></line>
                    <line x1="9.67765568" y1="24.6153846" x2="9.67765568" y2="26.3736264" id="Path-3-Copy-7"></line>
                    <rect id="Rectangle" x="5.75091575" y="28.7179487" width="3.51648352" height="3.16483516"></rect>
                    <rect id="Rectangle-Copy-5" x="2" y="10.5494505" width="10.5494505" height="21.3333333"></rect>
                </g>
            </g>
        </g>
    </g>
</svg>