<svg width="45" height="32" viewBox="0 0 45 32" fill="none" xmlns="http://www.w3.org/2000/svg">
<path d="M2 31.5L1.60433 31.1943L0.981875 32H2V31.5ZM30.97 22.0478C31.152 22.2556 31.4678 22.2765 31.6756 22.0945C31.8833 21.9126 31.9042 21.5967 31.7223 21.389L30.97 22.0478ZM44 31.5V32H44.9836L44.404 31.2053L44 31.5ZM18.2833 10.4233L18.679 10.729L18.2833 10.4233ZM21.3705 10.3284L20.9944 10.6578L21.3705 10.3284ZM2.39567 31.8057L18.679 10.729L17.8876 10.1176L1.60433 31.1943L2.39567 31.8057ZM20.9944 10.6578L30.97 22.0478L31.7223 21.389L21.7467 9.99894L20.9944 10.6578ZM2 32H44V31H2V32ZM44.404 31.2053L30.8828 12.6687L30.0748 13.2581L43.5961 31.7947L44.404 31.2053ZM26.898 12.5964L25.1647 14.8001L25.9507 15.4183L27.684 13.2147L26.898 12.5964ZM30.8828 12.6687C29.9065 11.3304 27.9222 11.2944 26.898 12.5964L27.684 13.2147C28.2985 12.4334 29.4891 12.455 30.0748 13.2581L30.8828 12.6687ZM18.679 10.729C19.2563 9.98173 20.3722 9.94741 20.9944 10.6578L21.7467 9.99894C20.7097 8.81497 18.8499 8.87218 17.8876 10.1176L18.679 10.729Z" fill="#3F5A5E"/>
<path d="M11 19.607L9.7027 17.865C9.10299 17.0597 7.89679 17.0595 7.29685 17.8647L1.69813 25.3783C1.56949 25.5509 1.5 25.7605 1.5 25.9758V31.75" stroke="#3F5A5E"/>
<path d="M11.7848 18.0487C11.5355 18.1676 11.4298 18.466 11.5487 18.7152C11.6676 18.9645 11.966 19.0702 12.2152 18.9513L11.7848 18.0487ZM23.5619 16.1942L23.342 15.7451L23.5619 16.1942ZM15.6244 16.7715L15.4091 16.3202L15.6244 16.7715ZM12.2152 18.9513L15.8396 17.2228L15.4091 16.3202L11.7848 18.0487L12.2152 18.9513ZM23.7819 16.6432L26.2199 15.449L25.7801 14.551L23.342 15.7451L23.7819 16.6432ZM19.4176 16.972C20.8607 17.4264 22.4232 17.3087 23.7819 16.6432L23.342 15.7451C22.2138 16.2977 20.9163 16.3955 19.7179 16.0182L19.4176 16.972ZM15.8396 17.2228C16.9576 16.6896 18.2362 16.6 19.4176 16.972L19.7179 16.0182C18.2952 15.5702 16.7555 15.6781 15.4091 16.3202L15.8396 17.2228Z" fill="#3F5A5E"/>
<mask id="path-4-inside-1_1_136" fill="white">
<path d="M8.24583 4.01764C10.0393 4.01764 11.4741 5.45242 11.4741 7.24589C11.4741 9.03936 10.0393 10.4741 8.24583 10.4741C6.45235 10.4741 5.01758 9.03936 5.01758 7.24589C5.01758 5.45242 6.45235 4.01764 8.24583 4.01764ZM8.24583 4.64535C6.81105 4.64535 5.64529 5.81111 5.64529 7.24589C5.64529 8.68066 6.81105 9.84642 8.24583 9.84642C9.6806 9.84642 10.8464 8.68066 10.8464 7.24589C10.8464 5.81111 9.6806 4.64535 8.24583 4.64535Z"/>
</mask>
<path d="M8.24583 4.01764C10.0393 4.01764 11.4741 5.45242 11.4741 7.24589C11.4741 9.03936 10.0393 10.4741 8.24583 10.4741C6.45235 10.4741 5.01758 9.03936 5.01758 7.24589C5.01758 5.45242 6.45235 4.01764 8.24583 4.01764ZM8.24583 4.64535C6.81105 4.64535 5.64529 5.81111 5.64529 7.24589C5.64529 8.68066 6.81105 9.84642 8.24583 9.84642C9.6806 9.84642 10.8464 8.68066 10.8464 7.24589C10.8464 5.81111 9.6806 4.64535 8.24583 4.64535Z" fill="#3F5A5E"/>
<path d="M8.24583 5.01764C9.48701 5.01764 10.4741 6.0047 10.4741 7.24589H12.4741C12.4741 4.90013 10.5916 3.01764 8.24583 3.01764V5.01764ZM10.4741 7.24589C10.4741 8.48707 9.48701 9.47413 8.24583 9.47413V11.4741C10.5916 11.4741 12.4741 9.59164 12.4741 7.24589H10.4741ZM8.24583 9.47413C7.00464 9.47413 6.01758 8.48707 6.01758 7.24589H4.01758C4.01758 9.59164 5.90007 11.4741 8.24583 11.4741V9.47413ZM6.01758 7.24589C6.01758 6.0047 7.00464 5.01764 8.24583 5.01764V3.01764C5.90007 3.01764 4.01758 4.90013 4.01758 7.24589H6.01758ZM8.24583 3.64535C6.25876 3.64535 4.64529 5.25882 4.64529 7.24589H6.64529C6.64529 6.36339 7.36333 5.64535 8.24583 5.64535V3.64535ZM4.64529 7.24589C4.64529 9.23295 6.25876 10.8464 8.24583 10.8464V8.84642C7.36333 8.84642 6.64529 8.12838 6.64529 7.24589H4.64529ZM8.24583 10.8464C10.2329 10.8464 11.8464 9.23295 11.8464 7.24589H9.84636C9.84636 8.12838 9.12832 8.84642 8.24583 8.84642V10.8464ZM11.8464 7.24589C11.8464 5.25882 10.2329 3.64535 8.24583 3.64535V5.64535C9.12832 5.64535 9.84636 6.36339 9.84636 7.24589H11.8464Z" fill="#3F5A5E" mask="url(#path-4-inside-1_1_136)"/>
<mask id="path-6-inside-2_1_136" fill="white">
<path d="M8.24586 11.0122C8.42521 11.0122 8.55972 11.1467 8.55972 11.3261V12.178C8.55972 12.3573 8.42521 12.4918 8.24586 12.4918C8.06652 12.4918 7.93201 12.3573 7.93201 12.178V11.3261C7.93201 11.1467 8.06652 11.0122 8.24586 11.0122Z"/>
</mask>
<path d="M8.24586 11.0122C8.42521 11.0122 8.55972 11.1467 8.55972 11.3261V12.178C8.55972 12.3573 8.42521 12.4918 8.24586 12.4918C8.06652 12.4918 7.93201 12.3573 7.93201 12.178V11.3261C7.93201 11.1467 8.06652 11.0122 8.24586 11.0122Z" fill="#3F5A5E"/>
<path d="M8.24586 12.0122C8.07878 12.0122 7.90033 11.9464 7.76294 11.809C7.62555 11.6716 7.55972 11.4931 7.55972 11.3261H9.55972C9.55972 10.5944 8.9775 10.0122 8.24586 10.0122V12.0122ZM7.55972 11.3261V12.178H9.55972V11.3261H7.55972ZM7.55972 12.178C7.55972 12.0109 7.62555 11.8324 7.76294 11.695C7.90033 11.5576 8.07878 11.4918 8.24586 11.4918V13.4918C8.9775 13.4918 9.55972 12.9096 9.55972 12.178H7.55972ZM8.24586 11.4918C8.41294 11.4918 8.5914 11.5576 8.72879 11.695C8.86618 11.8324 8.93201 12.0109 8.93201 12.178H6.93201C6.93201 12.9096 7.51423 13.4918 8.24586 13.4918V11.4918ZM8.93201 12.178V11.3261H6.93201V12.178H8.93201ZM8.93201 11.3261C8.93201 11.4931 8.86618 11.6716 8.72879 11.809C8.5914 11.9464 8.41294 12.0122 8.24586 12.0122V10.0122C7.51423 10.0122 6.93201 10.5944 6.93201 11.3261H8.93201Z" fill="#3F5A5E" mask="url(#path-6-inside-2_1_136)"/>
<mask id="path-8-inside-3_1_136" fill="white">
<path d="M7.93201 3.16576V2.31386C7.93201 2.13451 8.06652 2 8.24586 2C8.42521 2 8.55972 2.13451 8.55972 2.31386V3.16576C8.55972 3.3451 8.42521 3.47961 8.24586 3.47961C8.06652 3.47961 7.93201 3.3451 7.93201 3.16576Z"/>
</mask>
<path d="M7.93201 3.16576V2.31386C7.93201 2.13451 8.06652 2 8.24586 2C8.42521 2 8.55972 2.13451 8.55972 2.31386V3.16576C8.55972 3.3451 8.42521 3.47961 8.24586 3.47961C8.06652 3.47961 7.93201 3.3451 7.93201 3.16576Z" fill="#3F5A5E"/>
<path d="M8.93201 3.16576V2.31386H6.93201V3.16576H8.93201ZM8.93201 2.31386C8.93201 2.48094 8.86618 2.65939 8.72879 2.79678C8.5914 2.93417 8.41294 3 8.24586 3V1C7.51423 1 6.93201 1.58223 6.93201 2.31386H8.93201ZM8.24586 3C8.07878 3 7.90033 2.93417 7.76294 2.79678C7.62555 2.65939 7.55972 2.48094 7.55972 2.31386H9.55972C9.55972 1.58222 8.97749 1 8.24586 1V3ZM7.55972 2.31386V3.16576H9.55972V2.31386H7.55972ZM7.55972 3.16576C7.55972 2.99868 7.62555 2.82022 7.76294 2.68283C7.90033 2.54544 8.07878 2.47961 8.24586 2.47961V4.47961C8.97749 4.47961 9.55972 3.89739 9.55972 3.16576H7.55972ZM8.24586 2.47961C8.41294 2.47961 8.5914 2.54544 8.72879 2.68283C8.86618 2.82022 8.93201 2.99868 8.93201 3.16576H6.93201C6.93201 3.89739 7.51423 4.47961 8.24586 4.47961V2.47961Z" fill="#3F5A5E" mask="url(#path-8-inside-3_1_136)"/>
<mask id="path-10-inside-4_1_136" fill="white">
<path d="M12.3261 6.93204H13.178C13.3573 6.93204 13.4918 7.06655 13.4918 7.24589C13.4918 7.42524 13.3573 7.55975 13.178 7.55975H12.3261C12.1467 7.55975 12.0122 7.42524 12.0122 7.24589C12.0122 7.06655 12.1467 6.93204 12.3261 6.93204Z"/>
</mask>
<path d="M12.3261 6.93204H13.178C13.3573 6.93204 13.4918 7.06655 13.4918 7.24589C13.4918 7.42524 13.3573 7.55975 13.178 7.55975H12.3261C12.1467 7.55975 12.0122 7.42524 12.0122 7.24589C12.0122 7.06655 12.1467 6.93204 12.3261 6.93204Z" fill="#3F5A5E"/>
<path d="M12.3261 7.93204H13.178V5.93204H12.3261V7.93204ZM13.178 7.93204C13.0109 7.93204 12.8324 7.86621 12.695 7.72882C12.5576 7.59143 12.4918 7.41297 12.4918 7.24589H14.4918C14.4918 6.51426 13.9096 5.93204 13.178 5.93204V7.93204ZM12.4918 7.24589C12.4918 7.07881 12.5576 6.90036 12.695 6.76297C12.8324 6.62558 13.0109 6.55975 13.178 6.55975V8.55975C13.9096 8.55975 14.4918 7.97753 14.4918 7.24589H12.4918ZM13.178 6.55975H12.3261V8.55975H13.178V6.55975ZM12.3261 6.55975C12.4931 6.55975 12.6716 6.62558 12.809 6.76297C12.9464 6.90036 13.0122 7.07881 13.0122 7.24589H11.0122C11.0122 7.97753 11.5944 8.55975 12.3261 8.55975V6.55975ZM13.0122 7.24589C13.0122 7.41297 12.9464 7.59143 12.809 7.72882C12.6716 7.86621 12.4931 7.93204 12.3261 7.93204V5.93204C11.5944 5.93204 11.0122 6.51426 11.0122 7.24589H13.0122Z" fill="#3F5A5E" mask="url(#path-10-inside-4_1_136)"/>
<mask id="path-12-inside-5_1_136" fill="white">
<path d="M3 7.24589C3 7.06655 3.13451 6.93204 3.31386 6.93204H4.16576C4.3451 6.93204 4.47961 7.06655 4.47961 7.24589C4.47961 7.42524 4.3451 7.55975 4.16576 7.55975H3.31386C3.13451 7.55975 3 7.42524 3 7.24589Z"/>
</mask>
<path d="M3 7.24589C3 7.06655 3.13451 6.93204 3.31386 6.93204H4.16576C4.3451 6.93204 4.47961 7.06655 4.47961 7.24589C4.47961 7.42524 4.3451 7.55975 4.16576 7.55975H3.31386C3.13451 7.55975 3 7.42524 3 7.24589Z" fill="#3F5A5E"/>
<path d="M4 7.24589C4 7.41297 3.93417 7.59143 3.79678 7.72882C3.65939 7.86621 3.48094 7.93204 3.31386 7.93204V5.93204C2.58223 5.93204 2 6.51426 2 7.24589H4ZM3.31386 7.93204H4.16576V5.93204H3.31386V7.93204ZM4.16576 7.93204C3.99868 7.93204 3.82022 7.86621 3.68283 7.72882C3.54544 7.59143 3.47961 7.41297 3.47961 7.24589H5.47961C5.47961 6.51426 4.89739 5.93204 4.16576 5.93204V7.93204ZM3.47961 7.24589C3.47961 7.07881 3.54544 6.90036 3.68283 6.76297C3.82022 6.62558 3.99868 6.55975 4.16576 6.55975V8.55975C4.89739 8.55975 5.47961 7.97753 5.47961 7.24589H3.47961ZM4.16576 6.55975H3.31386V8.55975H4.16576V6.55975ZM3.31386 6.55975C3.48094 6.55975 3.65939 6.62558 3.79678 6.76297C3.93417 6.90036 4 7.07881 4 7.24589H2C2 7.97753 2.58222 8.55975 3.31386 8.55975V6.55975Z" fill="#3F5A5E" mask="url(#path-12-inside-5_1_136)"/>
<mask id="path-14-inside-6_1_136" fill="white">
<path d="M11.519 5.36274C11.4293 5.22823 11.4741 5.00404 11.6535 4.91437L12.3709 4.51084C12.5054 4.42117 12.7296 4.466 12.8192 4.64535C12.9089 4.77986 12.8641 5.00404 12.6847 5.09372L11.9673 5.49725C11.9225 5.54209 11.8777 5.54209 11.788 5.54209C11.6535 5.49725 11.5638 5.45241 11.519 5.36274Z"/>
</mask>
<path d="M11.519 5.36274C11.4293 5.22823 11.4741 5.00404 11.6535 4.91437L12.3709 4.51084C12.5054 4.42117 12.7296 4.466 12.8192 4.64535C12.9089 4.77986 12.8641 5.00404 12.6847 5.09372L11.9673 5.49725C11.9225 5.54209 11.8777 5.54209 11.788 5.54209C11.6535 5.49725 11.5638 5.45241 11.519 5.36274Z" fill="#3F5A5E"/>
<path d="M11.519 5.36274L12.4134 4.91553L12.3855 4.85984L12.351 4.80804L11.519 5.36274ZM11.6535 4.91437L12.1007 5.8088L12.1225 5.7979L12.1437 5.78595L11.6535 4.91437ZM12.3709 4.51084L12.8611 5.38242L12.8941 5.36387L12.9256 5.34289L12.3709 4.51084ZM12.8192 4.64535L11.9248 5.09256L11.9526 5.14825L11.9872 5.20005L12.8192 4.64535ZM12.6847 5.09372L12.2375 4.19929L12.2157 4.21019L12.1945 4.22214L12.6847 5.09372ZM11.9673 5.49725L11.4771 4.62567L11.3573 4.69301L11.2602 4.79014L11.9673 5.49725ZM11.788 5.54209L11.4718 6.49077L11.6257 6.54209H11.788V5.54209ZM12.351 4.80804C12.4882 5.01382 12.4919 5.22818 12.4516 5.3794C12.4074 5.54506 12.2913 5.7135 12.1007 5.8088L11.2063 4.01994C10.4908 4.37769 10.2624 5.28073 10.6869 5.91744L12.351 4.80804ZM12.1437 5.78595L12.8611 5.38242L11.8806 3.63926L11.1632 4.0428L12.1437 5.78595ZM12.9256 5.34289C12.7198 5.48008 12.5054 5.48377 12.3542 5.44345C12.1885 5.39927 12.0201 5.28316 11.9248 5.09256L13.7137 4.19814C13.3559 3.48265 12.4529 3.25432 11.8162 3.67879L12.9256 5.34289ZM11.9872 5.20005C11.85 4.99427 11.8463 4.77991 11.8866 4.62869C11.9308 4.46303 12.0469 4.29459 12.2375 4.19929L13.1319 5.98815C13.8474 5.6304 14.0757 4.72736 13.6513 4.09065L11.9872 5.20005ZM12.1945 4.22214L11.4771 4.62567L12.4576 6.36882L13.175 5.96529L12.1945 4.22214ZM11.2602 4.79014C11.3098 4.74052 11.3776 4.6857 11.4651 4.63938C11.5526 4.59309 11.6344 4.5687 11.6983 4.5559C11.7566 4.54424 11.7993 4.54252 11.8076 4.54218C11.8141 4.54192 11.8161 4.54209 11.788 4.54209V6.54209C11.7966 6.54209 12.2909 6.58793 12.6744 6.20436L11.2602 4.79014ZM12.1042 4.5934C12.0553 4.5771 12.0911 4.58449 12.1498 4.62123C12.2277 4.6699 12.3376 4.76386 12.4134 4.91553L10.6245 5.80995C10.8693 6.29944 11.3382 6.44626 11.4718 6.49077L12.1042 4.5934Z" fill="#3F5A5E" mask="url(#path-14-inside-6_1_136)"/>
<mask id="path-16-inside-7_1_136" fill="white">
<path d="M4.97279 9.12905C5.06246 9.26356 5.01763 9.48775 4.83828 9.57742L4.12089 9.98095C4.07605 10.0258 4.03122 10.0258 3.94154 10.0258C3.85187 10.0258 3.71736 9.98095 3.67252 9.84644C3.58285 9.71193 3.62769 9.48775 3.80703 9.39807L4.52442 8.99454C4.70377 8.90487 4.88312 8.94971 4.97279 9.12905Z"/>
</mask>
<path d="M4.97279 9.12905C5.06246 9.26356 5.01763 9.48775 4.83828 9.57742L4.12089 9.98095C4.07605 10.0258 4.03122 10.0258 3.94154 10.0258C3.85187 10.0258 3.71736 9.98095 3.67252 9.84644C3.58285 9.71193 3.62769 9.48775 3.80703 9.39807L4.52442 8.99454C4.70377 8.90487 4.88312 8.94971 4.97279 9.12905Z" fill="#3F5A5E"/>
<path d="M4.97279 9.12905L4.07836 9.57627L4.1062 9.63195L4.14074 9.68375L4.97279 9.12905ZM4.83828 9.57742L4.39106 8.68299L4.36926 8.6939L4.34802 8.70585L4.83828 9.57742ZM4.12089 9.98095L3.63063 9.10938L3.51091 9.17672L3.41378 9.27385L4.12089 9.98095ZM3.67252 9.84644L4.62121 9.53021L4.57886 9.40317L4.50457 9.29174L3.67252 9.84644ZM3.80703 9.39807L4.25425 10.2925L4.27605 10.2816L4.29729 10.2697L3.80703 9.39807ZM4.52442 8.99454L4.07721 8.10012L4.0554 8.11102L4.03416 8.12297L4.52442 8.99454ZM4.14074 9.68375C4.00355 9.47797 3.99985 9.26361 4.04018 9.11239C4.08436 8.94674 4.20047 8.77829 4.39106 8.68299L5.28549 10.4718C6.00098 10.1141 6.22931 9.21106 5.80484 8.57435L4.14074 9.68375ZM4.34802 8.70585L3.63063 9.10938L4.61115 10.8525L5.32854 10.449L4.34802 8.70585ZM3.41378 9.27385C3.4634 9.22422 3.53118 9.16941 3.61868 9.12309C3.70612 9.07679 3.78793 9.0524 3.85192 9.0396C3.9102 9.02795 3.95283 9.02622 3.96112 9.02589C3.96763 9.02563 3.96963 9.02579 3.94154 9.02579V11.0258C3.95012 11.0258 4.44442 11.0716 4.828 10.6881L3.41378 9.27385ZM3.94154 9.02579C4.04548 9.02579 4.16028 9.04819 4.27586 9.1124C4.40752 9.18555 4.55219 9.32318 4.62121 9.53021L2.72384 10.1627C2.96071 10.8733 3.62969 11.0258 3.94154 11.0258V9.02579ZM4.50457 9.29174C4.64176 9.49753 4.64546 9.71188 4.60513 9.86311C4.56096 10.0288 4.44484 10.1972 4.25425 10.2925L3.35982 8.50365C2.64433 8.86139 2.416 9.76443 2.84047 10.4011L4.50457 9.29174ZM4.29729 10.2697L5.01468 9.86612L4.03416 8.12297L3.31677 8.5265L4.29729 10.2697ZM4.97163 9.88897C4.88523 9.93217 4.71639 9.98212 4.50751 9.92244C4.28506 9.85888 4.1435 9.70654 4.07836 9.57627L5.86722 8.68184C5.71241 8.37223 5.43633 8.10779 5.05695 7.99939C4.69114 7.89487 4.34296 7.96724 4.07721 8.10012L4.97163 9.88897Z" fill="#3F5A5E" mask="url(#path-16-inside-7_1_136)"/>
<mask id="path-18-inside-8_1_136" fill="white">
<path d="M9.94962 3.52442L10.3532 2.76219C10.4428 2.62768 10.6222 2.53801 10.8015 2.62768C10.936 2.71735 11.0257 2.8967 10.936 3.07605L10.5325 3.83827C10.4877 3.92795 10.3532 4.01762 10.2635 4.01762C10.2186 4.01762 10.1738 4.01762 10.0841 3.97278C9.90479 3.88311 9.85995 3.65893 9.94962 3.52442Z"/>
</mask>
<path d="M9.94962 3.52442L10.3532 2.76219C10.4428 2.62768 10.6222 2.53801 10.8015 2.62768C10.936 2.71735 11.0257 2.8967 10.936 3.07605L10.5325 3.83827C10.4877 3.92795 10.3532 4.01762 10.2635 4.01762C10.2186 4.01762 10.1738 4.01762 10.0841 3.97278C9.90479 3.88311 9.85995 3.65893 9.94962 3.52442Z" fill="#3F5A5E"/>
<path d="M9.94962 3.52442L10.7817 4.07912L10.8097 4.03702L10.8334 3.9923L9.94962 3.52442ZM10.3532 2.76219L9.5211 2.20749L9.49304 2.24959L9.46937 2.2943L10.3532 2.76219ZM10.8015 2.62768L11.3562 1.79563L11.3044 1.76109L11.2487 1.73325L10.8015 2.62768ZM10.936 3.07605L11.8198 3.54393L11.8253 3.53366L11.8305 3.52326L10.936 3.07605ZM10.5325 3.83827L9.64871 3.37039L9.64327 3.38066L9.63807 3.39106L10.5325 3.83827ZM10.0841 3.97278L10.5313 3.07836L10.0841 3.97278ZM10.8334 3.9923L11.2369 3.23008L9.46937 2.2943L9.06583 3.05653L10.8334 3.9923ZM11.1852 3.31689C11.1223 3.41131 11.0229 3.5016 10.88 3.55261C10.7184 3.61035 10.5237 3.60682 10.3543 3.52211L11.2487 1.73325C10.492 1.35487 9.8044 1.78254 9.5211 2.20749L11.1852 3.31689ZM10.2468 3.45973C10.1524 3.39678 10.0621 3.2974 10.0111 3.15457C9.95336 2.99288 9.95689 2.79827 10.0416 2.62883L11.8305 3.52326C12.2088 2.76651 11.7812 2.07893 11.3562 1.79563L10.2468 3.45973ZM10.0522 2.60816L9.64871 3.37039L11.4163 4.30616L11.8198 3.54393L10.0522 2.60816ZM9.63807 3.39106C9.68356 3.30009 9.73449 3.24085 9.76517 3.2091C9.79835 3.17478 9.83053 3.14924 9.8601 3.12952C9.88918 3.11014 9.92947 3.08723 9.98315 3.06692C10.031 3.04883 10.1291 3.01762 10.2635 3.01762V5.01762C10.5895 5.01762 10.842 4.87861 10.9695 4.79362C11.1084 4.70101 11.3012 4.53702 11.4269 4.28549L9.63807 3.39106ZM10.2635 3.01762C10.2426 3.01762 10.3083 3.01575 10.3867 3.03143C10.4646 3.047 10.5158 3.07058 10.5313 3.07836L9.63692 4.86721C9.74215 4.91983 9.86061 4.96582 9.9945 4.9926C10.129 5.01949 10.2395 5.01762 10.2635 5.01762V3.01762ZM10.5313 3.07836C10.7219 3.17365 10.8381 3.3421 10.8822 3.50775C10.9226 3.65897 10.9189 3.87333 10.7817 4.07912L9.11757 2.96971C8.6931 3.60643 8.92143 4.50947 9.63692 4.86721L10.5313 3.07836Z" fill="#3F5A5E" mask="url(#path-18-inside-8_1_136)"/>
<mask id="path-20-inside-9_1_136" fill="white">
<path d="M6.40753 10.519C6.54204 10.6087 6.63171 10.788 6.54204 10.9674L6.13851 11.7296C6.09367 11.8193 5.95916 11.9089 5.86948 11.9089C5.82465 11.9089 5.77981 11.9089 5.69014 11.8641C5.55563 11.7744 5.46595 11.5951 5.55563 11.4157L5.95916 10.6535C6.04883 10.4742 6.27302 10.4293 6.40753 10.519Z"/>
</mask>
<path d="M6.40753 10.519C6.54204 10.6087 6.63171 10.788 6.54204 10.9674L6.13851 11.7296C6.09367 11.8193 5.95916 11.9089 5.86948 11.9089C5.82465 11.9089 5.77981 11.9089 5.69014 11.8641C5.55563 11.7744 5.46595 11.5951 5.55563 11.4157L5.95916 10.6535C6.04883 10.4742 6.27302 10.4293 6.40753 10.519Z" fill="#3F5A5E"/>
<path d="M6.40753 10.519L6.96223 9.68694L6.96223 9.68694L6.40753 10.519ZM6.54204 10.9674L7.42582 11.4352L7.43126 11.425L7.43646 11.4146L6.54204 10.9674ZM6.13851 11.7296L5.25472 11.2617L5.24928 11.272L5.24408 11.2824L6.13851 11.7296ZM5.69014 11.8641L5.13544 12.6961L5.18724 12.7307L5.24292 12.7585L5.69014 11.8641ZM5.55563 11.4157L4.67184 10.9478L4.6664 10.9581L4.6612 10.9685L5.55563 11.4157ZM5.95916 10.6535L6.84295 11.1214L6.84839 11.1111L6.85359 11.1007L5.95916 10.6535ZM5.85283 11.351C5.7584 11.2881 5.66812 11.1887 5.61711 11.0459C5.55936 10.8842 5.56289 10.6896 5.64761 10.5201L7.43646 11.4146C7.81484 10.6578 7.38718 9.97024 6.96223 9.68694L5.85283 11.351ZM5.65825 10.4995L5.25472 11.2617L7.02229 12.1975L7.42582 11.4352L5.65825 10.4995ZM5.24408 11.2824C5.28956 11.1914 5.34049 11.1322 5.37118 11.1004C5.40436 11.0661 5.43654 11.0405 5.46611 11.0208C5.49518 11.0014 5.53547 10.9785 5.58915 10.9582C5.63697 10.9401 5.73507 10.9089 5.86948 10.9089V12.9089C6.19548 12.9089 6.44802 12.7699 6.57551 12.6849C6.71443 12.5923 6.90717 12.4283 7.03293 12.1768L5.24408 11.2824ZM5.86948 10.9089C5.84862 10.9089 5.91431 10.9071 5.99274 10.9227C6.07059 10.9383 6.12179 10.9619 6.13735 10.9697L5.24292 12.7585C5.34816 12.8111 5.46661 12.8571 5.60051 12.8839C5.73499 12.9108 5.84551 12.9089 5.86948 12.9089V10.9089ZM6.24484 11.032C6.33926 11.095 6.42955 11.1944 6.48056 11.3372C6.5383 11.4989 6.53477 11.6935 6.45005 11.8629L4.6612 10.9685C4.28282 11.7253 4.71049 12.4128 5.13544 12.6961L6.24484 11.032ZM6.43942 11.8836L6.84295 11.1214L5.07537 10.1856L4.67184 10.9478L6.43942 11.8836ZM6.85359 11.1007C6.75829 11.2913 6.58984 11.4074 6.42419 11.4516C6.27297 11.4919 6.05861 11.4882 5.85283 11.351L6.96223 9.68694C6.32551 9.26246 5.42247 9.4908 5.06473 10.2063L6.85359 11.1007Z" fill="#3F5A5E" mask="url(#path-20-inside-9_1_136)"/>
<mask id="path-22-inside-10_1_136" fill="white">
<path d="M5.6005 3.07606C5.51083 2.94155 5.55566 2.71737 5.73501 2.62769C5.86952 2.53802 6.09371 2.58286 6.18338 2.7622L6.58691 3.52443C6.67658 3.65894 6.63175 3.88312 6.4524 3.9728C6.40756 4.01763 6.36273 4.01763 6.31789 4.01763C6.18338 4.01763 6.09371 3.9728 6.04887 3.83828L5.6005 3.07606Z"/>
</mask>
<path d="M5.6005 3.07606C5.51083 2.94155 5.55566 2.71737 5.73501 2.62769C5.86952 2.53802 6.09371 2.58286 6.18338 2.7622L6.58691 3.52443C6.67658 3.65894 6.63175 3.88312 6.4524 3.9728C6.40756 4.01763 6.36273 4.01763 6.31789 4.01763C6.18338 4.01763 6.09371 3.9728 6.04887 3.83828L5.6005 3.07606Z" fill="#3F5A5E"/>
<path d="M5.6005 3.07606L6.46244 2.56904L6.44816 2.54478L6.43255 2.52136L5.6005 3.07606ZM5.73501 2.62769L6.18222 3.52212L6.23791 3.49428L6.28971 3.45974L5.73501 2.62769ZM6.18338 2.7622L5.28895 3.20942L5.29415 3.21981L5.29959 3.23009L6.18338 2.7622ZM6.58691 3.52443L5.70312 3.99232L5.72679 4.03703L5.75486 4.07913L6.58691 3.52443ZM6.4524 3.9728L6.00519 3.07837L5.86004 3.15094L5.74529 3.26569L6.4524 3.9728ZM6.04887 3.83828L6.99755 3.52206L6.96423 3.42209L6.9108 3.33126L6.04887 3.83828ZM6.43255 2.52136C6.56974 2.72714 6.57343 2.9415 6.53311 3.09272C6.48893 3.25838 6.37282 3.42682 6.18222 3.52212L5.2878 1.73326C4.57231 2.09101 4.34398 2.99405 4.76845 3.63076L6.43255 2.52136ZM6.28971 3.45974C6.08393 3.59693 5.86957 3.60063 5.71835 3.5603C5.55269 3.51613 5.38425 3.40001 5.28895 3.20942L7.07781 2.31499C6.72006 1.5995 5.81702 1.37117 5.18031 1.79564L6.28971 3.45974ZM5.29959 3.23009L5.70312 3.99232L7.4707 3.05654L7.06717 2.29431L5.29959 3.23009ZM5.75486 4.07913C5.61767 3.87334 5.61398 3.65899 5.6543 3.50776C5.69848 3.34211 5.81459 3.17367 6.00519 3.07837L6.89961 4.86722C7.6151 4.50948 7.84343 3.60644 7.41896 2.96973L5.75486 4.07913ZM5.74529 3.26569C5.85376 3.15722 5.99297 3.07929 6.14261 3.04188C6.25866 3.01287 6.35888 3.01763 6.31789 3.01763V5.01763C6.37758 5.01763 6.80377 5.03564 7.15951 4.6799L5.74529 3.26569ZM6.31789 3.01763C6.34954 3.01763 6.50438 3.0208 6.67975 3.1304C6.87547 3.25272 6.96447 3.42281 6.99755 3.52206L5.10019 4.15451C5.1781 4.38827 5.33436 4.64803 5.61975 4.8264C5.88479 4.99205 6.15173 5.01763 6.31789 5.01763V3.01763ZM6.9108 3.33126L6.46244 2.56904L4.73857 3.58308L5.18693 4.3453L6.9108 3.33126Z" fill="#3F5A5E" mask="url(#path-22-inside-10_1_136)"/>
<mask id="path-24-inside-11_1_136" fill="white">
<path d="M10.4877 10.6535L10.8912 11.4157C10.9809 11.5503 10.936 11.7744 10.7567 11.8641C10.7118 11.9089 10.667 11.9089 10.6222 11.9089C10.4877 11.9089 10.398 11.8641 10.3532 11.7296L9.94962 10.9674C9.85995 10.788 9.90479 10.6087 10.0841 10.519C10.1738 10.4293 10.398 10.519 10.4877 10.6535Z"/>
</mask>
<path d="M10.4877 10.6535L10.8912 11.4157C10.9809 11.5503 10.936 11.7744 10.7567 11.8641C10.7118 11.9089 10.667 11.9089 10.6222 11.9089C10.4877 11.9089 10.398 11.8641 10.3532 11.7296L9.94962 10.9674C9.85995 10.788 9.90479 10.6087 10.0841 10.519C10.1738 10.4293 10.398 10.519 10.4877 10.6535Z" fill="#3F5A5E"/>
<path d="M10.4877 10.6535L11.3715 10.1856L11.3478 10.1409L11.3197 10.0988L10.4877 10.6535ZM10.8912 11.4157L10.0074 11.8836L10.0311 11.9283L10.0591 11.9704L10.8912 11.4157ZM10.7567 11.8641L10.3095 10.9697L10.1643 11.0423L10.0496 11.157L10.7567 11.8641ZM10.3532 11.7296L11.3018 11.4134L11.2757 11.3349L11.2369 11.2617L10.3532 11.7296ZM9.94962 10.9674L9.05519 11.4146L9.06039 11.425L9.06583 11.4353L9.94962 10.9674ZM10.0841 10.519L10.5313 11.4134L10.6765 11.3409L10.7912 11.2261L10.0841 10.519ZM9.60388 11.1214L10.0074 11.8836L11.775 10.9479L11.3715 10.1856L9.60388 11.1214ZM10.0591 11.9704C9.92195 11.7647 9.91826 11.5503 9.95859 11.3991C10.0028 11.2334 10.1189 11.065 10.3095 10.9697L11.2039 12.7585C11.9194 12.4008 12.1477 11.4978 11.7232 10.861L10.0591 11.9704ZM10.0496 11.157C10.158 11.0485 10.2973 10.9706 10.4469 10.9332C10.5629 10.9042 10.6632 10.9089 10.6222 10.9089V12.9089C10.6819 12.9089 11.108 12.927 11.4638 12.5712L10.0496 11.157ZM10.6222 10.9089C10.6538 10.9089 10.8087 10.9121 10.984 11.0217C11.1798 11.144 11.2688 11.3141 11.3018 11.4134L9.40447 12.0458C9.48239 12.2796 9.63865 12.5393 9.92404 12.7177C10.1891 12.8834 10.456 12.9089 10.6222 12.9089V10.9089ZM11.2369 11.2617L10.8334 10.4995L9.06583 11.4353L9.46937 12.1975L11.2369 11.2617ZM10.844 10.5202C10.8873 10.6066 10.9372 10.7754 10.8775 10.9843C10.814 11.2067 10.6616 11.3483 10.5313 11.4134L9.63692 9.62458C9.3273 9.77939 9.06286 10.0555 8.95447 10.4348C8.84995 10.8007 8.92232 11.1488 9.05519 11.4146L10.844 10.5202ZM10.7912 11.2261C10.5961 11.4212 10.3699 11.4732 10.2323 11.4815C10.099 11.4895 10.001 11.4623 9.94956 11.4439C9.86097 11.4123 9.74943 11.3489 9.65561 11.2082L11.3197 10.0988C11.1362 9.82358 10.8678 9.64814 10.6222 9.56045C10.4489 9.49854 9.85139 9.33753 9.37703 9.8119L10.7912 11.2261Z" fill="#3F5A5E" mask="url(#path-24-inside-11_1_136)"/>
<mask id="path-26-inside-12_1_136" fill="white">
<path d="M3.67257 4.60051C3.76224 4.466 3.94159 4.37632 4.12094 4.466L4.83833 4.86953C4.97284 4.9592 5.06251 5.13855 4.97284 5.3179C4.928 5.40757 4.79349 5.49724 4.70382 5.49724C4.65898 5.49724 4.61414 5.49724 4.52447 5.45241L3.80708 5.04888C3.67257 4.9592 3.5829 4.77985 3.67257 4.60051Z"/>
</mask>
<path d="M3.67257 4.60051C3.76224 4.466 3.94159 4.37632 4.12094 4.466L4.83833 4.86953C4.97284 4.9592 5.06251 5.13855 4.97284 5.3179C4.928 5.40757 4.79349 5.49724 4.70382 5.49724C4.65898 5.49724 4.61414 5.49724 4.52447 5.45241L3.80708 5.04888C3.67257 4.9592 3.5829 4.77985 3.67257 4.60051Z" fill="#3F5A5E"/>
<path d="M3.67257 4.60051L2.84052 4.04581L2.80599 4.09761L2.77814 4.15329L3.67257 4.60051ZM4.12094 4.466L4.6112 3.59442L4.58995 3.58247L4.56815 3.57157L4.12094 4.466ZM4.83833 4.86953L5.39303 4.03748L5.36156 4.0165L5.32859 3.99795L4.83833 4.86953ZM4.97284 5.3179L4.07841 4.87068L4.07841 4.87068L4.97284 5.3179ZM4.52447 5.45241L4.03421 6.32398L4.05545 6.33593L4.07726 6.34683L4.52447 5.45241ZM3.80708 5.04888L3.25238 5.88093L3.28385 5.90191L3.31682 5.92045L3.80708 5.04888ZM4.50462 5.15521C4.44167 5.24963 4.34229 5.33991 4.19946 5.39093C4.03777 5.44867 3.84316 5.44514 3.67373 5.36042L4.56815 3.57157C3.8114 3.19319 3.12382 3.62086 2.84052 4.04581L4.50462 5.15521ZM3.63068 5.33757L4.34807 5.7411L5.32859 3.99795L4.6112 3.59442L3.63068 5.33757ZM4.28363 5.70158C4.1892 5.63863 4.09892 5.53925 4.04791 5.39642C3.99016 5.23473 3.99369 5.04012 4.07841 4.87068L5.86726 5.76511C6.24564 5.00836 5.81798 4.32078 5.39303 4.03748L4.28363 5.70158ZM4.07841 4.87068C4.1239 4.77971 4.17482 4.72047 4.20551 4.68873C4.23869 4.65441 4.27087 4.62886 4.30044 4.60915C4.32952 4.58976 4.36981 4.56685 4.42349 4.54654C4.4713 4.52845 4.5694 4.49724 4.70382 4.49724V6.49724C5.02981 6.49724 5.28235 6.35824 5.40984 6.27325C5.54876 6.18063 5.7415 6.01664 5.86726 5.76511L4.07841 4.87068ZM4.70382 4.49724C4.68296 4.49724 4.74864 4.49537 4.82707 4.51106C4.90492 4.52663 4.95613 4.5502 4.97168 4.55798L4.07726 6.34683C4.18249 6.39945 4.30094 6.44544 4.43484 6.47222C4.56932 6.49911 4.67984 6.49724 4.70382 6.49724V4.49724ZM5.01473 4.58083L4.29734 4.1773L3.31682 5.92045L4.03421 6.32398L5.01473 4.58083ZM4.36178 4.21683C4.45621 4.27977 4.54649 4.37915 4.5975 4.52198C4.65525 4.68367 4.65172 4.87828 4.567 5.04772L2.77814 4.15329C2.39977 4.91005 2.82743 5.59763 3.25238 5.88093L4.36178 4.21683Z" fill="#3F5A5E" mask="url(#path-26-inside-12_1_136)"/>
<mask id="path-28-inside-13_1_136" fill="white">
<path d="M11.519 9.08421C11.6086 8.9497 11.788 8.86003 11.9673 8.9497L12.6847 9.35323C12.8192 9.44291 12.9089 9.62225 12.8192 9.8016C12.7744 9.89127 12.6399 9.98095 12.5502 9.98095C12.5054 9.98095 12.4605 9.98095 12.3709 9.93611L11.6535 9.53258C11.4741 9.44291 11.4293 9.26356 11.519 9.08421Z"/>
</mask>
<path d="M11.519 9.08421C11.6086 8.9497 11.788 8.86003 11.9673 8.9497L12.6847 9.35323C12.8192 9.44291 12.9089 9.62225 12.8192 9.8016C12.7744 9.89127 12.6399 9.98095 12.5502 9.98095C12.5054 9.98095 12.4605 9.98095 12.3709 9.93611L11.6535 9.53258C11.4741 9.44291 11.4293 9.26356 11.519 9.08421Z" fill="#3F5A5E"/>
<path d="M11.519 9.08421L10.6869 8.52951L10.6524 8.58131L10.6245 8.637L11.519 9.08421ZM11.9673 8.9497L12.4576 8.07813L12.4363 8.06618L12.4145 8.05527L11.9673 8.9497ZM12.6847 9.35323L13.2394 8.52118L13.2079 8.5002L13.175 8.48166L12.6847 9.35323ZM12.8192 9.8016L11.9248 9.35439L11.9248 9.35439L12.8192 9.8016ZM12.3709 9.93611L11.8806 10.8077L11.9018 10.8196L11.9236 10.8305L12.3709 9.93611ZM11.6535 9.53258L12.1437 8.661L12.1225 8.64905L12.1007 8.63815L11.6535 9.53258ZM12.351 9.63891C12.2881 9.73334 12.1887 9.82362 12.0459 9.87463C11.8842 9.93238 11.6895 9.92885 11.5201 9.84413L12.4145 8.05527C11.6578 7.6769 10.9702 8.10456 10.6869 8.52951L12.351 9.63891ZM11.4771 9.82128L12.1945 10.2248L13.175 8.48166L12.4576 8.07813L11.4771 9.82128ZM12.13 10.1853C12.0356 10.1223 11.9453 10.023 11.8943 9.88012C11.8365 9.71843 11.8401 9.52382 11.9248 9.35439L13.7137 10.2488C14.092 9.49206 13.6644 8.80448 13.2394 8.52118L12.13 10.1853ZM11.9248 9.35439C11.9703 9.26342 12.0212 9.20418 12.0519 9.17243C12.0851 9.13811 12.1173 9.11256 12.1468 9.09285C12.1759 9.07347 12.2162 9.05056 12.2699 9.03025C12.3177 9.01216 12.4158 8.98095 12.5502 8.98095V10.9809C12.8762 10.9809 13.1287 10.8419 13.2562 10.757C13.3951 10.6643 13.5879 10.5003 13.7137 10.2488L11.9248 9.35439ZM12.5502 8.98095C12.5293 8.98095 12.595 8.97908 12.6735 8.99476C12.7513 9.01033 12.8025 9.0339 12.8181 9.04168L11.9236 10.8305C12.0289 10.8832 12.1473 10.9291 12.2812 10.9559C12.4157 10.9828 12.5262 10.9809 12.5502 10.9809V8.98095ZM12.8611 9.06453L12.1437 8.661L11.1632 10.4042L11.8806 10.8077L12.8611 9.06453ZM12.1007 8.63815C12.2309 8.70329 12.3833 8.84485 12.4469 9.0673C12.5065 9.27618 12.4566 9.44502 12.4134 9.53143L10.6245 8.637C10.4917 8.90275 10.4193 9.25093 10.5238 9.61674C10.6322 9.99612 10.8966 10.2722 11.2063 10.427L12.1007 8.63815Z" fill="#3F5A5E" mask="url(#path-28-inside-13_1_136)"/>
</svg>
