<?xml version="1.0" encoding="UTF-8"?>
<svg width="21px" height="25px" viewBox="0 0 21 25" version="1.1" xmlns="http://www.w3.org/2000/svg" xmlns:xlink="http://www.w3.org/1999/xlink">
    <!-- Generator: Sketch 61.2 (89653) - https://sketch.com -->
    <title>Group 18</title>
    <desc>Created with Sketch.</desc>
    <defs>
        <polygon id="path-1" points="-1.7408297e-12 0.0355620155 20.9999701 0.0355620155 20.9999701 24.9999516 -1.7408297e-12 24.9999516"></polygon>
    </defs>
    <g id="Mobile" stroke="none" stroke-width="1" fill="none" fill-rule="evenodd">
        <g id="Meu-Perfil-03---Alertas" transform="translate(-269.000000, -527.000000)">
            <g id="Group" transform="translate(16.000000, 306.000000)">
                <g id="Group-35-Copy-3">
                    <g id="Group-Copy-3" transform="translate(19.000000, 193.000000)">
                        <g id="Group-6" transform="translate(234.000000, 28.000000)">
                            <g id="Group-18">
                                <path d="M10.4959194,21.7328488 C10.960109,21.7328488 11.3378104,21.3651163 11.3378104,20.9128876 L11.3378104,7.40939922 C11.3378104,6.95717054 10.960109,6.58914729 10.4959194,6.58914729 C10.0317299,6.58914729 9.65402844,6.95717054 9.65402844,7.40939922 L9.65402844,20.9128876 C9.65402844,21.3651163 10.0317299,21.7328488 10.4959194,21.7328488" id="Fill-1" fill="#37474F"></path>
                                <path d="M6.31582464,21.7328488 C6.78001422,21.7328488 7.15771564,21.3651163 7.15771564,20.9128876 L7.15771564,7.40939922 C7.15771564,6.95717054 6.78001422,6.58914729 6.31582464,6.58914729 C5.85153555,6.58914729 5.47393365,6.95717054 5.47393365,7.40939922 L5.47393365,20.9128876 C5.47393365,21.3651163 5.85153555,21.7328488 6.31582464,21.7328488" id="Fill-3" fill="#37474F"></path>
                                <path d="M14.7755403,21.7328488 C15.2398294,21.7328488 15.6174313,21.3651163 15.6174313,20.9128876 L15.6174313,7.40939922 C15.6174313,6.95717054 15.2398294,6.58914729 14.7755403,6.58914729 C14.3113507,6.58914729 13.9336493,6.95717054 13.9336493,7.40939922 L13.9336493,20.9128876 C13.9336493,21.3651163 14.3113507,21.7328488 14.7755403,21.7328488" id="Fill-5" fill="#37474F"></path>
                                <g id="Group-9">
                                    <mask id="mask-2" fill="white">
                                        <use xlink:href="#path-1"></use>
                                    </mask>
                                    <g id="Clip-8"></g>
                                    <path d="M17.2356953,22.5173934 L17.2351976,22.526405 C17.2300223,22.7769864 17.1419417,23.3598353 16.4360033,23.3598353 L4.56403649,23.3598353 C3.86884692,23.3598353 3.77300332,22.7669089 3.76384692,22.5088663 L2.97908389,4.1308624 L18.0203588,4.1308624 L17.2356953,22.5173934 Z M7.56524502,1.83037791 C7.67293223,1.72349806 7.80122133,1.67562984 7.98046777,1.67562984 L12.1790744,1.67562984 C12.3590175,1.67562984 12.4867095,1.72349806 12.5943967,1.8306686 C12.7283588,1.96409884 12.8407237,2.19811047 12.9159654,2.49074612 L7.24417393,2.49074612 C7.31941564,2.19811047 7.43178057,1.96380814 7.56524502,1.83037791 L7.56524502,1.83037791 Z M20.1580791,2.49074612 L14.6336858,2.49074612 C14.5368469,1.89607558 14.3106242,1.19578488 13.8021455,0.686870155 C13.368809,0.254796512 12.8232071,0.0355135659 12.1790744,0.0355135659 L7.98046777,0.0355135659 C7.3364346,0.0355135659 6.7908327,0.254796512 6.35749621,0.687160853 C5.84901754,1.19578488 5.62269526,1.89607558 5.52595592,2.49074612 L0.841861137,2.49074612 C0.377671564,2.49074612 -2.98578197e-05,2.85847868 -2.98578197e-05,3.31070736 C-2.98578197e-05,3.76293605 0.377671564,4.1308624 0.841861137,4.1308624 L1.29370948,4.1308624 L2.08096066,22.5605136 C2.10265735,23.5412306 2.7817237,24.9999516 4.56403649,24.9999516 L16.4360033,24.9999516 C18.2193114,24.9999516 18.8972829,23.5462694 18.9178848,22.5772771 L19.7062308,4.1308624 L20.1580791,4.1308624 C20.6222687,4.1308624 20.9999701,3.76293605 20.9999701,3.31070736 C20.9999701,2.85847868 20.6222687,2.49074612 20.1580791,2.49074612 L20.1580791,2.49074612 Z" id="Fill-7" fill="#37474F" mask="url(#mask-2)"></path>
                                </g>
                            </g>
                        </g>
                    </g>
                </g>
            </g>
        </g>
    </g>
</svg>