<?xml version="1.0" encoding="UTF-8"?>
<svg width="50px" height="50px" viewBox="0 0 50 50" version="1.1" xmlns="http://www.w3.org/2000/svg" xmlns:xlink="http://www.w3.org/1999/xlink">
    <!-- Generator: Sketch 52.6 (67491) - http://www.bohemiancoding.com/sketch -->
    <title>twitter</title>
    <desc>Created with Sketch.</desc>
    <g id="Alterações_05_11_2019_loading/share/nãoencontrado/labes" stroke="none" stroke-width="1" fill="none" fill-rule="evenodd">
        <g id="Share" transform="translate(-755.000000, -291.000000)">
            <g id="Group-7" transform="translate(519.000000, 232.000000)">
                <g id="Group-4" transform="translate(20.000000, 20.000000)">
                    <g id="Group-8" transform="translate(216.000000, 39.000000)">
                        <g id="twitter">
                            <circle id="Oval" fill="#55ACEE" cx="24.8225664" cy="24.8221239" r="24.8221239"></circle>
                            <path d="M40.0269912,17.8389381 C38.9632743,18.3106195 37.8190265,18.629646 36.6190265,18.7721239 C37.8442478,18.0380531 38.7845133,16.8765487 39.2283186,15.4902655 C38.0818584,16.170354 36.8115044,16.6637168 35.4606195,16.929646 C34.3783186,15.7769912 32.8362832,15.0566372 31.1287611,15.0566372 C27.8526549,15.0566372 25.1955752,17.7137168 25.1955752,20.989823 C25.1955752,21.4548673 25.2482301,21.9075221 25.35,22.3420354 C20.4190265,22.0946903 16.0469027,19.7327434 13.120354,16.1420354 C12.6097345,17.0181416 12.3168142,18.0380531 12.3168142,19.1252212 C12.3168142,21.1831858 13.3650442,23 14.9561947,24.0637168 C13.9840708,24.0331858 13.0685841,23.7663717 12.2690265,23.3207965 C12.2685841,23.3460177 12.2685841,23.3712389 12.2685841,23.3960177 C12.2685841,26.2707965 14.3146018,28.6685841 17.0283186,29.2132743 C16.5309735,29.3495575 16.0057522,29.4216814 15.4654867,29.4216814 C15.0823009,29.4216814 14.7110619,29.3849558 14.349115,29.3159292 C15.1039823,31.6725664 17.2946903,33.3880531 19.8915929,33.4362832 C17.8606195,35.0278761 15.3026549,35.9761062 12.5221239,35.9761062 C12.0442478,35.9761062 11.5707965,35.9482301 11.1075221,35.8929204 C13.7318584,37.5769912 16.8513274,38.5588496 20.2017699,38.5588496 C31.1150442,38.5588496 37.0831858,29.5181416 37.0831858,21.6769912 C37.0831858,21.4199115 37.0774336,21.1637168 37.0659292,20.9097345 C38.2261062,20.0734513 39.2318584,19.0287611 40.0269912,17.8389381 Z" id="Path" fill="#F1F2F2"></path>
                        </g>
                    </g>
                </g>
            </g>
        </g>
    </g>
</svg>