<?xml version="1.0" encoding="UTF-8"?>
<svg width="23px" height="23px" viewBox="0 0 23 23" version="1.1" xmlns="http://www.w3.org/2000/svg" xmlns:xlink="http://www.w3.org/1999/xlink">
    <!-- Generator: Sketch 61.2 (89653) - https://sketch.com -->
    <title>WhatsApp</title>
    <desc>Created with Sketch.</desc>
    <g id="Desktop" stroke="none" stroke-width="1" fill="none" fill-rule="evenodd">
        <g id="Meu-Perfil-09---Remover-Favorito" transform="translate(-1297.000000, -316.000000)" fill="#EE6900" fill-rule="nonzero">
            <path d="M1320,327.203811 C1320,333.391578 1314.94537,338.407622 1308.70904,338.407622 C1306.72926,338.407622 1304.86932,337.901622 1303.25114,337.013567 L1297,339 L1299.03806,332.988822 C1298.00996,331.300622 1297.41783,329.320578 1297.41783,327.203811 C1297.41783,321.016044 1302.47298,316 1308.70904,316 C1314.94588,316 1320,321.016044 1320,327.203811 Z M1308.70904,317.784289 C1303.47424,317.784289 1299.21618,322.0099 1299.21618,327.203811 C1299.21618,329.264867 1299.88803,331.173611 1301.02449,332.726367 L1299.83846,336.224667 L1303.48651,335.065211 C1304.98534,336.049356 1306.78088,336.623333 1308.7093,336.623333 C1313.94333,336.623333 1318.20217,332.398233 1318.20217,327.204322 C1318.20217,322.010411 1313.94359,317.784289 1308.70904,317.784289 Z M1314.41074,329.784156 C1314.34098,329.669922 1314.15672,329.600922 1313.88021,329.463689 C1313.60319,329.326456 1312.2421,328.661756 1311.9891,328.570522 C1311.73533,328.479033 1311.55031,328.433033 1311.36606,328.707756 C1311.1818,328.982733 1310.65127,329.600922 1310.4895,329.784156 C1310.32799,329.9679 1310.16673,329.9909 1309.88971,329.853411 C1309.6132,329.716178 1308.72157,329.425867 1307.66433,328.490533 C1306.8417,327.762711 1306.28612,326.864178 1306.12461,326.588944 C1305.96336,326.314222 1306.10774,326.165744 1306.246,326.029022 C1306.37071,325.905844 1306.52302,325.7083 1306.66128,325.548067 C1306.80004,325.387578 1306.84604,325.273344 1306.93779,325.089856 C1307.03056,324.906622 1306.9843,324.746389 1306.91479,324.608644 C1306.84579,324.471411 1306.29174,323.120033 1306.06123,322.570078 C1305.83072,322.020633 1305.60047,322.112122 1305.4387,322.112122 C1305.27744,322.112122 1305.09268,322.089122 1304.90817,322.089122 C1304.72366,322.089122 1304.42363,322.157867 1304.16987,322.432589 C1303.91636,322.707567 1303.20157,323.372011 1303.20157,324.723133 C1303.20157,326.074511 1304.19287,327.380144 1304.33163,327.563122 C1304.46989,327.7461 1306.24574,330.609344 1309.05941,331.709 C1311.87333,332.808144 1311.87333,332.441422 1312.38087,332.395422 C1312.88789,332.349678 1314.01796,331.731233 1314.24949,331.0903 C1314.47949,330.448344 1314.47949,329.898644 1314.41074,329.784156 Z" id="WhatsApp"></path>
        </g>
    </g>
</svg>