<?xml version="1.0" encoding="UTF-8"?>
<svg width="25px" height="26px" viewBox="0 0 25 26" version="1.1" xmlns="http://www.w3.org/2000/svg" xmlns:xlink="http://www.w3.org/1999/xlink">
    <!-- Generator: Sketch 61.2 (89653) - https://sketch.com -->
    <title>WhatsApp</title>
    <desc>Created with Sketch.</desc>
    <g id="Desktop" stroke="none" stroke-width="1" fill="none" fill-rule="evenodd">
        <g id="Home-Barra-aberta" transform="translate(-260.000000, -645.000000)" fill="#FFFFFF" fill-rule="nonzero">
            <g id="Group-13" transform="translate(200.000000, 616.000000)">
                <g id="Group-7" transform="translate(60.000000, 18.000000)">
                    <path d="M25,23.6651778 C25,30.6600444 19.5058333,36.3303556 12.7272222,36.3303556 C10.5752778,36.3303556 8.55361111,35.7583556 6.79472222,34.7544667 L0,37 L2.21527778,30.2047556 C1.09777778,28.2963556 0.454166667,26.0580444 0.454166667,23.6651778 C0.454166667,16.6703111 5.94888889,11 12.7272222,11 C19.5063889,11 25,16.6703111 25,23.6651778 Z M12.4998587,13 C6.70975731,13 2,17.710315 2,23.5 C2,25.7974714 2.74312519,27.9251607 4.0001346,29.656027 L2.68828826,33.5556038 L6.72332521,32.2631515 C8.381153,33.3601834 10.3671544,34 12.5001413,34 C18.2893947,34 23,29.2902548 23,23.5005697 C23,17.7108847 18.2896774,13 12.4998587,13 Z M18.9573209,25.8775005 C18.8828977,25.7457133 18.6863443,25.6661104 18.3913777,25.5077889 C18.095866,25.3494674 16.6439329,24.5826254 16.3740467,24.4773726 C16.1033427,24.371825 15.9059714,24.3187563 15.7094179,24.6356941 C15.5128644,24.9529267 14.9469213,25.6661104 14.7743577,25.8775005 C14.6020667,26.0894803 14.4300484,26.1160146 14.1345366,25.9573983 C13.8395701,25.7990768 12.8884258,25.4641547 11.7606287,24.3850921 C10.8830897,23.5454282 10.2904305,22.5088206 10.1181395,22.1912932 C9.94612117,21.8743554 10.1001471,21.7030616 10.2476304,21.5453298 C10.3806652,21.4032237 10.5431421,21.1753234 10.6906254,20.9904676 C10.8386539,20.805317 10.8877241,20.6735298 10.9855919,20.4618449 C11.0845502,20.2504547 11.0352073,20.065599 10.9610568,19.9066878 C10.8874515,19.7483664 10.296428,18.1893274 10.0505317,17.5548622 C9.80463539,16.9209867 9.5590117,17.0265343 9.38644811,17.0265343 C9.21442975,17.0265343 9.01733105,17 8.82050497,17 C8.62367888,17 8.30363204,17.0793081 8.03292802,17.3962459 C7.76249661,17.7134785 7,18.4800257 7,20.0387698 C7,21.5978088 8.05746313,23.1040739 8.20549161,23.3151692 C8.35297487,23.5262645 10.2473578,26.8294931 13.2488192,28.0981286 C16.2505533,29.3661745 16.2505533,28.9430994 16.7919614,28.8900308 C17.3328242,28.837257 18.5383158,28.1237785 18.7853025,27.3843553 C19.0306536,26.6437528 19.0306536,26.0095825 18.9573209,25.8775005 Z" id="WhatsApp"></path>
                </g>
            </g>
        </g>
    </g>
</svg>