<svg width="22" height="22" viewBox="0 0 22 22" fill="none" xmlns="http://www.w3.org/2000/svg">
<path d="M0 22L1.57974 16.1362C0.305732 13.8519 -0.0990255 11.1863 0.439721 8.62867C0.978467 6.07096 2.4246 3.79268 4.51273 2.21187C6.60087 0.631118 9.19096 -0.146154 11.8077 0.0227051C14.4245 0.191564 16.8923 1.29527 18.7585 3.13126C20.6247 4.96725 21.7639 7.41237 21.9672 10.018C22.1704 12.6235 21.4242 15.2148 19.8652 17.3163C18.3063 19.4177 16.0392 20.8883 13.4801 21.4583C10.921 22.0283 8.24154 21.6594 5.93333 20.4194L0 22ZM6.21939 18.2251L6.58634 18.442C8.25822 19.4297 10.211 19.8384 12.1403 19.6045C14.0696 19.3705 15.867 18.5071 17.2526 17.1487C18.6381 15.7903 19.5338 14.0133 19.8002 12.0946C20.0666 10.1759 19.6887 8.22321 18.7253 6.5409C17.762 4.8586 16.2673 3.54114 14.4742 2.79383C12.6812 2.04657 10.6905 1.91141 8.81226 2.40949C6.93411 2.90752 5.27401 4.01085 4.09066 5.54743C2.90732 7.08402 2.26719 8.96754 2.27007 10.9045C2.26853 12.5107 2.71417 14.0857 3.55749 15.4543L3.78762 15.8324L2.90448 19.1053L6.21939 18.2251Z" fill="white"/>
<path fill-rule="evenodd" clip-rule="evenodd" d="M15.1253 12.4106C14.9102 12.2377 14.6583 12.116 14.3888 12.0548C14.1194 11.9935 13.8395 11.9944 13.5704 12.0573C13.1662 12.2247 12.905 12.8569 12.6438 13.1731C12.5887 13.2488 12.5078 13.302 12.4161 13.3225C12.3245 13.3431 12.2286 13.3296 12.1462 13.2846C10.6662 12.7069 9.42567 11.6474 8.62606 10.2783C8.55782 10.1929 8.52555 10.0844 8.53598 9.97573C8.54647 9.86703 8.59879 9.76664 8.682 9.69563C8.97335 9.40818 9.18727 9.05217 9.30394 8.66048C9.32987 8.22847 9.23055 7.79813 9.01788 7.42076C8.85345 6.89176 8.5405 6.42071 8.11608 6.06331C7.89715 5.96517 7.65438 5.93228 7.41713 5.96858C7.17988 6.00487 6.95822 6.10877 6.77888 6.26784C6.46757 6.53551 6.22051 6.86938 6.05584 7.24484C5.89111 7.62034 5.81306 8.02782 5.82734 8.43732C5.82826 8.6673 5.85755 8.89632 5.91439 9.11919C6.05882 9.65467 6.28092 10.1663 6.57366 10.6378C6.78484 10.999 7.01531 11.3487 7.264 11.6854C8.07221 12.7912 9.0882 13.7301 10.2555 14.4499C10.8413 14.8158 11.4673 15.1132 12.1213 15.3364C12.8007 15.6432 13.5508 15.7611 14.2919 15.6772C14.7142 15.6136 15.1142 15.4474 15.457 15.1934C15.7997 14.9394 16.0745 14.6053 16.2572 14.2206C16.3646 13.9882 16.3972 13.7284 16.3505 13.4768C16.2386 12.9623 15.5482 12.6586 15.1253 12.4106Z" fill="white"/>
</svg>
