<svg width="19" height="20" viewBox="0 0 19 20" fill="none" xmlns="http://www.w3.org/2000/svg">
<path fill-rule="evenodd" clip-rule="evenodd" d="M18.5714 9.64286C18.5714 14.9685 14.4141 19.2857 9.28571 19.2857C7.54621 19.2857 5.91842 18.789 4.52669 17.9247L4.54999 17.9488L0.758086 18.1352L1.0767 14.3521L1.32415 14.6084C0.483508 13.158 0 11.4591 0 9.64286C0 4.31725 4.15736 0 9.28571 0C14.4141 0 18.5714 4.31725 18.5714 9.64286Z" fill="white"/>
<path fill-rule="evenodd" clip-rule="evenodd" d="M7.27123 5.18372L7.99759 7.17639C7.99759 7.17639 8.07232 7.74253 7.34502 8.27495C6.61771 8.80736 9.88067 11.775 10.5461 11.5288C11.2116 11.2826 11.5 10.1577 11.5 10.1577L13.5694 11.3057C13.5694 11.3057 13.7153 13.728 11.542 13.5634C9.36866 13.3988 7.54018 11.8559 7.54018 11.8559C7.54018 11.8559 4.38738 8.92541 5.10672 6.58827C5.82605 4.25112 7.27123 5.18372 7.27123 5.18372Z" fill="#3F5A5E"/>
</svg>
