<?xml version="1.0" encoding="UTF-8"?>
<svg width="50px" height="51px" viewBox="0 0 50 51" version="1.1" xmlns="http://www.w3.org/2000/svg" xmlns:xlink="http://www.w3.org/1999/xlink">
    <!-- Generator: Sketch 52.6 (67491) - http://www.bohemiancoding.com/sketch -->
    <title>whatsapp</title>
    <desc>Created with Sketch.</desc>
    <g id="Alterações_05_11_2019_loading/share/nãoencontrado/labes" stroke="none" stroke-width="1" fill="none" fill-rule="evenodd">
        <g id="Share" transform="translate(-550.000000, -291.000000)" fill="#7AD06D">
            <g id="Group-7" transform="translate(519.000000, 232.000000)">
                <g id="Group-4" transform="translate(20.000000, 20.000000)">
                    <g id="Group-18" transform="translate(0.000000, 39.000000)">
                        <g id="whatsapp" transform="translate(11.000000, 0.000000)">
                            <path d="M23.7895433,0.0290865385 C10.5168269,0.661057692 0.0427884615,11.7146635 0.0830528846,25.0024038 C0.0953125,29.0495192 1.07235577,32.8694712 2.79591346,36.2447115 L0.149639423,49.090024 C0.00649038462,49.7848558 0.633173077,50.3932692 1.3234375,50.2298077 L13.9103365,47.2477163 C17.1441106,48.8585337 20.7763221,49.7889423 24.6204327,49.8475962 C38.1864183,50.0548077 49.4980769,39.2830529 49.9209135,25.7221154 C50.3741587,11.1856971 38.3768029,-0.665625 23.7895433,0.0290865385 Z M38.8084135,38.725601 C35.1222356,42.4117788 30.2211538,44.4418269 25.0081731,44.4418269 C21.9557692,44.4418269 19.0334135,43.7569712 16.3219952,42.4063702 L14.5691106,41.5331731 L6.85204327,43.3615385 L8.47644231,35.4760817 L7.61286058,33.784976 C6.20528846,31.0283654 5.49158654,28.047476 5.49158654,24.9252404 C5.49158654,19.7121394 7.52163462,14.8111779 11.2078125,11.1248798 C14.8610577,7.47163462 19.8420673,5.40853365 25.0085337,5.40853365 C30.2215144,5.40865385 35.1223558,7.43870192 38.8085337,11.1247596 C42.4947115,14.8109375 44.5247596,19.711899 44.5248798,24.9248798 C44.5247596,30.0914663 42.4616587,35.072476 38.8084135,38.725601 Z" id="Shape" fill-rule="nonzero"></path>
                            <path d="M37.1048077,30.330649 L32.2768029,28.944351 C31.6420673,28.7621394 30.9585337,28.9421875 30.4960337,29.4134615 L29.3153846,30.6163462 C28.8175481,31.1235577 28.0621394,31.2865385 27.4032452,31.0199519 C25.119351,30.0956731 20.315024,25.8240385 19.088101,23.6873798 C18.7341346,23.0710337 18.7926683,22.3004808 19.2272837,21.738101 L20.2580529,20.4045673 C20.661899,19.8820913 20.7471154,19.1804087 20.4800481,18.5764423 L18.4487981,13.9823317 C17.9622596,12.8819712 16.5561298,12.5616587 15.6375,13.3385817 C14.290024,14.4782452 12.691226,16.2100962 12.496875,18.128726 C12.1542067,21.5114183 13.6049279,25.775601 19.0908654,30.8957933 C25.4286058,36.8110577 30.5038462,37.5925481 33.8082933,36.7920673 C35.6825721,36.338101 37.1804087,34.518149 38.1257212,33.0280048 C38.7701923,32.0120192 38.2612981,30.6627404 37.1048077,30.330649 Z" id="Path"></path>
                        </g>
                    </g>
                </g>
            </g>
        </g>
    </g>
</svg>