<?xml version="1.0" encoding="UTF-8"?>
<svg width="31px" height="31px" viewBox="0 0 31 31" version="1.1" xmlns="http://www.w3.org/2000/svg" xmlns:xlink="http://www.w3.org/1999/xlink">
    <!-- Generator: Sketch 52.6 (67491) - http://www.bohemiancoding.com/sketch -->
    <title>whatsapp-icon copy 3</title>
    <desc>Created with Sketch.</desc>
    <g id="Mobile" stroke="none" stroke-width="1" fill="none" fill-rule="evenodd">
        <g id="Menu" transform="translate(-24.000000, -480.000000)">
            <g id="Group-4" transform="translate(25.000000, 474.000000)">
                <g id="whatsapp-icon-copy-3" transform="translate(0.000000, 7.000000)">
                    <g id="balloon-tip" fill="#E7FFEB" stroke="#2CB743" stroke-width="1.79999992">
                        <path d="M6.48263504,26.3099223 L1.37729743,26.8826613 L2.33282556,21.7496009 C1.09671619,19.6101247 0.388392857,17.1208405 0.388392857,14.4642857 C0.388392857,6.4758809 6.79331889,0 14.6941964,0 C22.595074,0 29,6.4758809 29,14.4642857 C29,22.4526905 22.595074,28.9285714 14.6941964,28.9285714 C11.638612,28.9285714 8.80677356,27.9599886 6.48263504,26.3099223 Z" id="Combined-Shape"></path>
                    </g>
                    <path d="M11.1673778,9.50635413 L12.2864258,12.4953521 C12.2864258,12.4953521 12.4015602,13.3445667 11.2810589,14.1431912 C10.1605576,14.9418158 15.1875537,19.3932143 16.2127826,19.0239072 C17.2380114,18.6546 17.682401,16.9673356 17.682401,16.9673356 L20.8704768,18.6893152 C20.8704768,18.6893152 21.0952551,22.3227254 17.7469926,22.075881 C14.39873,21.8290366 11.5817324,19.5146304 11.5817324,19.5146304 C11.5817324,19.5146304 6.72445028,15.1188808 7.83267932,11.6131668 C8.94090825,8.10745282 11.1673778,9.50635413 11.1673778,9.50635413 Z" id="phone" fill="#2CB743"></path>
                </g>
            </g>
        </g>
    </g>
</svg>