<?xml version="1.0" standalone="no"?>
<!DOCTYPE svg PUBLIC "-//W3C//DTD SVG 20010904//EN"
 "http://www.w3.org/TR/2001/REC-SVG-20010904/DTD/svg10.dtd">
<svg version="1.0" xmlns="http://www.w3.org/2000/svg"
 width="260.000000pt" height="260.000000pt" viewBox="0 0 260.000000 260.000000"
 preserveAspectRatio="xMidYMid meet">
<metadata>
Created by potrace 1.11, written by Peter Selinger 2001-2013
</metadata>
<g transform="translate(0.000000,260.000000) scale(0.100000,-0.100000)"
fill="#000000" stroke="none">
<path d="M1042 2573 c-13 -33 -55 -146 -242 -653 -76 -206 -238 -645 -360
-975 -122 -330 -237 -640 -255 -690 -18 -50 -46 -127 -63 -172 l-31 -83 342 0
342 0 64 193 63 192 403 0 403 0 23 -70 c12 -38 24 -74 25 -80 1 -5 18 -59 37
-120 l35 -110 341 -3 341 -2 -29 77 c-16 43 -39 105 -51 138 -21 59 -36 98
-65 173 -8 20 -55 150 -105 287 -50 138 -94 259 -99 270 -5 11 -32 85 -61 165
-28 80 -57 159 -63 175 -7 17 -118 318 -247 670 l-235 640 -251 3 -251 2 -11
-27z m295 -1023 c43 -136 168 -525 183 -572 l19 -58 -230 0 c-215 0 -229 1
-221 18 5 9 58 162 118 339 60 177 111 319 114 315 3 -4 11 -23 17 -42z"/>
</g>
</svg>
