<?xml version="1.0" encoding="UTF-8"?>
<svg width="60px" height="22px" viewBox="0 0 60 22" version="1.1" xmlns="http://www.w3.org/2000/svg" xmlns:xlink="http://www.w3.org/1999/xlink">
    <!-- Generator: Sketch 52.6 (67491) - http://www.bohemiancoding.com/sketch -->
    <title>Group 6</title>
    <desc>Created with Sketch.</desc>
    <g id="Symbols" stroke="none" stroke-width="1" fill="none" fill-rule="evenodd">
        <g id="Menu-Mobile-/-01" transform="translate(-30.000000, -25.000000)" fill="#EE6900">
            <g id="menu-interno">
                <g id="Page-1" transform="translate(30.000000, 25.000000)">
                    <g id="Group-6">
                        <path d="M9.90583333,8.184 L11.6983333,13.9429231 L7.99583333,13.9429231 L9.90583333,8.184 Z M31.4525,6.47730769 L31.4525,20.0572308 L26.8875,13.2448462 L31.4525,6.47730769 Z M36.6758333,4.75792308 L39.6275,4.75792308 C41.0633333,4.75792308 41.895,5.81815385 41.895,6.93930769 C41.895,8.06215385 41.0633333,9.12407692 39.6275,9.12407692 L36.6758333,9.12407692 L36.6758333,4.75792308 Z M50.61,10.4559231 C50.9091667,9.75784615 51.5666667,9.18415385 52.7308333,9.18415385 C53.8941667,9.18415385 54.55,9.75784615 54.85,10.4559231 C55.0575,10.8815385 55.1183333,11.3359231 55.1183333,11.7302308 L50.3408333,11.7302308 C50.3408333,11.3359231 50.4058333,10.8815385 50.61,10.4559231 Z M6.53333333,18.3649231 L13.0708333,18.3649231 L14.0525,21.5777692 L21.7541667,21.5777692 L24.1408333,17.4553077 L26.59,21.5777692 L36.6758333,21.5777692 L36.6758333,13.8803077 L39.8666667,13.8803077 C42.5533333,13.8803077 44.5325,12.7777692 45.7366667,11.1768462 C45.6075,11.8723846 45.5383333,12.6203846 45.5383333,13.4276154 C45.5383333,20.4591538 49.6275,21.7605385 53.1766667,21.7605385 C54.9916667,21.7605385 56.2941667,21.4254615 57.4083333,20.7874615 C57.4083333,20.7874615 58.3616667,20.251 59.3225,19.0883846 L58.27,18.0205385 L56.49,16.2156923 C55.625,17.0931538 54.8791667,17.5763077 53.1766667,17.5763077 C51.3566667,17.5763077 50.3408333,16.3663077 50.3408333,15.0319231 L59.82,15.0319231 C60.325,11.4916154 59.0983333,8.88884615 59.0983333,8.88884615 C57.99,6.61523077 55.8233333,5.09130769 52.7308333,5.09130769 C50.335,5.09130769 48.335,6.06438462 47.0575,7.88869231 C47.0991667,7.57646154 47.1175,7.25830769 47.1175,6.93930769 C47.1175,3.39561538 44.5825,0 39.8666667,0 L31.4525,0 L31.4525,5.27323077 L26.3825,5.27323077 L24.1408333,9.21376923 L21.9641667,5.27323077 L16.0833333,5.27238462 L21.4558333,13.2448462 L18.2483333,18.0383077 L11.7866667,0 L7.75916667,0 L0,21.5777692 L5.49,21.5777692 L6.53333333,18.3649231 Z" id="Fill-4"></path>
                    </g>
                </g>
            </g>
        </g>
    </g>
</svg>