<svg width="134" height="58" viewBox="0 0 134 58" fill="none" xmlns="http://www.w3.org/2000/svg">
<g clip-path="url(#clip0_4074_1069)">
<path d="M134 29.148C133.834 29.1316 133.684 29.1151 133.518 29.1151C126.025 29.1151 118.531 29.1151 111.021 29.1151C110.257 29.1151 110.373 29.1974 110.44 29.7402C110.589 31.1384 111.254 32.2569 112.317 33.1452C113.264 33.9348 114.378 34.3789 115.591 34.5927C116.671 34.7901 117.751 34.8066 118.847 34.7079C119.645 34.6421 120.426 34.5434 121.206 34.346C122.652 33.9841 123.898 33.2439 125.011 32.2734C125.177 32.1253 125.36 31.9938 125.56 31.8293C127.919 33.9512 130.245 36.0567 132.604 38.1622C132.521 38.2445 132.471 38.3267 132.405 38.3925C130.81 39.8071 129.099 41.0408 127.155 41.9291C125.726 42.5871 124.23 43.0476 122.685 43.2944C121.788 43.4424 120.874 43.574 119.96 43.6069C118.448 43.6727 116.936 43.7385 115.424 43.6727C113.082 43.5576 110.756 43.1792 108.546 42.3568C105.522 41.2382 103.079 39.4124 101.385 36.6489C100.321 34.9382 99.6734 33.063 99.2746 31.1055C98.9756 29.658 98.826 28.194 98.7928 26.7135C98.7928 26.5984 98.7596 26.4833 98.743 26.3188C98.5602 26.3681 98.4273 26.4175 98.2944 26.4668C96.9818 26.9603 95.6526 27.3057 94.2569 27.5031C93.1603 27.6512 92.0637 27.7334 90.9671 27.7334C88.7075 27.7334 86.4479 27.7334 84.1882 27.7334C83.6565 27.7334 83.6565 27.7334 83.6565 28.2598C83.6565 33.0465 83.6565 37.8332 83.6565 42.6364C83.6565 42.8009 83.6565 42.9818 83.6565 43.1957C83.4572 43.2121 83.291 43.2286 83.1249 43.2286C79.9182 43.2286 76.7115 43.2286 73.5214 43.2286C69.1184 43.2286 64.7154 43.2286 60.3291 43.245C59.9802 43.245 59.7808 43.1299 59.598 42.8502C57.8867 40.2677 56.1587 37.7016 54.4307 35.1191C54.3477 34.9875 54.248 34.8724 54.1151 34.6914C53.9821 34.8724 53.8824 35.004 53.7994 35.1356C52.1213 37.7016 50.4431 40.2677 48.7816 42.8173C48.7318 42.8996 48.6819 43.0147 48.5989 43.0805C48.5158 43.1463 48.4161 43.2121 48.2998 43.2286C48.2167 43.2615 48.117 43.2286 48.0173 43.2286C42.7836 43.2286 37.5499 43.2286 32.2996 43.2286C31.6848 43.2286 31.7845 43.2944 31.5851 42.7187C30.9371 40.8763 30.3058 39.034 29.6744 37.1917C29.5249 36.764 29.5249 36.764 29.0929 36.764C24.424 36.764 19.7552 36.764 15.103 36.764C14.671 36.764 14.671 36.764 14.5049 37.1917C13.8237 39.0505 13.1425 40.8928 12.4612 42.7515C12.4114 42.8996 12.3449 43.0476 12.2785 43.2121C8.2078 43.2121 4.13712 43.2121 0.0166016 43.2121C0.0664466 43.0476 0.116292 42.916 0.166137 42.768C1.37903 39.7742 2.59193 36.764 3.80482 33.7703C6.67922 26.6478 9.57023 19.4923 12.4612 12.3369C14.0729 8.37265 15.6679 4.40839 17.2796 0.444123C17.3128 0.361877 17.3461 0.279631 17.3793 0.197384C17.4291 0.0657905 17.5122 0.0164428 17.6617 0.0164428C17.7614 0.0164428 17.8445 0.0164428 17.9442 0.0164428C20.6524 0.0164428 23.3607 0.0164428 26.0855 0.0164428C26.1188 0.0164428 26.1686 0.0164428 26.2018 0.0164428C26.4843 -0.0164557 26.6172 0.115138 26.7335 0.378326C27.2652 1.71071 27.7969 3.0431 28.3452 4.37549C32.4491 14.5247 36.553 24.6738 40.6569 34.8395C40.7067 34.9546 40.7566 35.0698 40.8064 35.1849C40.8563 35.1849 40.8563 35.1849 40.8729 35.1849C40.8895 35.1849 40.9061 35.1849 40.9061 35.1685C40.956 35.1191 41.0058 35.0862 41.039 35.0369C43.2987 32.0431 45.5583 29.0493 47.8512 26.0227C43.6808 20.5451 39.5271 15.0839 35.3069 9.54055C35.5229 9.5241 35.6724 9.5241 35.8219 9.5241C39.1449 9.5241 42.4679 9.5241 45.7909 9.5241C46.6881 9.5241 47.602 9.54055 48.4992 9.5241C48.8315 9.5241 49.0309 9.62279 49.197 9.90243C50.7256 12.3698 52.2708 14.8372 53.7994 17.2881C53.8658 17.4033 53.9489 17.5184 54.0818 17.6994C54.1981 17.5349 54.2812 17.4362 54.3643 17.321C55.9261 14.8865 57.4879 12.4521 59.0497 10.034C59.0996 9.96823 59.1494 9.90243 59.1826 9.83663C59.2989 9.60635 59.4817 9.5241 59.7309 9.54055C59.9469 9.557 60.1629 9.54055 60.3623 9.54055C64.001 9.54055 67.6397 9.54055 71.295 9.54055C71.4944 9.54055 71.6771 9.5241 71.9097 9.50765C71.9097 6.36585 71.9097 3.25694 71.9097 0.115138C72.1257 0.0986889 72.3085 0.0822397 72.4746 0.0822397C76.1133 0.0822397 79.752 0.0822397 83.4073 0.0822397C86.2319 0.0822397 89.0398 0.0822397 91.8644 0.098689C93.7419 0.098689 95.5529 0.427674 97.3307 0.986947C99.69 1.74361 101.784 2.94441 103.528 4.72092C104.891 6.10266 105.904 7.68179 106.552 9.4912C106.602 9.65569 106.668 9.80374 106.751 10.0011C106.868 9.96823 106.967 9.95178 107.05 9.90243C108.629 9.04707 110.29 8.4549 112.052 8.12591C113.048 7.92852 114.029 7.79693 115.042 7.76403C115.391 7.74758 115.723 7.69823 116.072 7.69823C116.455 7.69823 116.837 7.74758 117.219 7.74758C118.465 7.76403 119.678 7.91207 120.891 8.15881C125.277 9.07997 128.849 11.2348 131.325 15.0017C132.538 16.8605 133.286 18.9002 133.668 21.0715C133.801 21.8281 133.9 22.5848 133.9 23.3415C133.9 23.473 133.967 23.6046 134 23.7527C134 25.5128 134 27.3222 134 29.148ZM71.8765 11.169C71.8433 11.1526 71.81 11.1361 71.7768 11.1361C71.6439 11.3006 71.4944 11.4816 71.3614 11.6461C68.188 15.8242 64.9979 20.0023 61.8244 24.1968C61.4257 24.7067 61.0435 25.2331 60.6448 25.743C60.5118 25.9075 60.4786 26.0556 60.6448 26.2365C60.6946 26.2859 60.7444 26.3681 60.7943 26.4175C63.5856 30.1021 66.3603 33.7867 69.1516 37.4713C69.9492 38.5241 70.7467 39.5768 71.5442 40.6296C71.6273 40.7447 71.6771 40.9092 71.8931 40.9257C71.8765 30.9903 71.8765 21.0879 71.8765 11.169ZM83.6399 18.2915C83.8559 18.308 84.0221 18.3409 84.1882 18.3409C85.1685 18.3409 86.1488 18.3573 87.1291 18.3409C88.425 18.3244 89.7376 18.3244 91.0336 18.2751C91.9474 18.2422 92.7782 17.9626 93.5425 17.4855C96.0846 15.9064 96.3006 12.485 93.9745 10.6097C93.0274 9.83663 91.8976 9.47475 90.7013 9.4583C88.4915 9.4254 86.2651 9.44185 84.0553 9.44185C83.939 9.44185 83.8227 9.4583 83.6565 9.47475C83.6399 12.4192 83.6399 15.3307 83.6399 18.2915ZM110.44 22.0584C110.656 22.0584 110.822 22.0584 111.005 22.0584C114.544 22.0584 118.099 22.0584 121.638 22.0584C121.688 22.0584 121.738 22.0584 121.805 22.0584C122.22 22.0584 122.253 22.042 122.237 21.5978C122.22 21.3675 122.203 21.1537 122.154 20.9399C121.771 18.7686 120.442 17.1565 118.216 16.6302C117.335 16.4163 116.438 16.367 115.541 16.4492C114.527 16.5479 113.58 16.7947 112.733 17.3539C111.321 18.2915 110.656 19.6568 110.457 21.2853C110.423 21.532 110.44 21.7623 110.44 22.0584ZM17.9276 27.9637C20.7854 27.9637 23.5601 27.9637 26.3846 27.9637C26.3348 27.7827 26.3015 27.6347 26.2517 27.4867C25.5871 25.5786 24.9059 23.6704 24.2413 21.7459C23.6598 20.101 23.0948 18.4725 22.5133 16.8276C22.4635 16.696 22.397 16.5644 22.3306 16.4328C22.2973 16.4328 22.2641 16.4328 22.2309 16.4492C20.8186 20.2654 19.3897 24.0817 17.9276 27.9637Z" fill="url(#paint0_linear_4074_1069)"/>
<path d="M12.7438 51.3376C12.7438 53.5418 12.7438 55.6802 12.7438 57.8515C12.4115 57.8515 12.1124 57.8515 11.7469 57.8515C11.7469 56.1902 11.7469 54.5452 11.7469 52.9003C11.7136 52.9003 11.6804 52.8839 11.6472 52.8839C11.2318 53.6076 10.8829 54.3643 10.5174 55.1045C10.1352 55.8447 9.76968 56.5685 9.3543 57.391C8.5734 55.8283 7.82572 54.3479 7.0282 52.7852C6.89528 53.1964 6.96174 53.5254 6.94513 53.8379C6.92851 54.1669 6.94513 54.4959 6.94513 54.8249C6.94513 55.1703 6.94513 55.5158 6.94513 55.8447C6.94513 56.1737 6.94513 56.5027 6.94513 56.8317C6.94513 57.1607 6.94513 57.4897 6.94513 57.8351C6.61283 57.9338 6.29714 57.9009 5.96484 57.868C5.96484 55.6967 5.96484 53.5583 5.96484 51.387C6.44668 51.387 6.9119 51.387 7.39373 51.387C8.0251 52.6865 8.67309 53.986 9.3543 55.3842C9.47061 55.1703 9.53707 55.0552 9.58691 54.9236C10.1186 53.8544 10.6337 52.7687 11.1487 51.6831C11.265 51.4528 11.3813 51.3376 11.6638 51.3541C12.0127 51.3541 12.3616 51.3376 12.7438 51.3376Z" fill="#3F5A5E"/>
<path d="M23.3772 54.6446C23.427 56.0263 22.4634 57.5232 20.8517 57.918C18.8081 58.4114 16.8143 56.9474 16.7146 54.8748C16.6315 53.2957 17.4789 51.914 18.9078 51.437C21.4332 50.598 23.4769 52.5226 23.3772 54.6446ZM22.2806 54.5294C22.264 54.3978 22.2474 54.1675 22.1809 53.9372C21.9483 52.9996 21.2172 52.3581 20.2702 52.2265C19.4561 52.1114 18.5422 52.572 18.1269 53.378C17.6949 54.2004 17.6782 55.0558 18.1102 55.8782C18.8413 57.26 20.6856 57.4574 21.6825 56.2895C22.0978 55.796 22.264 55.2367 22.2806 54.5294Z" fill="#3F5A5E"/>
<path d="M39.8427 55.023C39.012 55.023 38.2145 55.023 37.4336 55.023C37.3173 55.3355 37.3006 56.5199 37.4003 56.964C38.58 56.964 39.7597 56.964 40.9726 56.964C40.9726 57.2766 40.9726 57.5562 40.9726 57.8194C40.6569 57.9016 36.7025 57.9181 36.2705 57.8358C36.2705 55.6974 36.2705 53.5426 36.2705 51.3713C37.8157 51.3713 39.3609 51.3713 40.9061 51.3713C40.9892 51.6674 40.9892 51.9306 40.9061 52.2595C39.7264 52.2595 38.5468 52.2595 37.3505 52.2595C37.3505 52.9011 37.3505 53.4768 37.3505 54.1183C38.1812 54.1512 38.9954 54.1183 39.8427 54.1348C39.8427 54.4473 39.8427 54.7105 39.8427 55.023Z" fill="#3F5A5E"/>
<path d="M68.2045 51.3713C68.2045 51.6838 68.2045 51.947 68.2045 52.2595C67.0082 52.2595 65.8285 52.2595 64.6156 52.2595C64.6156 52.8846 64.6156 53.4768 64.6156 54.1183C65.031 54.1183 65.4298 54.1348 65.8285 54.1348C66.2439 54.1348 66.6427 54.1348 67.058 54.1348C67.1743 54.4308 67.1079 54.7105 67.1245 55.023C66.2771 55.0724 65.463 55.023 64.6655 55.0559C64.5658 55.3684 64.5492 56.3883 64.6322 56.964C65.8285 56.9969 67.0248 56.9476 68.2377 56.9969C68.2377 57.3095 68.2377 57.5726 68.2377 57.8358C67.922 57.9181 63.951 57.9345 63.5356 57.8523C63.5356 55.7139 63.5356 53.559 63.5356 51.3877C65.0808 51.3713 66.626 51.3713 68.2045 51.3713Z" fill="#3F5A5E"/>
<path d="M94.6391 56.9636C94.6391 57.2926 94.6391 57.5558 94.6391 57.8026C94.3234 57.9013 90.3524 57.9177 89.9204 57.819C89.9204 55.6806 89.9204 53.5258 89.9204 51.3545C91.4822 51.3545 93.0108 51.3545 94.5726 51.3545C94.5726 51.6505 94.5726 51.9137 94.5726 52.2263C93.3929 52.2263 92.2133 52.2263 91.0668 52.2263C90.9671 52.5553 90.9505 53.6409 91.0336 54.1015C91.4324 54.1015 91.8311 54.1015 92.2465 54.1015C92.6453 54.1015 93.044 54.1015 93.4262 54.1015C93.5425 54.4305 93.5591 54.5621 93.476 54.9897C92.6785 54.9897 91.881 54.9897 91.1001 54.9897C90.9838 55.3023 90.9671 56.4373 91.0668 56.9472C92.2133 56.9637 93.4096 56.9636 94.6391 56.9636Z" fill="#3F5A5E"/>
<path d="M71.627 56.9473C71.8429 56.6677 72.0257 56.421 72.2085 56.1742C72.4577 56.3387 72.6903 56.5032 72.9229 56.6512C73.438 56.9802 74.0029 57.1447 74.6177 57.1118C74.9333 57.0954 75.249 57.0131 75.5149 56.8322C75.8472 56.6019 76.0133 56.2894 75.9469 55.8781C75.897 55.4998 75.6312 55.3024 75.2989 55.2037C74.8835 55.0886 74.4681 55.0228 74.0527 54.9405C73.6872 54.8583 73.3217 54.8254 72.9728 54.7102C71.7599 54.3155 71.411 52.9173 72.2583 51.9632C72.6239 51.5684 73.0891 51.3381 73.6041 51.2724C74.6675 51.1408 75.6976 51.3052 76.6281 51.881C76.7111 51.9303 76.7776 51.9961 76.8773 52.0619C76.6945 52.3251 76.5284 52.5718 76.3456 52.835C76.2127 52.7692 76.113 52.7034 76.0133 52.6541C75.5647 52.3744 75.0829 52.21 74.5678 52.1277C74.1857 52.0784 73.8201 52.0948 73.4712 52.2429C73.222 52.3416 73.0392 52.4896 72.9229 52.7363C72.7235 53.1476 72.8731 53.5917 73.2885 53.7562C73.6374 53.8878 74.0029 53.9371 74.3684 54.0194C74.7506 54.1016 75.1493 54.1674 75.5315 54.2497C75.6312 54.2661 75.7309 54.3155 75.8305 54.3484C77.3924 54.8747 77.2428 56.6184 76.3955 57.3421C76.0632 57.6218 75.6976 57.8027 75.2656 57.9014C73.9198 58.181 72.7235 57.8356 71.627 56.9473Z" fill="#3F5A5E"/>
<path d="M49.6123 56.9146C49.7785 56.6844 49.9612 56.4376 50.1606 56.1744C50.3766 56.3225 50.5926 56.4705 50.792 56.6021C51.3237 56.9475 51.9052 57.1614 52.5532 57.0956C52.8522 57.0627 53.1513 56.9804 53.4171 56.8489C53.7827 56.6679 53.9654 56.3554 53.9322 55.9441C53.899 55.5329 53.6331 55.3026 53.251 55.2039C52.7027 55.0723 52.1378 54.9901 51.5729 54.8749C51.3735 54.8256 51.1575 54.7927 50.9581 54.7269C49.6954 54.3157 49.3465 52.8517 50.2935 51.9141C50.6591 51.5522 51.091 51.3548 51.5895 51.289C52.6528 51.1574 53.683 51.3219 54.6134 51.9141C54.6799 51.9634 54.7463 51.9963 54.846 52.0786C54.6633 52.3418 54.4971 52.5885 54.3143 52.8681C54.115 52.753 53.9654 52.6543 53.7993 52.5721C53.1181 52.2266 52.4202 51.9963 51.6559 52.2102C51.44 52.276 51.2073 52.3911 51.0412 52.5556C50.6092 52.9668 50.7421 53.5919 51.2904 53.8057C51.6227 53.9373 51.9882 53.9867 52.3372 54.0525C52.7193 54.1347 53.1181 54.2005 53.5002 54.2828C53.6331 54.3157 53.7494 54.365 53.8824 54.3979C55.3112 54.9243 55.1949 56.5034 54.5137 57.2272C54.1482 57.6055 53.683 57.8523 53.1679 57.9509C51.8719 58.1977 50.7255 57.8852 49.6954 57.0791C49.6788 57.0133 49.6621 56.9804 49.6123 56.9146Z" fill="#3F5A5E"/>
<path d="M132.023 52.0943C131.857 52.3246 131.69 52.5714 131.508 52.851C131.325 52.7523 131.175 52.6536 131.026 52.5714C130.361 52.2095 129.647 51.9956 128.883 52.193C128.667 52.2424 128.451 52.3575 128.301 52.4891C127.836 52.9004 127.935 53.5583 128.534 53.7886C128.849 53.9038 129.198 53.9531 129.531 54.0189C129.929 54.1011 130.345 54.1669 130.743 54.2492C130.86 54.2656 130.976 54.315 131.076 54.3643C132.289 54.8414 132.588 56.3053 131.674 57.2429C131.308 57.6213 130.86 57.8351 130.345 57.9174C129.049 58.1477 127.902 57.8516 126.889 57.0291C126.872 57.0127 126.856 56.9798 126.806 56.914C126.972 56.6837 127.155 56.4369 127.354 56.1737C127.62 56.3547 127.836 56.5027 128.068 56.6508C128.583 56.9798 129.148 57.1607 129.763 57.0949C130.062 57.062 130.361 56.9633 130.627 56.8317C130.976 56.6508 131.142 56.3382 131.109 55.9435C131.076 55.5322 130.826 55.2855 130.444 55.2032C129.879 55.0717 129.298 54.973 128.733 54.8578C128.534 54.8085 128.318 54.7756 128.118 54.7098C126.905 54.2985 126.556 52.9004 127.404 51.9627C127.769 51.568 128.235 51.3377 128.75 51.2719C129.796 51.1403 130.793 51.2883 131.707 51.8476C131.79 51.897 131.857 51.9463 131.94 51.9956C131.973 52.0121 131.99 52.045 132.023 52.0943Z" fill="#3F5A5E"/>
<path d="M113.979 56.075C113.746 56.6836 113.53 57.2594 113.298 57.868C112.932 57.868 112.6 57.868 112.251 57.868C112.251 57.5884 114.394 52.0943 114.793 51.3376C114.976 51.3376 115.192 51.3376 115.391 51.3376C115.591 51.3376 115.79 51.3376 116.039 51.3376C116.887 53.4925 117.734 55.6473 118.598 57.8844C118.349 57.8844 118.183 57.8844 118 57.8844C117.817 57.8844 117.634 57.8844 117.435 57.8844C117.202 57.2758 116.986 56.6836 116.754 56.075C115.856 56.075 114.943 56.075 113.979 56.075ZM115.441 52.4726C115.408 52.4726 115.375 52.4562 115.341 52.4562C115.009 53.3445 114.66 54.2327 114.361 55.1374C114.81 55.2361 116.122 55.2197 116.455 55.121C116.106 54.2327 115.773 53.3609 115.441 52.4726Z" fill="#3F5A5E"/>
<path d="M80.8652 57.8521C80.8652 55.6808 80.8652 53.5424 80.8652 51.3711C80.9815 51.3547 81.0978 51.3382 81.1975 51.3382C82.0947 51.3382 83.0086 51.3218 83.9058 51.3547C84.2215 51.3711 84.5704 51.4369 84.8694 51.5521C85.7334 51.9139 86.1488 52.7693 85.9827 53.7727C85.8497 54.6116 85.1021 55.2696 84.2215 55.3354C83.6566 55.3683 83.075 55.3518 82.5101 55.3518C82.4104 55.3518 82.2941 55.3518 82.1944 55.3518C82.0283 55.3518 81.9452 55.4341 81.9452 55.5986C81.9452 55.8947 81.9452 56.1743 81.9452 56.4704C81.9452 56.9145 81.9452 57.3586 81.9452 57.8192C81.5631 57.9179 81.2141 57.9015 80.8652 57.8521ZM81.9452 54.4636C82.0449 54.48 82.0947 54.4965 82.1446 54.4965C82.6597 54.4965 83.1747 54.4965 83.6898 54.4965C83.7895 54.4965 83.8725 54.48 83.9722 54.4636C84.6036 54.3155 84.9359 53.8714 84.8861 53.2299C84.8362 52.6706 84.4208 52.2758 83.7895 52.2594C83.2412 52.2429 82.7095 52.2594 82.1612 52.2594C82.0947 52.2594 82.0283 52.2758 81.9452 52.2923C81.9452 53.016 81.9452 53.7234 81.9452 54.4636Z" fill="#3F5A5E"/>
<path d="M103.827 52.3739C103.611 52.6042 103.412 52.851 103.129 53.1635C103.046 53.0319 103.013 52.9332 102.946 52.8674C102.215 52.2095 101.368 51.9956 100.437 52.3904C99.5237 52.7687 99.075 53.5089 99.0252 54.4959C98.992 55.0716 99.1249 55.6144 99.4738 56.0915C100.255 57.1771 101.8 57.3581 102.847 56.4698C102.963 56.3711 103.063 56.2724 103.179 56.1737C103.412 56.404 103.628 56.6179 103.86 56.8481C103.279 57.72 101.7 58.3286 100.255 57.8515C98.8092 57.391 97.8788 56.0586 97.912 54.5123C97.9452 53.0648 98.9421 51.7818 100.338 51.387C101.733 50.9758 103.262 51.5021 103.827 52.3739Z" fill="#3F5A5E"/>
<path d="M31.6181 51.3545C31.9836 51.3545 32.3159 51.3545 32.7313 51.3545C31.8673 53.5422 31.0199 55.6971 30.156 57.8684C29.7074 57.8684 29.292 57.8684 28.8434 57.8684C27.996 55.7135 27.1486 53.5587 26.2847 51.3709C26.6834 51.3709 27.0323 51.3709 27.4477 51.3709C28.1123 53.1145 28.7769 54.891 29.4581 56.684C29.6575 56.6182 29.6575 56.4537 29.7074 56.3221C30.2889 54.7923 30.8704 53.279 31.4519 51.7492C31.5018 51.6176 31.5516 51.4861 31.6181 51.3545Z" fill="#3F5A5E"/>
<path d="M0.714355 51.3545C1.06327 51.3545 1.39557 51.3545 1.71126 51.3545C1.79433 51.667 1.81095 57.342 1.72787 57.8519C1.39557 57.8519 1.06327 57.8519 0.714355 57.8519C0.714355 55.6806 0.714355 53.5258 0.714355 51.3545Z" fill="#3F5A5E"/>
<path d="M44.8936 51.3545C45.2591 51.3545 45.5748 51.3545 45.8905 51.3545C45.9735 51.6505 46.0068 57.2597 45.9237 57.8519C45.5914 57.8519 45.2591 57.8519 44.8936 57.8519C44.8936 55.6806 44.8936 53.5422 44.8936 51.3545Z" fill="#3F5A5E"/>
<path d="M107.648 51.3705C107.765 51.3541 107.848 51.3541 107.948 51.3376C108.18 51.3376 108.429 51.3376 108.645 51.3376C108.728 51.6666 108.745 57.3416 108.679 57.8515C108.346 57.8515 108.014 57.8515 107.665 57.8515C107.648 55.6967 107.648 53.5583 107.648 51.3705Z" fill="#3F5A5E"/>
<path d="M122.087 51.3545C122.452 51.3545 122.768 51.3545 123.084 51.3545C123.167 51.6505 123.2 57.2433 123.117 57.8519C122.785 57.8519 122.452 57.8519 122.087 57.8519C122.087 55.6806 122.087 53.5422 122.087 51.3545Z" fill="#3F5A5E"/>
<path d="M19.4395 50.3514C19.7718 50.0059 20.1041 49.6441 20.4364 49.3151C20.4862 49.2657 20.5693 49.2328 20.6523 49.2328C20.9846 49.2164 21.3336 49.2328 21.6991 49.2986C21.2339 49.6605 20.8019 50.0553 20.3034 50.3678C20.1041 50.4994 19.7718 50.4336 19.5059 50.4665C19.4727 50.4172 19.4561 50.3843 19.4395 50.3514Z" fill="#3F5A5E"/>
</g>
<defs>
<linearGradient id="paint0_linear_4074_1069" x1="0.0166016" y1="21.8557" x2="134" y2="21.8557" gradientUnits="userSpaceOnUse">
<stop stop-color="#F15B22"/>
<stop offset="1" stop-color="#F58220"/>
</linearGradient>
<clipPath id="clip0_4074_1069">
<rect width="134" height="58" fill="white"/>
</clipPath>
</defs>
</svg>
