<svg width="57" height="328" viewBox="0 0 57 328" fill="none" xmlns="http://www.w3.org/2000/svg">
<mask id="mask0_3161_38580" style="mask-type:luminance" maskUnits="userSpaceOnUse" x="0" y="0" width="274" height="328">
<path d="M273.187 0H0.812988V328H273.187V0Z" fill="white"/>
</mask>
<g mask="url(#mask0_3161_38580)">
<path d="M0.812988 60.3875V58.843C3.08566 58.843 4.93462 56.9897 4.93462 54.7117H6.47542C6.47542 57.8392 3.9331 60.3875 0.812988 60.3875Z" fill="#4C5A5F"/>
</g>
<mask id="mask1_3161_38580" style="mask-type:luminance" maskUnits="userSpaceOnUse" x="0" y="0" width="274" height="328">
<path d="M273.187 0H0.812988V328H273.187V0Z" fill="white"/>
</mask>
<g mask="url(#mask1_3161_38580)">
<path d="M0.812988 70.1949V68.6505C8.51697 68.6505 14.7572 62.3955 14.7572 54.6733H16.298C16.298 63.245 9.36441 70.1949 0.812988 70.1949Z" fill="#4C5A5F"/>
</g>
<mask id="mask2_3161_38580" style="mask-type:luminance" maskUnits="userSpaceOnUse" x="0" y="0" width="274" height="328">
<path d="M273.187 0H0.812988V328H273.187V0Z" fill="white"/>
</mask>
<g mask="url(#mask2_3161_38580)">
<path d="M105.048 218.731H103.507C103.507 192.205 81.9744 170.622 55.5112 170.622V169.077C82.8218 169.077 105.048 191.356 105.048 218.731ZM95.3022 218.731H93.7614C93.7614 197.572 76.5816 180.39 55.5112 180.39V178.846C77.4675 178.884 95.3022 196.761 95.3022 218.731ZM85.5567 218.731H84.0159C84.0159 202.978 71.2273 190.159 55.5112 190.159V188.614C72.0747 188.653 85.5567 202.167 85.5567 218.731ZM75.7727 218.731H74.2319C74.2319 208.383 65.8345 199.927 55.4727 199.927V198.383C66.6819 198.421 75.7727 207.534 75.7727 218.731ZM66.0271 218.731H64.4863C64.4863 213.75 60.4417 209.734 55.5112 209.734V208.19C61.3277 208.19 66.0271 212.939 66.0271 218.731Z" fill="#4A5A5E"/>
</g>
<mask id="mask3_3161_38580" style="mask-type:luminance" maskUnits="userSpaceOnUse" x="0" y="0" width="274" height="328">
<path d="M273.187 0H0.812988V328H273.187V0Z" fill="white"/>
</mask>
<g mask="url(#mask3_3161_38580)">
<path d="M61.1737 218.731H59.6329C59.6329 216.453 57.7839 214.6 55.5112 214.6V213.055C58.6313 213.094 61.1737 215.642 61.1737 218.731Z" fill="#4A5A5E"/>
</g>
<mask id="mask4_3161_38580" style="mask-type:luminance" maskUnits="userSpaceOnUse" x="0" y="0" width="274" height="328">
<path d="M273.187 0H0.812988V328H273.187V0Z" fill="white"/>
</mask>
<g mask="url(#mask4_3161_38580)">
<path d="M70.9192 218.731H69.3784C69.3784 211.048 63.1382 204.831 55.5112 204.831V203.287C64.0241 203.325 70.9192 210.237 70.9192 218.731Z" fill="#4A5A5E"/>
</g>
<mask id="mask5_3161_38580" style="mask-type:luminance" maskUnits="userSpaceOnUse" x="0" y="0" width="274" height="328">
<path d="M273.187 0H0.812988V328H273.187V0Z" fill="white"/>
</mask>
<g mask="url(#mask5_3161_38580)">
<path d="M80.6647 218.731H79.1239C79.1239 205.681 68.531 195.063 55.5112 195.063V193.518C69.3784 193.557 80.6647 204.831 80.6647 218.731Z" fill="#4A5A5E"/>
</g>
<mask id="mask6_3161_38580" style="mask-type:luminance" maskUnits="userSpaceOnUse" x="0" y="0" width="274" height="328">
<path d="M273.187 0H0.812988V328H273.187V0Z" fill="white"/>
</mask>
<g mask="url(#mask6_3161_38580)">
<path d="M90.4102 218.731H88.8694C88.8694 200.275 73.8852 185.255 55.4727 185.255V183.711C74.7711 183.75 90.4102 199.464 90.4102 218.731Z" fill="#4A5A5E"/>
</g>
<mask id="mask7_3161_38580" style="mask-type:luminance" maskUnits="userSpaceOnUse" x="0" y="0" width="274" height="328">
<path d="M273.187 0H0.812988V328H273.187V0Z" fill="white"/>
</mask>
<g mask="url(#mask7_3161_38580)">
<path d="M100.194 218.731H98.6535C98.6535 194.908 79.3165 175.487 55.5112 175.487V173.942C80.1255 173.981 100.194 194.059 100.194 218.731Z" fill="#4A5A5E"/>
</g>
<mask id="mask8_3161_38580" style="mask-type:luminance" maskUnits="userSpaceOnUse" x="0" y="0" width="274" height="328">
<path d="M273.187 0H0.812988V328H273.187V0Z" fill="white"/>
</mask>
<g mask="url(#mask8_3161_38580)">
<path d="M109.94 218.731H108.399C108.399 189.503 84.6708 165.718 55.5112 165.718V164.174C85.5182 164.212 109.94 188.692 109.94 218.731Z" fill="#4A5A5E"/>
</g>
<mask id="mask9_3161_38580" style="mask-type:luminance" maskUnits="userSpaceOnUse" x="0" y="0" width="274" height="328">
<path d="M273.187 0H0.812988V328H273.187V0Z" fill="white"/>
</mask>
<g mask="url(#mask9_3161_38580)">
<path d="M46.228 328H44.6872C44.6872 322.17 49.3866 317.459 55.2031 317.459V319.004C50.2726 318.965 46.228 323.019 46.228 328ZM36.4824 328H34.9416C34.9416 316.803 44.0323 307.691 55.2031 307.691V309.235C44.8798 309.197 36.4824 317.614 36.4824 328ZM26.7369 328H25.1961C25.1961 311.397 38.6781 297.884 55.2416 297.884V299.428C39.5255 299.428 26.7369 312.247 26.7369 328ZM16.9914 328H15.4506C15.4506 306.03 33.2853 288.115 55.2416 288.115V289.659C34.1327 289.621 16.9914 306.841 16.9914 328ZM7.2073 328H5.6665C5.6665 300.625 27.8925 278.346 55.2031 278.346V279.891C28.7399 279.852 7.2073 301.436 7.2073 328Z" fill="#4A5A5E"/>
</g>
<mask id="mask10_3161_38580" style="mask-type:luminance" maskUnits="userSpaceOnUse" x="0" y="0" width="274" height="328">
<path d="M273.187 0H0.812988V328H273.187V0Z" fill="white"/>
</mask>
<g mask="url(#mask10_3161_38580)">
<path d="M51.1199 328H49.5791C49.5791 324.872 52.1214 322.363 55.203 322.363V323.907C52.9689 323.869 51.1199 325.722 51.1199 328Z" fill="#4A5A5E"/>
</g>
<mask id="mask11_3161_38580" style="mask-type:luminance" maskUnits="userSpaceOnUse" x="0" y="0" width="274" height="328">
<path d="M273.187 0H0.812988V328H273.187V0Z" fill="white"/>
</mask>
<g mask="url(#mask11_3161_38580)">
<path d="M41.3745 328H39.8337C39.8337 319.506 46.7288 312.556 55.2417 312.556V314.1C47.5762 314.1 41.3745 320.316 41.3745 328Z" fill="#4A5A5E"/>
</g>
<mask id="mask12_3161_38580" style="mask-type:luminance" maskUnits="userSpaceOnUse" x="0" y="0" width="274" height="328">
<path d="M273.187 0H0.812988V328H273.187V0Z" fill="white"/>
</mask>
<g mask="url(#mask12_3161_38580)">
<path d="M31.5904 328H30.0496C30.0496 314.1 41.3359 302.787 55.2031 302.787V304.332C42.2218 304.293 31.5904 314.911 31.5904 328Z" fill="#4A5A5E"/>
</g>
<mask id="mask13_3161_38580" style="mask-type:luminance" maskUnits="userSpaceOnUse" x="0" y="0" width="274" height="328">
<path d="M273.187 0H0.812988V328H273.187V0Z" fill="white"/>
</mask>
<g mask="url(#mask13_3161_38580)">
<path d="M21.8448 328H20.304C20.304 308.695 35.943 293.019 55.203 293.019V294.563C36.829 294.524 21.8448 309.544 21.8448 328Z" fill="#4A5A5E"/>
</g>
<mask id="mask14_3161_38580" style="mask-type:luminance" maskUnits="userSpaceOnUse" x="0" y="0" width="274" height="328">
<path d="M273.187 0H0.812988V328H273.187V0Z" fill="white"/>
</mask>
<g mask="url(#mask14_3161_38580)">
<path d="M12.0994 328H10.5586C10.5586 303.328 30.5889 283.25 55.2032 283.25V284.794C31.4364 284.756 12.0994 304.139 12.0994 328Z" fill="#4A5A5E"/>
</g>
<mask id="mask15_3161_38580" style="mask-type:luminance" maskUnits="userSpaceOnUse" x="0" y="0" width="274" height="328">
<path d="M273.187 0H0.812988V328H273.187V0Z" fill="white"/>
</mask>
<g mask="url(#mask15_3161_38580)">
<path d="M2.35378 328H0.812988C0.812988 297.922 25.2346 273.443 55.2416 273.443V274.987C26.0821 274.987 2.35378 298.772 2.35378 328Z" fill="#4A5A5E"/>
</g>
<mask id="mask16_3161_38580" style="mask-type:luminance" maskUnits="userSpaceOnUse" x="0" y="0" width="274" height="328">
<path d="M273.187 0H0.812988V328H273.187V0Z" fill="white"/>
</mask>
<g mask="url(#mask16_3161_38580)">
<path d="M0.812988 104.597V103.053C27.4302 103.053 49.0784 81.3535 49.0784 54.6733H50.6192C50.6192 82.2029 28.2777 104.597 0.812988 104.597ZM0.812988 94.7901V93.2457C22.0375 93.2457 39.2559 75.948 39.2559 54.7119H40.7967C40.7967 76.7974 22.8849 94.7901 0.812988 94.7901ZM0.812988 84.9443V83.3999C16.6062 83.3999 29.4718 70.5038 29.4718 54.6733H31.0126C31.0126 71.3919 17.4536 84.9443 0.812988 84.9443ZM0.812988 75.0985V73.5541C11.2134 73.5541 19.6492 65.0983 19.6492 54.6733H21.19C21.19 65.9477 12.0608 75.0985 0.812988 75.0985ZM0.812988 65.2914V63.7469C5.78206 63.7469 9.86517 59.6928 9.86517 54.6733H11.406C11.406 60.5422 6.6295 65.2914 0.812988 65.2914Z" fill="#4A5A5E"/>
</g>
<mask id="mask17_3161_38580" style="mask-type:luminance" maskUnits="userSpaceOnUse" x="0" y="0" width="274" height="328">
<path d="M273.187 0H0.812988V328H273.187V0Z" fill="white"/>
</mask>
<g mask="url(#mask17_3161_38580)">
<path d="M0.812988 80.0407V78.4963C13.9098 78.4963 24.5798 67.8011 24.5798 54.6733H26.1206C26.082 68.6505 14.7572 80.0407 0.812988 80.0407Z" fill="#4A5A5E"/>
</g>
<mask id="mask18_3161_38580" style="mask-type:luminance" maskUnits="userSpaceOnUse" x="0" y="0" width="274" height="328">
<path d="M273.187 0H0.812988V328H273.187V0Z" fill="white"/>
</mask>
<g mask="url(#mask18_3161_38580)">
<path d="M0.812988 89.8479V88.3035C19.3025 88.3035 34.3638 73.2066 34.3638 54.6733H35.9046C35.9046 74.0946 20.15 89.8479 0.812988 89.8479Z" fill="#4A5A5E"/>
</g>
<mask id="mask19_3161_38580" style="mask-type:luminance" maskUnits="userSpaceOnUse" x="0" y="0" width="274" height="328">
<path d="M273.187 0H0.812988V328H273.187V0Z" fill="white"/>
</mask>
<g mask="url(#mask19_3161_38580)">
<path d="M0.812988 99.6937V98.1493C24.7338 98.1493 44.1864 78.6507 44.1864 54.6733H45.7272C45.7272 79.5002 25.5813 99.6937 0.812988 99.6937Z" fill="#4A5A5E"/>
</g>
<mask id="mask20_3161_38580" style="mask-type:luminance" maskUnits="userSpaceOnUse" x="0" y="0" width="274" height="328">
<path d="M273.187 0H0.812988V328H273.187V0Z" fill="white"/>
</mask>
<g mask="url(#mask20_3161_38580)">
<path d="M0.812988 109.539V107.995C30.1266 107.995 53.9705 84.0946 53.9705 54.7117H55.5113C55.5113 69.3838 49.8103 83.1293 39.487 93.4771C29.1636 103.825 15.4506 109.539 0.812988 109.539Z" fill="#4A5A5E"/>
</g>
<mask id="mask21_3161_38580" style="mask-type:luminance" maskUnits="userSpaceOnUse" x="0" y="0" width="274" height="328">
<path d="M273.187 0H0.812988V328H273.187V0Z" fill="white"/>
</mask>
<g mask="url(#mask21_3161_38580)">
<path d="M57.052 164.483H55.5112C55.5112 134.25 80.0484 109.655 110.209 109.655V111.199C80.8958 111.199 57.052 135.1 57.052 164.483Z" fill="#4A5A5E"/>
</g>
<mask id="mask22_3161_38580" style="mask-type:luminance" maskUnits="userSpaceOnUse" x="0" y="0" width="274" height="328">
<path d="M273.187 0H0.812988V328H273.187V0Z" fill="white"/>
</mask>
<g mask="url(#mask22_3161_38580)">
<path d="M55.5112 54.5573H109.94C109.94 24.4407 85.5568 0 55.5112 0V54.5573Z" fill="#4A5A5E"/>
</g>
<mask id="mask23_3161_38580" style="mask-type:luminance" maskUnits="userSpaceOnUse" x="0" y="0" width="274" height="328">
<path d="M273.187 0H0.812988V328H273.187V0Z" fill="white"/>
</mask>
<g mask="url(#mask23_3161_38580)">
<path d="M0.812988 0V54.5573C30.8585 54.5573 55.2416 30.1165 55.2416 0H0.812988Z" fill="#4A5A5E"/>
</g>
<mask id="mask24_3161_38580" style="mask-type:luminance" maskUnits="userSpaceOnUse" x="0" y="0" width="274" height="328">
<path d="M273.187 0H0.812988V328H273.187V0Z" fill="white"/>
</mask>
<g mask="url(#mask24_3161_38580)">
<path d="M55.2416 109.655H0.812988C0.812988 139.772 25.1576 164.212 55.2416 164.212V109.655Z" fill="#4A5A5E"/>
</g>
<mask id="mask25_3161_38580" style="mask-type:luminance" maskUnits="userSpaceOnUse" x="0" y="0" width="274" height="328">
<path d="M273.187 0H0.812988V328H273.187V0Z" fill="white"/>
</mask>
<g mask="url(#mask25_3161_38580)">
<path d="M0.812988 218.731H55.2416C55.2416 188.615 30.897 164.174 0.812988 164.174V218.731Z" fill="#4A5A5E"/>
</g>
<mask id="mask26_3161_38580" style="mask-type:luminance" maskUnits="userSpaceOnUse" x="0" y="0" width="274" height="328">
<path d="M273.187 0H0.812988V328H273.187V0Z" fill="white"/>
</mask>
<g mask="url(#mask26_3161_38580)">
<path d="M55.2416 273.288V218.731C25.1961 218.731 0.812988 243.172 0.812988 273.288H55.2416Z" fill="#4A5A5E"/>
</g>
<mask id="mask27_3161_38580" style="mask-type:luminance" maskUnits="userSpaceOnUse" x="0" y="0" width="274" height="328">
<path d="M273.187 0H0.812988V328H273.187V0Z" fill="white"/>
</mask>
<g mask="url(#mask27_3161_38580)">
<path d="M109.94 218.731H55.5112C55.5112 248.847 79.8558 273.288 109.94 273.288V218.731Z" fill="#4A5A5E"/>
</g>
<mask id="mask28_3161_38580" style="mask-type:luminance" maskUnits="userSpaceOnUse" x="0" y="0" width="274" height="328">
<path d="M273.187 0H0.812988V328H273.187V0Z" fill="white"/>
</mask>
<g mask="url(#mask28_3161_38580)">
<path d="M109.94 328V273.443C79.8943 273.443 55.5112 297.845 55.5112 328H109.94Z" fill="#4A5A5E"/>
</g>
<mask id="mask29_3161_38580" style="mask-type:luminance" maskUnits="userSpaceOnUse" x="0" y="0" width="274" height="328">
<path d="M273.187 0H0.812988V328H273.187V0Z" fill="white"/>
</mask>
<g mask="url(#mask29_3161_38580)">
<path d="M82.7063 109.076C97.7291 109.076 109.901 96.8747 109.901 81.8165C109.901 66.7582 97.7291 54.5571 82.7063 54.5571C67.6835 54.5571 55.5112 66.7582 55.5112 81.8165C55.5112 96.8747 67.6835 109.076 82.7063 109.076Z" fill="#CF6220"/>
</g>
</svg>
