<?xml version="1.0" encoding="UTF-8"?>
<svg width="108px" height="22px" viewBox="0 0 108 22" version="1.1" xmlns="http://www.w3.org/2000/svg" xmlns:xlink="http://www.w3.org/1999/xlink">
    <!-- Generator: Sketch 52.6 (67491) - http://www.bohemiancoding.com/sketch -->
    <title>Group 3</title>
    <desc>Created with Sketch.</desc>
    <g id="Symbols" stroke="none" stroke-width="1" fill="none" fill-rule="evenodd">
        <g id="Menu-Mobile-/-01" transform="translate(-108.000000, -25.000000)" fill="#231F20">
            <g id="menu-interno">
                <g id="Page-1" transform="translate(30.000000, 25.000000)">
                    <g id="Group-3" transform="translate(78.000000, 0.000000)">
                        <path d="M99.5608305,17.404363 L96.923487,17.404363 L96.923487,21.8956222 L99.6424489,21.8956222 L99.7166473,21.3896222 L97.8262351,21.3896222 C97.7042198,21.3896222 97.6168305,21.3480667 97.6168305,21.1753259 L97.6168305,19.7526593 L99.3530748,19.7526593 L99.3530748,19.2409556 L97.6168305,19.2409556 L97.6168305,17.9119926 L99.5608305,17.9119926 L99.5608305,17.404363 Z M92.3017466,17.9160667 L93.9571969,17.9160667 L93.9571969,21.8939926 L94.6505405,21.8939926 L94.6505405,17.9160667 L96.3002198,17.9160667 L96.3002198,17.4059926 L92.3017466,17.4059926 L92.3017466,17.9160667 Z M90.4640977,18.6290296 C90.5382962,18.4489556 90.6331053,18.222437 90.6528916,18.0439926 L90.6809221,18.0439926 C90.6932885,18.222437 90.767487,18.4228815 90.8416855,18.6151778 L91.3726168,20.0451778 L89.8869985,20.0451778 L90.4640977,18.6290296 Z M90.4913038,17.2854 L88.5613191,21.8736222 L89.0922504,21.9274 L89.1466626,21.8956222 L89.7179908,20.4908815 L91.5432733,20.4908815 L92.0593649,21.8956222 L92.1137771,21.9274 L92.7997008,21.8736222 L91.0164641,17.2854 L90.4913038,17.2854 Z M89.1186321,17.4059926 L85.1218076,17.4059926 L85.1218076,17.9160667 L86.777258,17.9160667 L86.777258,21.8939926 L87.4697771,21.8939926 L87.4697771,17.9160667 L89.1186321,17.9160667 L89.1186321,17.4059926 Z M81.1818687,17.404363 L78.5445252,17.404363 L78.5445252,21.8956222 L81.2618382,21.8956222 L81.3368611,21.3896222 L79.4448,21.3896222 C79.3244336,21.3896222 79.2362198,21.3480667 79.2362198,21.1753259 L79.2362198,19.7526593 L80.9724641,19.7526593 L80.9724641,19.2409556 L79.2362198,19.2409556 L79.2362198,17.9119926 L81.1818687,17.9119926 L81.1818687,17.404363 Z M70.4601893,18.6290296 C70.5327389,18.4489556 70.6283725,18.222437 70.6481588,18.0439926 L70.673716,18.0439926 C70.6885557,18.222437 70.7619298,18.4228815 70.8361282,18.6151778 L71.3670595,20.0451778 L69.8806168,20.0451778 L70.4601893,18.6290296 Z M70.486571,17.2854 L68.554113,21.8736222 L69.0858687,21.9274 L69.1411053,21.8956222 L69.7124336,20.4908815 L71.5360672,20.4908815 L72.0538076,21.8956222 L72.1082198,21.9274 L72.7941435,21.8736222 L71.0117313,17.2854 L70.486571,17.2854 Z M68.0644031,17.404363 L65.427884,17.404363 L65.427884,21.8956222 L68.1476702,21.8956222 L68.2193954,21.3896222 L66.3281588,21.3896222 C66.2069679,21.3896222 66.1204031,21.3480667 66.1204031,21.1753259 L66.1204031,19.7526593 L67.8566473,19.7526593 L67.8566473,19.2409556 L66.1204031,19.2409556 L66.1204031,17.9119926 L68.0644031,17.9119926 L68.0644031,17.404363 Z M56.7235786,17.404363 L56.0294107,17.404363 L56.0294107,21.8956222 L58.7483725,21.8956222 L58.822571,21.3896222 L56.9329832,21.3896222 C56.8101435,21.3896222 56.7235786,21.3480667 56.7235786,21.1753259 L56.7235786,17.404363 Z M39.9027847,21.8956222 L40.5953038,21.8956222 L40.5953038,17.404363 L39.9027847,17.404363 L39.9027847,21.8956222 Z M35.2662046,17.9160667 L36.921655,17.9160667 L36.921655,21.8939926 L37.6149985,21.8939926 L37.6149985,17.9160667 L39.2646779,17.9160667 L39.2646779,17.4059926 L35.2662046,17.4059926 L35.2662046,17.9160667 Z M33.4277313,18.6290296 C33.5019298,18.4489556 33.5975634,18.222437 33.6165252,18.0439926 L33.6437313,18.0439926 C33.6569221,18.222437 33.7311206,18.4228815 33.8053191,18.6151778 L34.3370748,20.0451778 L32.8498076,20.0451778 L33.4277313,18.6290296 Z M33.4549374,17.2854 L31.5233038,21.8736222 L32.0550595,21.9274 L32.1094718,21.8956222 L32.6816244,20.4908815 L34.5044336,20.4908815 L35.0229985,21.8956222 L35.0774107,21.9274 L35.7641588,21.8736222 L33.9809221,17.2854 L33.4549374,17.2854 Z M24.1529221,17.404363 L22.8074565,17.404363 L22.8074565,21.8956222 L23.5008,21.8956222 L23.5008,17.8378444 L23.903945,17.8378444 C24.557716,17.8378444 25.0548458,17.9779926 25.0548458,18.6762889 C25.0548458,19.3346593 24.5033038,19.5668815 23.9245557,19.5668815 L23.6895939,19.5668815 L25.5396092,21.8956222 L25.5866015,21.9274 L26.428342,21.8752519 L24.711884,19.7999185 C25.2840366,19.652437 25.8026015,19.2409556 25.8026015,18.5565111 C25.8026015,17.5722148 24.9072733,17.404363 24.1529221,17.404363 Z M21.8890443,17.404363 L19.2525252,17.404363 L19.2525252,21.8956222 L21.9698382,21.8956222 L22.0440366,21.3896222 L20.1519756,21.3896222 C20.0316092,21.3896222 19.9442198,21.3480667 19.9442198,21.1753259 L19.9442198,19.7526593 L21.6804641,19.7526593 L21.6804641,19.2409556 L19.9442198,19.2409556 L19.9442198,17.9119926 L21.8890443,17.9119926 L21.8890443,17.404363 Z M18.6267847,17.4059926 L14.6291359,17.4059926 L14.6291359,17.9160667 L16.2845863,17.9160667 L16.2845863,21.8939926 L16.9779298,21.8939926 L16.9779298,17.9160667 L18.6267847,17.9160667 L18.6267847,17.4059926 Z M8.21673893,21.8956222 L8.91008244,21.8956222 L8.91008244,17.404363 L8.21673893,17.404363 L8.21673893,21.8956222 Z M12.3190901,12.7126593 C12.8252885,11.9719926 13.3957924,10.7929556 13.6711511,9.93577037 L13.269655,9.93577037 C11.8302046,12.238437 9.77655573,12.7509556 8.10296794,12.7509556 C4.88440305,12.7509556 2.13246412,10.2217704 2.13246412,6.77836296 C2.13246412,3.58102963 4.33450992,1.27999259 7.87130382,1.27999259 C10.1788763,1.27999259 11.9992122,2.4411037 12.6975023,4.21088148 L13.0998229,4.21088148 L12.9102046,1.4511037 L12.5911511,1.4511037 C12.5499298,1.50895556 12.4444031,1.56517778 12.2110901,1.56517778 C11.5556702,1.56517778 10.4105405,0.803325926 7.74269313,0.803325926 C3.31799084,0.803325926 0.141471756,3.46777037 0.141471756,7.15806667 C0.141471756,10.6772519 3.23307481,13.2268074 7.53081527,13.2268074 C10.0304794,13.2268074 10.9620824,12.5431778 12.3190901,12.7126593 Z M13.541716,21.9673259 L14.0066931,21.9673259 L14.0066931,17.4059926 L13.4262962,17.4059926 L13.4262962,20.2977704 C13.4262962,20.4591037 13.433716,20.6831778 13.433716,20.8021407 L13.4073344,20.8021407 C13.3735328,20.6766593 13.1715481,20.4248815 13.1047695,20.3311778 L10.9225099,17.4059926 L10.870571,17.3709556 L10.1302351,17.4247333 L10.1302351,21.8956222 L10.7089832,21.8956222 L10.7089832,18.6885111 C10.7089832,18.5149556 10.7015634,18.3291778 10.7015634,18.2362889 L10.7361893,18.2362889 C10.7823573,18.3568815 10.876342,18.482363 10.9505405,18.5825852 L13.541716,21.9673259 Z M24.1265405,12.9228815 L30.1201282,12.9228815 L30.1201282,12.5611037 L29.907426,12.5611037 C28.6378076,12.5611037 28.2140519,12.2571778 28.2140519,10.9070296 L28.2140519,3.01147407 C28.2140519,1.83162222 28.553716,1.4894 29.8241588,1.4511037 L29.8241588,1.09014074 L24.382113,1.09014074 L24.382113,1.4511037 L24.7836092,1.4511037 C26.0960977,1.4511037 26.4563725,1.83162222 26.4563725,2.84117778 L26.4563725,6.58851111 L18.1552122,6.58851111 L18.1552122,3.2771037 C18.1552122,1.8136963 18.4107847,1.4511037 19.9153649,1.4511037 L19.9153649,1.09014074 L14.8748153,1.09014074 L14.8748153,1.4511037 C16.0380824,1.5276963 16.3983573,1.8136963 16.3983573,2.8036963 L16.3983573,11.1734741 C16.3983573,12.2571778 15.975426,12.5611037 14.7264183,12.5611037 L14.5986321,12.5611037 L14.5986321,12.9228815 L19.9153649,12.9228815 L19.9153649,12.5611037 L19.8494107,12.5611037 C18.4322198,12.5611037 18.1552122,12.124363 18.1552122,10.8866593 L18.1552122,7.27214074 L26.4563725,7.27214074 L26.4563725,11.1351778 C26.4563725,12.124363 26.1604031,12.5611037 24.7836092,12.5611037 L24.1265405,12.5611037 L24.1265405,12.9228815 Z M30.4647389,21.9673259 L30.9288916,21.9673259 L30.9288916,17.4059926 L30.3484947,17.4059926 L30.3484947,20.2977704 C30.3484947,20.4591037 30.3567389,20.6831778 30.3567389,20.8021407 L30.3295328,20.8021407 C30.2965557,20.6766593 30.094571,20.4248815 30.0269679,20.3311778 L27.8463573,17.4059926 L27.7927695,17.3709556 L27.0516092,17.4247333 L27.0516092,21.8956222 L27.6320061,21.8956222 L27.6320061,18.6885111 C27.6320061,18.5149556 27.6245863,18.3291778 27.6245863,18.2362889 L27.6575634,18.2362889 C27.7053802,18.3568815 27.7993649,18.482363 27.8735634,18.5825852 L30.4647389,21.9673259 Z M36.1104183,7.55814074 C35.7089221,7.55814074 35.2431206,7.46199259 34.9677618,7.40577037 L34.9677618,1.35577037 C35.4764336,1.27999259 35.9422351,1.27999259 36.4294718,1.27999259 C39.2448916,1.27999259 39.9019603,2.74584444 39.9019603,4.22880741 C39.9019603,6.15014074 38.4188153,7.55814074 36.1104183,7.55814074 Z M43.9878229,13.1705852 L44.2631817,13.1705852 L44.2631817,12.8267333 C43.6498076,12.6572519 43.3744489,12.5040667 43.077655,12.238437 C42.7388153,11.8970296 42.2103573,11.3250296 41.9127389,10.9257704 L39.394113,7.50028889 C39.9233954,7.32999259 41.8913038,6.51191852 41.8913038,4.28665926 C41.8913038,2.82080741 40.8764336,0.91902963 36.4509069,0.91902963 C35.8795786,0.91902963 34.8622351,0.93777037 33.8259298,0.975251852 C32.7871511,1.01436296 31.7491969,1.06977037 31.157258,1.09014074 L31.157258,1.4511037 L32.2149985,1.4511037 C32.9569832,1.4511037 33.2109069,1.75584444 33.2109069,2.45984444 L33.2109069,11.4578444 C33.2109069,12.3525111 32.8926779,12.5611037 31.793716,12.5611037 L31.4960977,12.5611037 L31.4960977,12.9228815 L37.3610748,12.9228815 L37.3610748,12.5611037 L36.6619603,12.5611037 C35.3280366,12.5611037 34.9677618,12.1626593 34.9677618,11.0968815 L34.9677618,7.76673333 C36.1104183,8.01443704 37.6356092,7.88162222 37.6356092,7.88162222 C37.8903573,8.14806667 38.1442809,8.43406667 38.5259908,9.00362222 C40.7066015,12.238437 41.934174,13.1705852 43.9878229,13.1705852 Z M45.1535634,19.652437 C45.1535634,21.0759185 44.4214718,21.5142889 43.6613496,21.5142889 C42.9004031,21.5142889 42.1666626,21.0759185 42.1666626,19.652437 C42.1666626,18.1629556 42.9531664,17.7628815 43.6539298,17.7628815 C44.4000366,17.7628815 45.1535634,18.2102148 45.1535634,19.652437 Z M45.9087389,19.652437 C45.9087389,18.0040667 44.8716092,17.2796963 43.6613496,17.2796963 C42.5302351,17.2796963 41.4123115,18.1768074 41.4123115,19.652437 C41.4123115,21.1940667 42.3282504,21.9999185 43.6613496,21.9999185 C44.8988153,21.9999185 45.9087389,21.0099185 45.9087389,19.652437 Z M45.4066626,12.9228815 L50.5510901,12.9228815 L50.5510901,12.5611037 C49.091029,12.5611037 48.7505405,12.1805852 48.7505405,11.0569556 L48.7505405,2.99273333 C48.7505405,1.71836296 49.2179908,1.4511037 50.5510901,1.4511037 L50.5510901,1.09014074 L45.4066626,1.09014074 L45.4066626,1.4511037 C46.5921893,1.50895556 46.9945099,1.79332593 46.9945099,2.82080741 L46.9945099,10.9257704 C46.9945099,12.2009556 46.7183267,12.5040667 45.4066626,12.5611037 L45.4066626,12.9228815 Z M50.1347542,21.9673259 L50.5989069,21.9673259 L50.5989069,17.4059926 L50.0193344,17.4059926 L50.0193344,20.2977704 C50.0193344,20.4591037 50.0267542,20.6831778 50.0267542,20.8021407 L49.9995481,20.8021407 C49.9673954,20.6766593 49.7645863,20.4248815 49.6978076,20.3311778 L47.5171969,17.4059926 L47.4627847,17.3709556 L46.7232733,17.4247333 L46.7232733,21.8956222 L47.3020214,21.8956222 L47.3020214,18.6885111 C47.3020214,18.5149556 47.295426,18.3291778 47.295426,18.2362889 L47.3292275,18.2362889 C47.3753954,18.3568815 47.4702046,18.482363 47.5444031,18.5825852 L50.1347542,21.9673259 Z M53.098571,18.6290296 C53.1727695,18.4489556 53.2684031,18.222437 53.2881893,18.0439926 L53.3137466,18.0439926 C53.3277618,18.222437 53.4019603,18.4228815 53.4761588,18.6151778 L54.0079145,20.0451778 L52.5206473,20.0451778 L53.098571,18.6290296 Z M53.1257771,17.2854 L51.1941435,21.8736222 L51.7267237,21.9274 L51.7803115,21.8956222 L52.3524641,20.4908815 L54.1752733,20.4908815 L54.6938382,21.8956222 L54.7490748,21.9274 L55.4349985,21.8736222 L53.6517618,17.2854 L53.1257771,17.2854 Z M54.1249832,3.04895556 C54.1249832,1.98399259 55.0986321,1.26043704 56.4960366,1.26043704 C57.9577466,1.26043704 59.3114565,2.13554815 59.9058687,3.50525185 L60.2669679,3.50525185 L59.9058687,1.09014074 L59.5653802,1.09014074 C59.4400672,1.2416963 59.3551511,1.27999259 59.1853191,1.27999259 C58.4441588,1.27999259 58.0847084,0.803325926 56.3064183,0.803325926 C54.1464183,0.803325926 52.5363115,1.98399259 52.5363115,3.56147407 C52.5363115,6.89243704 59.3345405,7.73006667 59.3345405,10.4694741 C59.3345405,11.9719926 57.8307847,12.7126593 56.4111206,12.7126593 C54.7597924,12.7126593 53.2774718,11.7251037 52.8331053,10.0311037 L52.4307847,10.0311037 L52.8751511,12.9228815 L53.2370748,12.9228815 C53.3195176,12.8088074 53.4695634,12.7126593 53.6591817,12.7126593 C53.9568,12.7126593 55.4382962,13.2268074 56.6040366,13.2268074 C59.0797924,13.2268074 60.9215634,11.8391778 60.9215634,9.97325185 C60.9215634,6.47443704 54.1249832,5.75088148 54.1249832,3.04895556 Z M62.5283725,17.404363 L61.1837313,17.404363 L61.1837313,21.8956222 L61.8762504,21.8956222 L61.8762504,17.8378444 L62.2810443,17.8378444 C62.9331664,17.8378444 63.4311206,17.9779926 63.4311206,18.6762889 C63.4311206,19.3346593 62.8804031,19.5668815 62.2983573,19.5668815 L62.0658687,19.5668815 L63.915884,21.8956222 L63.9620519,21.9274 L64.8029679,21.8752519 L63.0881588,19.7999185 C63.659487,19.652437 64.1780519,19.2409556 64.1780519,18.5565111 C64.1780519,17.5722148 63.2810748,17.404363 62.5283725,17.404363 Z M74.3044947,3.8874 L74.6853802,3.8874 L74.3465405,0.803325926 L73.9433954,0.803325926 C73.9013496,1.0331037 73.5831206,1.09014074 73.2879756,1.09014074 L63.1029985,1.09014074 C62.955426,1.09014074 62.807029,1.06977037 62.6792427,1.0331037 C62.5522809,0.993992593 62.4681893,0.91902963 62.4451053,0.803325926 L62.0436092,0.803325926 L61.7047695,3.8874 L62.0864794,3.8874 C62.4047084,2.21295556 62.7855939,1.77377037 63.6322809,1.77377037 L67.3166473,1.77377037 L67.3166473,11.1734741 C67.3166473,12.2009556 66.9349374,12.5611037 65.6430595,12.5611037 L64.859029,12.5611037 L64.859029,12.9228815 L71.5311206,12.9228815 L71.5311206,12.5611037 L70.7462656,12.5611037 C69.4560366,12.5611037 69.0735023,12.2009556 69.0735023,11.1734741 L69.0735023,1.77377037 L72.7586931,1.77377037 C73.6045557,1.77377037 73.9862656,2.21295556 74.3044947,3.8874 Z M76.1099908,21.8956222 L76.1841893,21.3896222 L74.2921282,21.3896222 C74.1717618,21.3896222 74.0843725,21.3480667 74.0843725,21.1753259 L74.0843725,17.404363 L73.391029,17.404363 L73.391029,21.8956222 L76.1099908,21.8956222 Z M76.3095023,12.9228815 L81.4555786,12.9228815 L81.4555786,12.5611037 C79.9938687,12.5611037 79.655029,12.1805852 79.655029,11.0569556 L79.655029,2.99273333 C79.655029,1.71836296 80.1224794,1.4511037 81.4555786,1.4511037 L81.4555786,1.09014074 L76.3095023,1.09014074 L76.3095023,1.4511037 C77.4958534,1.50895556 77.8989985,1.79332593 77.8989985,2.82080741 L77.8989985,10.9257704 C77.8989985,12.2009556 77.6236397,12.5040667 76.3095023,12.5611037 L76.3095023,12.9228815 Z M83.4960366,17.2919185 C82.7103573,17.2919185 81.9428153,17.7628815 81.9428153,18.5630296 C81.9428153,19.1472519 82.3542046,19.4650296 82.8109374,19.6654741 L83.3624794,19.9058444 C83.7384183,20.066363 84.1374412,20.2831037 84.1374412,20.7434741 C84.1374412,21.2755481 83.5916702,21.4833259 83.1209221,21.4833259 C82.7029374,21.4833259 82.3055634,21.3293259 82.0903878,21.1956963 L81.8884031,21.7098444 C82.223945,21.8882889 82.6411053,21.9868815 83.0788763,21.9868815 C83.9676092,21.9868815 84.7953344,21.4482889 84.7953344,20.5389556 C84.7953344,19.9531037 84.3451969,19.5668815 83.8942351,19.3672519 L83.2948763,19.1016222 C82.8851359,18.9150296 82.5817466,18.7488074 82.5817466,18.3829556 C82.5817466,18.024437 82.8983267,17.7971037 83.4226626,17.7971037 C83.7920061,17.7971037 84.1572275,17.958437 84.3526168,18.0977704 L84.5875786,17.558363 C84.2709985,17.3905111 83.9222656,17.2919185 83.4960366,17.2919185 Z M93.7098687,12.9228815 L94.0503573,10.0881407 L93.6669985,10.0881407 C93.1368916,11.7251037 92.694174,12.238437 91.2118534,12.238437 L87.9495939,12.238437 C87.1680366,12.238437 86.806113,12.0665111 86.806113,11.1930296 L86.806113,7.13932593 L90.387426,7.13932593 C91.2547237,7.13932593 91.6570443,7.29251111 91.8268763,8.64265926 L92.2300214,8.64265926 L92.2300214,5.02814074 L91.8268763,5.02814074 C91.7205252,6.13221481 91.359426,6.45488148 90.597655,6.45488148 L86.806113,6.45488148 L86.806113,1.77377037 L91.2745099,1.77377037 C92.0379298,1.77377037 92.5672122,2.11680741 92.842571,3.7334 L93.2234565,3.7334 L93.0528,1.09014074 L82.8909069,1.09014074 L82.8909069,1.4511037 L83.355884,1.4511037 C84.7755481,1.4511037 85.0517313,1.9074 85.0517313,2.97317778 L85.0517313,11.0015481 C85.0517313,12.1422889 84.7557618,12.5611037 83.0590901,12.5611037 L82.4679756,12.5611037 L82.4679756,12.9228815 L93.7098687,12.9228815 Z M97.9869985,1.9456963 C97.9869985,1.0331037 97.3530137,0.36577037 96.5063267,0.36577037 C95.8706931,0.36577037 95.3620214,0.7854 95.3620214,1.29954815 C95.3620214,1.79332593 95.764342,2.1551037 96.315884,2.1551037 C96.5483725,2.1551037 96.6324641,2.0996963 96.8237313,2.0996963 C97.0356092,2.0996963 97.1197008,2.26917778 97.1197008,2.49895556 C97.1197008,3.18095556 96.5483725,3.84828889 95.4889832,4.40073333 L95.6373802,4.74295556 C97.0356092,4.26628889 97.9869985,3.12554815 97.9869985,1.9456963 Z M106.770449,3.50525185 L107.130724,3.50525185 L106.770449,1.09014074 L106.432434,1.09014074 C106.304647,1.2416963 106.220556,1.27999259 106.051548,1.27999259 C105.309563,1.27999259 104.948464,0.803325926 103.170998,0.803325926 C101.010998,0.803325926 99.4008916,1.98399259 99.4008916,3.56147407 C99.4008916,6.89243704 106.199945,7.73006667 106.199945,10.4694741 C106.199945,11.9719926 104.696189,12.7126593 103.276525,12.7126593 C101.624373,12.7126593 100.144525,11.7251037 99.6985099,10.0311037 L99.2961893,10.0311037 L99.7405557,12.9228815 L100.100831,12.9228815 C100.186571,12.8088074 100.334144,12.7126593 100.523762,12.7126593 C100.82138,12.7126593 102.302876,13.2268074 103.467792,13.2268074 C105.944373,13.2268074 107.786144,11.8391778 107.786144,9.97325185 C107.786144,6.47443704 100.991212,5.75088148 100.991212,3.04895556 C100.991212,1.98399259 101.964037,1.26043704 103.361441,1.26043704 C104.823151,1.26043704 106.179334,2.13554815 106.770449,3.50525185 Z" id="Fill-1"></path>
                    </g>
                </g>
            </g>
        </g>
    </g>
</svg>