<svg width="18" height="20" viewBox="0 0 18 20" fill="none" xmlns="http://www.w3.org/2000/svg">
<path d="M15.2333 3.82227L14.8806 9.5333M2.06665 3.82227L2.59736 12.6218C2.73328 14.8754 2.80124 16.0022 3.36461 16.8125C3.64313 17.2131 4.00197 17.5513 4.41826 17.8054C5.00751 18.1652 5.73671 18.2732 6.89443 18.3056" stroke="#141B34" stroke-width="1.5" stroke-linecap="round"/>
<path d="M15.6722 12.161L9.52771 18.305M15.6722 18.3055L9.52771 12.1614" stroke="#141B34" stroke-width="1.5" stroke-linecap="round" stroke-linejoin="round"/>
<path d="M0.75 3.82222H16.55M12.21 3.82222L11.6108 2.58607C11.2127 1.76494 11.0137 1.35437 10.6704 1.09831C10.5942 1.04151 10.5136 0.990987 10.4293 0.947237C10.0491 0.75 9.59283 0.75 8.68031 0.75C7.74486 0.75 7.27714 0.75 6.89065 0.955505C6.805 1.00105 6.72326 1.05362 6.64629 1.11267C6.29899 1.3791 6.10499 1.8047 5.717 2.65588L5.18534 3.82222" stroke="#141B34" stroke-width="1.5" stroke-linecap="round"/>
</svg>
