<svg width="26" height="24" viewBox="0 0 26 24" fill="none" xmlns="http://www.w3.org/2000/svg">
<path d="M18.4873 1C21.8495 1 24.5 3.65748 24.5 7.11523C24.5 9.2298 23.5694 11.2307 21.7334 13.5098C19.886 15.8031 17.2244 18.2573 13.9219 21.2959L13.9199 21.2969L12.75 22.377L11.5801 21.2969L11.5781 21.2959L9.22461 19.1191C6.99627 17.0395 5.15214 15.2297 3.7666 13.5098C1.93062 11.2307 1 9.2298 1 7.11523C1.00002 3.65748 3.65047 1 7.0127 1C8.92338 1.00006 10.7777 1.90806 11.9863 3.33691L12.75 4.23926L13.5137 3.33691C14.7223 1.90806 16.5766 1.00006 18.4873 1Z" stroke="#F24E1E" stroke-width="2"/>
</svg>
